<svg xmlns="http://www.w3.org/2000/svg" xmlns:xlink="http://www.w3.org/1999/xlink" width="800" zoomAndPan="magnify" viewBox="0 0 600 74.999997" height="100" preserveAspectRatio="xMidYMid meet" version="1.0"><defs><filter x="0%" y="0%" width="100%" height="100%" id="d72b120b07"><feColorMatrix values="0 0 0 0 1 0 0 0 0 1 0 0 0 0 1 0 0 0 1 0" color-interpolation-filters="sRGB"/></filter><g/><clipPath id="2730523343"><path d="M 286.3125 16.585938 L 303 16.585938 L 303 46.585938 L 286.3125 46.585938 Z M 286.3125 16.585938 " clip-rule="nonzero"/></clipPath><mask id="7fc0b642da"><g filter="url(#d72b120b07)"><rect x="-60" width="720" fill="#000000" y="-7.5" height="89.999996" fill-opacity="0.3"/></g></mask><clipPath id="b83214018f"><path d="M 0.3125 0.585938 L 16 0.585938 L 16 30.558594 L 0.3125 30.558594 Z M 0.3125 0.585938 " clip-rule="nonzero"/></clipPath><clipPath id="15fe6a6b3c"><rect x="0" width="17" y="0" height="31"/></clipPath><mask id="5ee30db79a"><g filter="url(#d72b120b07)"><rect x="-60" width="720" fill="#000000" y="-7.5" height="89.999996" fill-opacity="0.2"/></g></mask><clipPath id="a6e0219cf1"><path d="M 0.558594 0.519531 L 14.71875 0.519531 L 14.71875 27.878906 L 0.558594 27.878906 Z M 0.558594 0.519531 " clip-rule="nonzero"/></clipPath><clipPath id="368118c015"><rect x="0" width="15" y="0" height="28"/></clipPath><clipPath id="b5c9ff7f33"><path d="M 286.3125 16.585938 L 302 16.585938 L 302 46.585938 L 286.3125 46.585938 Z M 286.3125 16.585938 " clip-rule="nonzero"/></clipPath></defs><rect x="-60" width="720" fill="#ffffff" y="-7.5" height="89.999996" fill-opacity="1"/><rect x="-60" width="720" fill="#001c30" y="-7.5" height="89.999996" fill-opacity="1"/><g fill="#97e4ff" fill-opacity="1"><g transform="translate(269.259241, 55.929187)"><g><path d="M 5.226562 -4.011719 C 5.226562 -4.003906 5.226562 -4 5.226562 -3.992188 C 5.226562 -3.984375 5.226562 -3.976562 5.226562 -3.972656 Z M 5.355469 -0.296875 L 4.15625 -2.351562 C 4.492188 -2.394531 4.753906 -2.539062 4.925781 -2.769531 C 5.117188 -3.050781 5.21875 -3.457031 5.226562 -3.992188 C 5.21875 -4.527344 5.117188 -4.929688 4.925781 -5.210938 C 4.71875 -5.507812 4.375 -5.652344 3.910156 -5.652344 L 0.746094 -5.652344 C 0.6875 -5.652344 0.546875 -5.632812 0.546875 -5.410156 L 0.546875 -4.871094 C 0.546875 -4.65625 0.6875 -4.636719 0.746094 -4.636719 L 3.730469 -4.636719 C 3.910156 -4.636719 4.027344 -4.589844 4.09375 -4.484375 C 4.171875 -4.382812 4.203125 -4.21875 4.203125 -3.992188 C 4.203125 -3.765625 4.171875 -3.601562 4.09375 -3.496094 C 4.027344 -3.394531 3.910156 -3.347656 3.730469 -3.347656 L 0.746094 -3.347656 C 0.6875 -3.347656 0.546875 -3.328125 0.546875 -3.113281 L 0.546875 -0.234375 C 0.546875 -0.0195312 0.6875 0.0078125 0.746094 0.0078125 L 1.371094 0.0078125 C 1.433594 0.0078125 1.5625 -0.0195312 1.5625 -0.234375 L 1.5625 -2.332031 L 3.011719 -2.332031 L 4.253906 -0.128906 C 4.28125 -0.0898438 4.300781 -0.0546875 4.328125 -0.0351562 C 4.363281 -0.0078125 4.410156 0.0078125 4.472656 0.0078125 L 5.226562 0.0078125 C 5.308594 0.0078125 5.371094 -0.046875 5.382812 -0.128906 C 5.390625 -0.199219 5.382812 -0.253906 5.355469 -0.296875 Z M 5.355469 -0.296875 "/></g></g></g><g fill="#97e4ff" fill-opacity="1"><g transform="translate(274.855029, 55.929187)"><g><path d="M 4.671875 -1.226562 L 2.257812 -1.226562 C 2.113281 -1.226562 1.996094 -1.25 1.898438 -1.277344 C 1.8125 -1.308594 1.75 -1.359375 1.695312 -1.425781 C 1.640625 -1.503906 1.597656 -1.605469 1.578125 -1.734375 C 1.570312 -1.769531 1.570312 -1.816406 1.5625 -1.851562 C 1.5625 -1.851562 1.570312 -2.347656 1.578125 -2.347656 L 4.644531 -2.347656 C 4.699219 -2.347656 4.835938 -2.375 4.835938 -2.585938 L 4.835938 -3.128906 C 4.835938 -3.339844 4.699219 -3.359375 4.644531 -3.359375 L 1.105469 -3.355469 C 0.90625 -3.339844 0.734375 -3.238281 0.636719 -3.066406 C 0.605469 -3.011719 0.574219 -2.957031 0.5625 -2.894531 L 0.546875 -2.03125 L 0.546875 -1.996094 C 0.554688 -1.671875 0.589844 -1.398438 0.636719 -1.171875 C 0.699219 -0.898438 0.800781 -0.671875 0.933594 -0.5 C 1.070312 -0.324219 1.25 -0.199219 1.46875 -0.125 C 1.679688 -0.0429688 1.933594 -0.0078125 2.234375 -0.0078125 L 4.671875 -0.0078125 C 4.734375 -0.0078125 4.871094 -0.0273438 4.871094 -0.238281 L 4.871094 -0.996094 C 4.871094 -1.207031 4.734375 -1.226562 4.671875 -1.226562 Z M 4.679688 -5.664062 L 0.734375 -5.664062 C 0.679688 -5.664062 0.546875 -5.636719 0.546875 -5.417969 L 0.546875 -4.882812 C 0.546875 -4.671875 0.679688 -4.648438 0.734375 -4.648438 L 4.679688 -4.644531 C 4.734375 -4.644531 4.871094 -4.671875 4.871094 -4.882812 L 4.871094 -5.425781 C 4.871094 -5.636719 4.734375 -5.664062 4.679688 -5.664062 Z M 4.679688 -5.664062 "/></g></g></g><g fill="#97e4ff" fill-opacity="1"><g transform="translate(279.929617, 55.929187)"><g><path d="M 5.234375 -4.375 C 5.164062 -4.664062 5.046875 -4.902344 4.902344 -5.097656 C 4.753906 -5.28125 4.554688 -5.425781 4.320312 -5.515625 C 4.085938 -5.605469 3.8125 -5.652344 3.492188 -5.652344 L 1.097656 -5.652344 L 1.097656 -5.644531 C 0.898438 -5.632812 0.726562 -5.519531 0.625 -5.355469 C 0.597656 -5.300781 0.570312 -5.238281 0.554688 -5.183594 L 0.546875 -0.5 C 0.5625 -0.425781 0.589844 -0.351562 0.625 -0.289062 C 0.734375 -0.101562 0.933594 0.0078125 1.144531 0.0078125 L 3.492188 0.0078125 C 3.8125 0.0078125 4.09375 -0.0429688 4.320312 -0.128906 C 4.554688 -0.21875 4.753906 -0.363281 4.902344 -0.554688 C 5.046875 -0.742188 5.164062 -0.980469 5.234375 -1.269531 C 5.300781 -1.558594 5.335938 -1.898438 5.335938 -2.285156 L 5.335938 -3.359375 C 5.335938 -3.746094 5.300781 -4.085938 5.234375 -4.375 Z M 1.558594 -1.050781 L 1.558594 -4.59375 C 1.558594 -4.621094 1.5625 -4.636719 1.570312 -4.636719 L 3.46875 -4.636719 C 3.628906 -4.636719 3.765625 -4.617188 3.875 -4.574219 C 3.984375 -4.535156 4.066406 -4.480469 4.128906 -4.390625 C 4.199219 -4.300781 4.246094 -4.183594 4.273438 -4.039062 C 4.300781 -3.882812 4.320312 -3.691406 4.320312 -3.464844 L 4.320312 -2.179688 C 4.320312 -1.953125 4.300781 -1.761719 4.273438 -1.613281 C 4.246094 -1.460938 4.199219 -1.34375 4.128906 -1.253906 C 4.066406 -1.171875 3.984375 -1.109375 3.875 -1.070312 C 3.765625 -1.027344 3.628906 -1.015625 3.46875 -1.015625 L 1.5625 -1.015625 C 1.5625 -1.015625 1.558594 -1.023438 1.558594 -1.050781 Z M 1.558594 -1.050781 "/></g></g></g><g fill="#97e4ff" fill-opacity="1"><g transform="translate(285.470544, 55.929187)"><g><path d="M 4.671875 -1.226562 L 2.257812 -1.226562 C 2.113281 -1.226562 1.996094 -1.25 1.898438 -1.277344 C 1.8125 -1.308594 1.75 -1.359375 1.695312 -1.425781 C 1.640625 -1.503906 1.597656 -1.605469 1.578125 -1.734375 C 1.570312 -1.769531 1.570312 -1.816406 1.5625 -1.851562 C 1.5625 -1.851562 1.570312 -2.347656 1.578125 -2.347656 L 4.644531 -2.347656 C 4.699219 -2.347656 4.835938 -2.375 4.835938 -2.585938 L 4.835938 -3.128906 C 4.835938 -3.339844 4.699219 -3.359375 4.644531 -3.359375 L 1.105469 -3.355469 C 0.90625 -3.339844 0.734375 -3.238281 0.636719 -3.066406 C 0.605469 -3.011719 0.574219 -2.957031 0.5625 -2.894531 L 0.546875 -2.03125 L 0.546875 -1.996094 C 0.554688 -1.671875 0.589844 -1.398438 0.636719 -1.171875 C 0.699219 -0.898438 0.800781 -0.671875 0.933594 -0.5 C 1.070312 -0.324219 1.25 -0.199219 1.46875 -0.125 C 1.679688 -0.0429688 1.933594 -0.0078125 2.234375 -0.0078125 L 4.671875 -0.0078125 C 4.734375 -0.0078125 4.871094 -0.0273438 4.871094 -0.238281 L 4.871094 -0.996094 C 4.871094 -1.207031 4.734375 -1.226562 4.671875 -1.226562 Z M 4.679688 -5.664062 L 0.734375 -5.664062 C 0.679688 -5.664062 0.546875 -5.636719 0.546875 -5.417969 L 0.546875 -4.882812 C 0.546875 -4.671875 0.679688 -4.648438 0.734375 -4.648438 L 4.679688 -4.644531 C 4.734375 -4.644531 4.871094 -4.671875 4.871094 -4.882812 L 4.871094 -5.425781 C 4.871094 -5.636719 4.734375 -5.664062 4.679688 -5.664062 Z M 4.679688 -5.664062 "/></g></g></g><g fill="#97e4ff" fill-opacity="1"><g transform="translate(290.545131, 55.929187)"><g><path d="M 3.863281 -3.375 L 1.804688 -3.375 C 1.699219 -3.375 1.570312 -3.414062 1.570312 -3.75 L 1.570312 -4.257812 C 1.570312 -4.382812 1.589844 -4.480469 1.625 -4.546875 C 1.652344 -4.589844 1.695312 -4.636719 1.8125 -4.636719 L 4.601562 -4.636719 C 4.65625 -4.636719 4.792969 -4.65625 4.792969 -4.871094 L 4.792969 -5.417969 C 4.792969 -5.632812 4.65625 -5.652344 4.601562 -5.652344 L 1.644531 -5.652344 C 1.269531 -5.652344 0.996094 -5.527344 0.816406 -5.273438 C 0.636719 -5.027344 0.546875 -4.699219 0.546875 -4.300781 L 0.546875 -3.777344 C 0.546875 -3.304688 0.644531 -2.921875 0.816406 -2.683594 C 1.027344 -2.402344 1.34375 -2.359375 1.632812 -2.359375 L 3.691406 -2.359375 C 3.792969 -2.359375 3.929688 -2.316406 3.929688 -1.980469 L 3.929688 -1.390625 C 3.929688 -1.269531 3.910156 -1.171875 3.867188 -1.105469 C 3.839844 -1.0625 3.800781 -1.015625 3.683594 -1.015625 L 0.753906 -1.015625 C 0.691406 -1.015625 0.554688 -0.996094 0.554688 -0.78125 L 0.554688 -0.234375 C 0.554688 -0.0195312 0.691406 0 0.753906 0 L 3.847656 0 C 4.226562 0 4.507812 -0.128906 4.683594 -0.382812 C 4.855469 -0.632812 4.945312 -0.953125 4.945312 -1.351562 L 4.945312 -1.953125 C 4.945312 -2.402344 4.855469 -2.75 4.679688 -2.996094 C 4.492188 -3.246094 4.21875 -3.375 3.863281 -3.375 Z M 3.863281 -3.375 "/></g></g></g><g fill="#97e4ff" fill-opacity="1"><g transform="translate(295.695155, 55.929187)"><g/></g></g><g fill="#97e4ff" fill-opacity="1"><g transform="translate(298.876961, 55.929187)"><g><path d="M 3.863281 -3.375 L 1.804688 -3.375 C 1.699219 -3.375 1.570312 -3.414062 1.570312 -3.75 L 1.570312 -4.257812 C 1.570312 -4.382812 1.589844 -4.480469 1.625 -4.546875 C 1.652344 -4.589844 1.695312 -4.636719 1.8125 -4.636719 L 4.601562 -4.636719 C 4.65625 -4.636719 4.792969 -4.65625 4.792969 -4.871094 L 4.792969 -5.417969 C 4.792969 -5.632812 4.65625 -5.652344 4.601562 -5.652344 L 1.644531 -5.652344 C 1.269531 -5.652344 0.996094 -5.527344 0.816406 -5.273438 C 0.636719 -5.027344 0.546875 -4.699219 0.546875 -4.300781 L 0.546875 -3.777344 C 0.546875 -3.304688 0.644531 -2.921875 0.816406 -2.683594 C 1.027344 -2.402344 1.34375 -2.359375 1.632812 -2.359375 L 3.691406 -2.359375 C 3.792969 -2.359375 3.929688 -2.316406 3.929688 -1.980469 L 3.929688 -1.390625 C 3.929688 -1.269531 3.910156 -1.171875 3.867188 -1.105469 C 3.839844 -1.0625 3.800781 -1.015625 3.683594 -1.015625 L 0.753906 -1.015625 C 0.691406 -1.015625 0.554688 -0.996094 0.554688 -0.78125 L 0.554688 -0.234375 C 0.554688 -0.0195312 0.691406 0 0.753906 0 L 3.847656 0 C 4.226562 0 4.507812 -0.128906 4.683594 -0.382812 C 4.855469 -0.632812 4.945312 -0.953125 4.945312 -1.351562 L 4.945312 -1.953125 C 4.945312 -2.402344 4.855469 -2.75 4.679688 -2.996094 C 4.492188 -3.246094 4.21875 -3.375 3.863281 -3.375 Z M 3.863281 -3.375 "/></g></g></g><g fill="#97e4ff" fill-opacity="1"><g transform="translate(304.026985, 55.929187)"><g><path d="M 5.21875 -5.152344 C 5.082031 -5.324219 4.902344 -5.453125 4.683594 -5.535156 C 4.472656 -5.609375 4.210938 -5.652344 3.910156 -5.652344 L 2.234375 -5.652344 C 1.933594 -5.652344 1.679688 -5.609375 1.46875 -5.535156 C 1.25 -5.453125 1.070312 -5.324219 0.933594 -5.152344 C 0.800781 -4.980469 0.699219 -4.753906 0.636719 -4.480469 C 0.574219 -4.210938 0.546875 -3.890625 0.546875 -3.503906 L 0.546875 -2.148438 C 0.546875 -1.761719 0.574219 -1.433594 0.636719 -1.164062 C 0.699219 -0.890625 0.800781 -0.664062 0.933594 -0.492188 C 1.070312 -0.316406 1.25 -0.183594 1.46875 -0.109375 C 1.671875 -0.0351562 1.933594 0.0078125 2.234375 0.0078125 L 3.910156 0.0078125 C 4.210938 0.0078125 4.472656 -0.0351562 4.683594 -0.109375 C 4.902344 -0.183594 5.082031 -0.316406 5.21875 -0.488281 C 5.355469 -0.664062 5.453125 -0.890625 5.515625 -1.164062 C 5.570312 -1.433594 5.605469 -1.761719 5.605469 -2.148438 L 5.605469 -3.503906 C 5.605469 -3.882812 5.570312 -4.210938 5.515625 -4.480469 C 5.453125 -4.753906 5.355469 -4.980469 5.21875 -5.152344 Z M 4.582031 -3.621094 L 4.582031 -2.023438 C 4.582031 -1.824219 4.574219 -1.652344 4.546875 -1.515625 C 4.527344 -1.390625 4.484375 -1.28125 4.429688 -1.214844 C 4.382812 -1.136719 4.3125 -1.089844 4.226562 -1.0625 C 4.136719 -1.027344 4.019531 -1.015625 3.875 -1.015625 L 2.269531 -1.015625 C 2.125 -1.015625 2.007812 -1.027344 1.921875 -1.0625 C 1.832031 -1.089844 1.761719 -1.136719 1.714844 -1.214844 C 1.660156 -1.28125 1.625 -1.390625 1.597656 -1.515625 C 1.578125 -1.652344 1.5625 -1.824219 1.5625 -2.023438 L 1.5625 -3.621094 C 1.5625 -3.820312 1.578125 -3.992188 1.597656 -4.128906 C 1.625 -4.257812 1.660156 -4.363281 1.714844 -4.4375 C 1.761719 -4.507812 1.832031 -4.554688 1.921875 -4.589844 C 2.007812 -4.617188 2.125 -4.636719 2.269531 -4.636719 L 3.875 -4.636719 C 4.019531 -4.636719 4.136719 -4.617188 4.226562 -4.589844 C 4.3125 -4.554688 4.382812 -4.507812 4.429688 -4.4375 C 4.484375 -4.363281 4.527344 -4.257812 4.546875 -4.128906 C 4.574219 -3.992188 4.582031 -3.820312 4.582031 -3.621094 Z M 4.582031 -3.621094 "/></g></g></g><g fill="#97e4ff" fill-opacity="1"><g transform="translate(309.835371, 55.929187)"><g><path d="M 4.738281 -5.652344 L 2.242188 -5.652344 C 1.941406 -5.652344 1.679688 -5.609375 1.46875 -5.535156 C 1.25 -5.453125 1.070312 -5.324219 0.941406 -5.152344 C 0.800781 -4.980469 0.699219 -4.753906 0.636719 -4.480469 C 0.574219 -4.210938 0.546875 -3.882812 0.546875 -3.503906 L 0.546875 -2.148438 C 0.546875 -1.761719 0.574219 -1.433594 0.636719 -1.160156 C 0.699219 -0.890625 0.800781 -0.664062 0.941406 -0.488281 C 1.078125 -0.316406 1.253906 -0.183594 1.46875 -0.109375 C 1.679688 -0.0351562 1.941406 0.0078125 2.242188 0.0078125 L 4.738281 0.0078125 C 4.792969 0.0078125 4.929688 -0.0195312 4.929688 -0.234375 L 4.929688 -0.773438 C 4.929688 -0.988281 4.792969 -1.015625 4.738281 -1.015625 L 2.277344 -1.015625 C 2.132812 -1.015625 2.007812 -1.027344 1.921875 -1.0625 C 1.832031 -1.089844 1.769531 -1.136719 1.714844 -1.214844 C 1.660156 -1.28125 1.625 -1.386719 1.597656 -1.515625 C 1.578125 -1.652344 1.5625 -1.824219 1.5625 -2.03125 L 1.5625 -3.628906 C 1.5625 -3.835938 1.578125 -4.003906 1.597656 -4.136719 C 1.625 -4.265625 1.660156 -4.363281 1.714844 -4.4375 C 1.769531 -4.511719 1.832031 -4.5625 1.921875 -4.589844 C 2.007812 -4.621094 2.132812 -4.636719 2.277344 -4.636719 L 4.738281 -4.636719 C 4.792969 -4.636719 4.929688 -4.664062 4.929688 -4.882812 L 4.929688 -5.410156 C 4.929688 -5.625 4.792969 -5.652344 4.738281 -5.652344 Z M 4.738281 -5.652344 "/></g></g></g><g fill="#97e4ff" fill-opacity="1"><g transform="translate(314.971682, 55.929187)"><g><path d="M 1.371094 -5.652344 L 0.742188 -5.652344 C 0.6875 -5.652344 0.546875 -5.625 0.546875 -5.410156 L 0.546875 -0.234375 C 0.546875 -0.0195312 0.6875 0.0078125 0.742188 0.0078125 L 1.371094 0.0078125 C 1.425781 0.0078125 1.5625 -0.0195312 1.5625 -0.234375 L 1.5625 -5.410156 C 1.5625 -5.625 1.425781 -5.652344 1.371094 -5.652344 Z M 1.371094 -5.652344 "/></g></g></g><g fill="#97e4ff" fill-opacity="1"><g transform="translate(316.740758, 55.929187)"><g><path d="M 4.226562 -5.015625 C 4.210938 -5.046875 4.199219 -5.089844 4.183594 -5.117188 C 4.074219 -5.472656 3.746094 -5.726562 3.367188 -5.726562 C 3.195312 -5.726562 3.03125 -5.679688 2.894531 -5.582031 C 2.851562 -5.5625 2.820312 -5.535156 2.792969 -5.515625 C 2.6875 -5.425781 2.585938 -5.261719 2.488281 -5.015625 L 0.574219 -0.261719 C 0.554688 -0.199219 0.546875 -0.136719 0.5625 -0.0976562 C 0.570312 -0.0546875 0.605469 0.0078125 0.714844 0.0078125 L 1.46875 0.0078125 C 1.558594 0.0078125 1.625 -0.046875 1.660156 -0.136719 L 2.050781 -1.117188 L 3.554688 -1.117188 C 3.628906 -1.117188 3.695312 -1.152344 3.730469 -1.214844 C 3.773438 -1.269531 3.777344 -1.34375 3.757812 -1.414062 L 3.511719 -2.023438 C 3.476562 -2.105469 3.402344 -2.160156 3.3125 -2.160156 L 2.460938 -2.160156 L 3.339844 -4.382812 C 3.347656 -4.398438 3.355469 -4.402344 3.355469 -4.402344 L 3.382812 -4.402344 C 3.382812 -4.402344 3.382812 -4.402344 3.386719 -4.390625 L 5.089844 -0.144531 C 5.125 -0.046875 5.191406 0.0078125 5.289062 0.0078125 L 6.023438 0.0078125 C 6.132812 0.0078125 6.160156 -0.0625 6.171875 -0.0976562 C 6.1875 -0.136719 6.179688 -0.199219 6.152344 -0.261719 Z M 4.226562 -5.015625 "/></g></g></g><g fill="#97e4ff" fill-opacity="1"><g transform="translate(323.132063, 55.929187)"><g><path d="M 1.371094 -5.652344 L 0.742188 -5.652344 C 0.6875 -5.652344 0.546875 -5.625 0.546875 -5.410156 L 0.546875 -0.234375 C 0.546875 -0.0195312 0.6875 0.0078125 0.742188 0.0078125 L 1.371094 0.0078125 C 1.425781 0.0078125 1.5625 -0.0195312 1.5625 -0.234375 L 1.5625 -5.410156 C 1.5625 -5.625 1.425781 -5.652344 1.371094 -5.652344 Z M 1.371094 -5.652344 "/></g></g></g><g fill="#97e4ff" fill-opacity="1"><g transform="translate(324.90114, 55.929187)"><g><path d="M 3.863281 -3.375 L 1.804688 -3.375 C 1.699219 -3.375 1.570312 -3.414062 1.570312 -3.75 L 1.570312 -4.257812 C 1.570312 -4.382812 1.589844 -4.480469 1.625 -4.546875 C 1.652344 -4.589844 1.695312 -4.636719 1.8125 -4.636719 L 4.601562 -4.636719 C 4.65625 -4.636719 4.792969 -4.65625 4.792969 -4.871094 L 4.792969 -5.417969 C 4.792969 -5.632812 4.65625 -5.652344 4.601562 -5.652344 L 1.644531 -5.652344 C 1.269531 -5.652344 0.996094 -5.527344 0.816406 -5.273438 C 0.636719 -5.027344 0.546875 -4.699219 0.546875 -4.300781 L 0.546875 -3.777344 C 0.546875 -3.304688 0.644531 -2.921875 0.816406 -2.683594 C 1.027344 -2.402344 1.34375 -2.359375 1.632812 -2.359375 L 3.691406 -2.359375 C 3.792969 -2.359375 3.929688 -2.316406 3.929688 -1.980469 L 3.929688 -1.390625 C 3.929688 -1.269531 3.910156 -1.171875 3.867188 -1.105469 C 3.839844 -1.0625 3.800781 -1.015625 3.683594 -1.015625 L 0.753906 -1.015625 C 0.691406 -1.015625 0.554688 -0.996094 0.554688 -0.78125 L 0.554688 -0.234375 C 0.554688 -0.0195312 0.691406 0 0.753906 0 L 3.847656 0 C 4.226562 0 4.507812 -0.128906 4.683594 -0.382812 C 4.855469 -0.632812 4.945312 -0.953125 4.945312 -1.351562 L 4.945312 -1.953125 C 4.945312 -2.402344 4.855469 -2.75 4.679688 -2.996094 C 4.492188 -3.246094 4.21875 -3.375 3.863281 -3.375 Z M 3.863281 -3.375 "/></g></g></g><g fill="#f4f6fc" fill-opacity="1"><g transform="translate(282.60333, 61.030391)"><g><path d="M 2.0625 -0.234375 C 2.09375 -0.191406 2.109375 -0.15625 2.109375 -0.125 C 2.109375 -0.101562 2.09375 -0.078125 2.0625 -0.046875 C 2.03125 -0.015625 2 0 1.96875 0 C 1.945312 0 1.914062 -0.015625 1.875 -0.046875 L 1.546875 -0.375 L 1.53125 -0.359375 C 1.414062 -0.234375 1.296875 -0.132812 1.171875 -0.0625 C 1.054688 0.0078125 0.921875 0.046875 0.765625 0.046875 C 0.578125 0.046875 0.425781 -0.00390625 0.3125 -0.109375 C 0.195312 -0.210938 0.140625 -0.359375 0.140625 -0.546875 C 0.140625 -0.671875 0.175781 -0.785156 0.25 -0.890625 C 0.332031 -0.992188 0.460938 -1.113281 0.640625 -1.25 L 0.65625 -1.265625 L 0.5 -1.421875 C 0.351562 -1.566406 0.28125 -1.722656 0.28125 -1.890625 C 0.28125 -1.984375 0.304688 -2.066406 0.359375 -2.140625 C 0.410156 -2.222656 0.476562 -2.285156 0.5625 -2.328125 C 0.644531 -2.367188 0.738281 -2.390625 0.84375 -2.390625 C 0.945312 -2.390625 1.039062 -2.367188 1.125 -2.328125 C 1.207031 -2.285156 1.269531 -2.222656 1.3125 -2.140625 C 1.363281 -2.054688 1.390625 -1.96875 1.390625 -1.875 C 1.390625 -1.757812 1.359375 -1.65625 1.296875 -1.5625 C 1.242188 -1.476562 1.148438 -1.378906 1.015625 -1.265625 L 1.546875 -0.734375 L 1.796875 -0.984375 C 1.828125 -1.023438 1.859375 -1.046875 1.890625 -1.046875 C 1.910156 -1.046875 1.9375 -1.035156 1.96875 -1.015625 C 2 -0.984375 2.015625 -0.953125 2.015625 -0.921875 C 2.015625 -0.878906 2 -0.847656 1.96875 -0.828125 L 1.71875 -0.5625 Z M 0.859375 -1.4375 L 0.890625 -1.453125 C 0.984375 -1.535156 1.046875 -1.609375 1.078125 -1.671875 C 1.117188 -1.734375 1.140625 -1.800781 1.140625 -1.875 C 1.140625 -1.957031 1.113281 -2.023438 1.0625 -2.078125 C 1.007812 -2.128906 0.9375 -2.15625 0.84375 -2.15625 C 0.757812 -2.15625 0.6875 -2.128906 0.625 -2.078125 C 0.570312 -2.023438 0.546875 -1.960938 0.546875 -1.890625 C 0.546875 -1.785156 0.59375 -1.6875 0.6875 -1.59375 Z M 1.375 -0.546875 L 0.8125 -1.109375 L 0.78125 -1.078125 C 0.65625 -0.984375 0.5625 -0.894531 0.5 -0.8125 C 0.445312 -0.726562 0.421875 -0.644531 0.421875 -0.5625 C 0.421875 -0.445312 0.445312 -0.359375 0.5 -0.296875 C 0.5625 -0.242188 0.648438 -0.21875 0.765625 -0.21875 C 0.878906 -0.21875 0.976562 -0.242188 1.0625 -0.296875 C 1.15625 -0.347656 1.253906 -0.425781 1.359375 -0.53125 Z M 1.375 -0.546875 "/></g></g></g><g fill="#f4f6fc" fill-opacity="1"><g transform="translate(285.546326, 61.030391)"><g/></g></g><g fill="#f4f6fc" fill-opacity="1"><g transform="translate(287.175326, 61.030391)"><g><path d="M 1.046875 0.03125 C 0.847656 0.03125 0.671875 -0.0078125 0.515625 -0.09375 C 0.359375 -0.1875 0.25 -0.304688 0.1875 -0.453125 C 0.175781 -0.472656 0.171875 -0.488281 0.171875 -0.5 C 0.171875 -0.53125 0.179688 -0.554688 0.203125 -0.578125 C 0.222656 -0.609375 0.253906 -0.628906 0.296875 -0.640625 C 0.296875 -0.640625 0.304688 -0.640625 0.328125 -0.640625 C 0.359375 -0.640625 0.382812 -0.628906 0.40625 -0.609375 C 0.4375 -0.585938 0.460938 -0.5625 0.484375 -0.53125 C 0.515625 -0.445312 0.582031 -0.378906 0.6875 -0.328125 C 0.800781 -0.273438 0.921875 -0.25 1.046875 -0.25 C 1.191406 -0.25 1.316406 -0.28125 1.421875 -0.34375 C 1.523438 -0.414062 1.578125 -0.515625 1.578125 -0.640625 C 1.578125 -0.753906 1.53125 -0.847656 1.4375 -0.921875 C 1.351562 -1.003906 1.222656 -1.054688 1.046875 -1.078125 C 0.796875 -1.097656 0.597656 -1.171875 0.453125 -1.296875 C 0.316406 -1.421875 0.25 -1.570312 0.25 -1.75 C 0.25 -1.875 0.285156 -1.984375 0.359375 -2.078125 C 0.429688 -2.171875 0.53125 -2.242188 0.65625 -2.296875 C 0.78125 -2.347656 0.925781 -2.375 1.09375 -2.375 C 1.257812 -2.375 1.398438 -2.335938 1.515625 -2.265625 C 1.640625 -2.191406 1.742188 -2.09375 1.828125 -1.96875 C 1.847656 -1.925781 1.859375 -1.890625 1.859375 -1.859375 C 1.859375 -1.816406 1.835938 -1.78125 1.796875 -1.75 C 1.773438 -1.738281 1.75 -1.734375 1.71875 -1.734375 C 1.6875 -1.734375 1.65625 -1.738281 1.625 -1.75 C 1.601562 -1.757812 1.585938 -1.78125 1.578125 -1.8125 C 1.523438 -1.90625 1.457031 -1.972656 1.375 -2.015625 C 1.289062 -2.066406 1.1875 -2.09375 1.0625 -2.09375 C 0.914062 -2.09375 0.796875 -2.0625 0.703125 -2 C 0.609375 -1.9375 0.5625 -1.851562 0.5625 -1.75 C 0.5625 -1.644531 0.601562 -1.554688 0.6875 -1.484375 C 0.769531 -1.410156 0.914062 -1.363281 1.125 -1.34375 C 1.363281 -1.320312 1.550781 -1.25 1.6875 -1.125 C 1.820312 -1 1.890625 -0.835938 1.890625 -0.640625 C 1.890625 -0.503906 1.847656 -0.382812 1.765625 -0.28125 C 1.691406 -0.175781 1.585938 -0.0976562 1.453125 -0.046875 C 1.328125 0.00390625 1.191406 0.03125 1.046875 0.03125 Z M 1.046875 0.03125 "/></g></g></g><g fill="#f4f6fc" fill-opacity="1"><g transform="translate(289.989325, 61.030391)"><g><path d="M 1.015625 -1.65625 C 1.171875 -1.65625 1.3125 -1.617188 1.4375 -1.546875 C 1.5625 -1.472656 1.660156 -1.367188 1.734375 -1.234375 C 1.804688 -1.109375 1.84375 -0.96875 1.84375 -0.8125 L 1.84375 -0.15625 C 1.84375 -0.101562 1.828125 -0.0625 1.796875 -0.03125 C 1.765625 -0.0078125 1.726562 0 1.6875 0 C 1.644531 0 1.609375 -0.0078125 1.578125 -0.03125 C 1.546875 -0.0625 1.53125 -0.101562 1.53125 -0.15625 L 1.53125 -0.265625 C 1.457031 -0.171875 1.367188 -0.0976562 1.265625 -0.046875 C 1.171875 -0.00390625 1.066406 0.015625 0.953125 0.015625 C 0.804688 0.015625 0.675781 -0.0195312 0.5625 -0.09375 C 0.445312 -0.164062 0.351562 -0.265625 0.28125 -0.390625 C 0.21875 -0.515625 0.1875 -0.65625 0.1875 -0.8125 C 0.1875 -0.96875 0.222656 -1.109375 0.296875 -1.234375 C 0.367188 -1.367188 0.46875 -1.472656 0.59375 -1.546875 C 0.71875 -1.617188 0.859375 -1.65625 1.015625 -1.65625 Z M 1.015625 -0.265625 C 1.109375 -0.265625 1.195312 -0.285156 1.28125 -0.328125 C 1.363281 -0.378906 1.425781 -0.445312 1.46875 -0.53125 C 1.519531 -0.613281 1.546875 -0.707031 1.546875 -0.8125 C 1.546875 -0.925781 1.519531 -1.023438 1.46875 -1.109375 C 1.425781 -1.191406 1.363281 -1.257812 1.28125 -1.3125 C 1.195312 -1.363281 1.109375 -1.390625 1.015625 -1.390625 C 0.910156 -1.390625 0.816406 -1.363281 0.734375 -1.3125 C 0.660156 -1.257812 0.597656 -1.191406 0.546875 -1.109375 C 0.503906 -1.023438 0.484375 -0.925781 0.484375 -0.8125 C 0.484375 -0.707031 0.503906 -0.613281 0.546875 -0.53125 C 0.597656 -0.445312 0.660156 -0.378906 0.734375 -0.328125 C 0.816406 -0.285156 0.910156 -0.265625 1.015625 -0.265625 Z M 1.015625 -0.265625 "/></g></g></g><g fill="#f4f6fc" fill-opacity="1"><g transform="translate(292.764323, 61.030391)"><g><path d="M 1.625 -1.640625 C 1.664062 -1.640625 1.703125 -1.625 1.734375 -1.59375 C 1.765625 -1.570312 1.78125 -1.535156 1.78125 -1.484375 L 1.78125 -0.15625 C 1.78125 -0.113281 1.765625 -0.078125 1.734375 -0.046875 C 1.703125 -0.015625 1.664062 0 1.625 0 C 1.582031 0 1.546875 -0.015625 1.515625 -0.046875 C 1.484375 -0.078125 1.46875 -0.113281 1.46875 -0.15625 L 1.46875 -0.1875 C 1.40625 -0.125 1.328125 -0.0703125 1.234375 -0.03125 C 1.148438 0 1.054688 0.015625 0.953125 0.015625 C 0.816406 0.015625 0.691406 -0.015625 0.578125 -0.078125 C 0.472656 -0.140625 0.390625 -0.226562 0.328125 -0.34375 C 0.265625 -0.457031 0.234375 -0.59375 0.234375 -0.75 L 0.234375 -1.484375 C 0.234375 -1.535156 0.25 -1.570312 0.28125 -1.59375 C 0.3125 -1.625 0.347656 -1.640625 0.390625 -1.640625 C 0.429688 -1.640625 0.46875 -1.625 0.5 -1.59375 C 0.53125 -1.570312 0.546875 -1.535156 0.546875 -1.484375 L 0.546875 -0.75 C 0.546875 -0.59375 0.585938 -0.472656 0.671875 -0.390625 C 0.753906 -0.304688 0.867188 -0.265625 1.015625 -0.265625 C 1.097656 -0.265625 1.175781 -0.28125 1.25 -0.3125 C 1.320312 -0.34375 1.375 -0.382812 1.40625 -0.4375 C 1.445312 -0.5 1.46875 -0.566406 1.46875 -0.640625 L 1.46875 -1.484375 C 1.46875 -1.535156 1.484375 -1.570312 1.515625 -1.59375 C 1.546875 -1.625 1.582031 -1.640625 1.625 -1.640625 Z M 1.03125 -1.90625 C 0.988281 -1.90625 0.953125 -1.914062 0.921875 -1.9375 C 0.890625 -1.96875 0.875 -2.003906 0.875 -2.046875 C 0.875 -2.085938 0.890625 -2.125 0.921875 -2.15625 L 1.203125 -2.453125 C 1.234375 -2.484375 1.269531 -2.5 1.3125 -2.5 C 1.363281 -2.5 1.398438 -2.484375 1.421875 -2.453125 C 1.453125 -2.421875 1.46875 -2.382812 1.46875 -2.34375 C 1.46875 -2.289062 1.457031 -2.253906 1.4375 -2.234375 L 1.140625 -1.9375 C 1.109375 -1.914062 1.070312 -1.90625 1.03125 -1.90625 Z M 1.03125 -1.90625 "/></g></g></g><g fill="#f4f6fc" fill-opacity="1"><g transform="translate(295.56032, 61.030391)"><g><path d="M 1.6875 -2.34375 C 1.726562 -2.34375 1.765625 -2.328125 1.796875 -2.296875 C 1.828125 -2.273438 1.84375 -2.238281 1.84375 -2.1875 L 1.84375 -0.828125 C 1.84375 -0.671875 1.804688 -0.523438 1.734375 -0.390625 C 1.660156 -0.265625 1.5625 -0.164062 1.4375 -0.09375 C 1.3125 -0.0195312 1.171875 0.015625 1.015625 0.015625 C 0.859375 0.015625 0.71875 -0.0195312 0.59375 -0.09375 C 0.46875 -0.164062 0.367188 -0.265625 0.296875 -0.390625 C 0.222656 -0.523438 0.1875 -0.671875 0.1875 -0.828125 C 0.1875 -0.984375 0.21875 -1.125 0.28125 -1.25 C 0.351562 -1.375 0.445312 -1.472656 0.5625 -1.546875 C 0.675781 -1.617188 0.804688 -1.65625 0.953125 -1.65625 C 1.066406 -1.65625 1.171875 -1.628906 1.265625 -1.578125 C 1.367188 -1.535156 1.457031 -1.46875 1.53125 -1.375 L 1.53125 -2.1875 C 1.53125 -2.238281 1.546875 -2.273438 1.578125 -2.296875 C 1.609375 -2.328125 1.644531 -2.34375 1.6875 -2.34375 Z M 1.015625 -0.265625 C 1.109375 -0.265625 1.195312 -0.285156 1.28125 -0.328125 C 1.363281 -0.378906 1.425781 -0.445312 1.46875 -0.53125 C 1.519531 -0.613281 1.546875 -0.710938 1.546875 -0.828125 C 1.546875 -0.929688 1.519531 -1.023438 1.46875 -1.109375 C 1.425781 -1.191406 1.363281 -1.257812 1.28125 -1.3125 C 1.195312 -1.363281 1.109375 -1.390625 1.015625 -1.390625 C 0.910156 -1.390625 0.816406 -1.363281 0.734375 -1.3125 C 0.660156 -1.257812 0.597656 -1.191406 0.546875 -1.109375 C 0.503906 -1.023438 0.484375 -0.929688 0.484375 -0.828125 C 0.484375 -0.710938 0.503906 -0.613281 0.546875 -0.53125 C 0.597656 -0.445312 0.660156 -0.378906 0.734375 -0.328125 C 0.816406 -0.285156 0.910156 -0.265625 1.015625 -0.265625 Z M 1.015625 -0.265625 "/></g></g></g><g fill="#f4f6fc" fill-opacity="1"><g transform="translate(298.419317, 61.030391)"><g><path d="M 1.75 -0.84375 C 1.75 -0.800781 1.734375 -0.769531 1.703125 -0.75 C 1.679688 -0.726562 1.648438 -0.71875 1.609375 -0.71875 L 0.46875 -0.71875 C 0.488281 -0.570312 0.550781 -0.457031 0.65625 -0.375 C 0.757812 -0.289062 0.890625 -0.25 1.046875 -0.25 C 1.097656 -0.25 1.15625 -0.257812 1.21875 -0.28125 C 1.289062 -0.300781 1.347656 -0.328125 1.390625 -0.359375 C 1.421875 -0.378906 1.453125 -0.390625 1.484375 -0.390625 C 1.523438 -0.390625 1.554688 -0.378906 1.578125 -0.359375 C 1.609375 -0.328125 1.625 -0.296875 1.625 -0.265625 C 1.625 -0.222656 1.609375 -0.191406 1.578125 -0.171875 C 1.515625 -0.117188 1.429688 -0.0703125 1.328125 -0.03125 C 1.222656 0 1.128906 0.015625 1.046875 0.015625 C 0.878906 0.015625 0.726562 -0.0195312 0.59375 -0.09375 C 0.46875 -0.164062 0.367188 -0.265625 0.296875 -0.390625 C 0.222656 -0.515625 0.1875 -0.65625 0.1875 -0.8125 C 0.1875 -0.976562 0.21875 -1.125 0.28125 -1.25 C 0.351562 -1.375 0.453125 -1.472656 0.578125 -1.546875 C 0.703125 -1.617188 0.84375 -1.65625 1 -1.65625 C 1.15625 -1.65625 1.285156 -1.617188 1.390625 -1.546875 C 1.503906 -1.484375 1.59375 -1.390625 1.65625 -1.265625 C 1.71875 -1.140625 1.75 -1 1.75 -0.84375 Z M 1 -1.390625 C 0.851562 -1.390625 0.734375 -1.347656 0.640625 -1.265625 C 0.546875 -1.191406 0.488281 -1.085938 0.46875 -0.953125 L 1.46875 -0.953125 C 1.445312 -1.085938 1.394531 -1.191406 1.3125 -1.265625 C 1.226562 -1.347656 1.125 -1.390625 1 -1.390625 Z M 1 -1.390625 "/></g></g></g><g fill="#f4f6fc" fill-opacity="1"><g transform="translate(301.032315, 61.030391)"><g/></g></g><g fill="#f4f6fc" fill-opacity="1"><g transform="translate(302.661314, 61.030391)"><g><path d="M 2.484375 -2.34375 C 2.535156 -2.34375 2.570312 -2.328125 2.59375 -2.296875 C 2.625 -2.265625 2.640625 -2.226562 2.640625 -2.1875 L 2.640625 -0.15625 C 2.640625 -0.113281 2.625 -0.078125 2.59375 -0.046875 C 2.5625 -0.015625 2.523438 0 2.484375 0 C 2.441406 0 2.40625 -0.015625 2.375 -0.046875 C 2.34375 -0.078125 2.328125 -0.113281 2.328125 -0.15625 L 2.328125 -1.640625 L 1.609375 -0.171875 C 1.578125 -0.117188 1.53125 -0.09375 1.46875 -0.09375 C 1.40625 -0.09375 1.359375 -0.125 1.328125 -0.1875 L 0.609375 -1.625 L 0.609375 -0.15625 C 0.609375 -0.113281 0.59375 -0.078125 0.5625 -0.046875 C 0.53125 -0.015625 0.492188 0 0.453125 0 C 0.410156 0 0.375 -0.015625 0.34375 -0.046875 C 0.3125 -0.078125 0.296875 -0.113281 0.296875 -0.15625 L 0.296875 -2.1875 C 0.296875 -2.226562 0.3125 -2.265625 0.34375 -2.296875 C 0.375 -2.328125 0.410156 -2.34375 0.453125 -2.34375 C 0.515625 -2.34375 0.5625 -2.316406 0.59375 -2.265625 L 1.484375 -0.46875 L 2.359375 -2.265625 C 2.390625 -2.316406 2.429688 -2.34375 2.484375 -2.34375 Z M 2.484375 -2.34375 "/></g></g></g><g fill="#f4f6fc" fill-opacity="1"><g transform="translate(306.357312, 61.030391)"><g><path d="M 1.75 -0.84375 C 1.75 -0.800781 1.734375 -0.769531 1.703125 -0.75 C 1.679688 -0.726562 1.648438 -0.71875 1.609375 -0.71875 L 0.46875 -0.71875 C 0.488281 -0.570312 0.550781 -0.457031 0.65625 -0.375 C 0.757812 -0.289062 0.890625 -0.25 1.046875 -0.25 C 1.097656 -0.25 1.15625 -0.257812 1.21875 -0.28125 C 1.289062 -0.300781 1.347656 -0.328125 1.390625 -0.359375 C 1.421875 -0.378906 1.453125 -0.390625 1.484375 -0.390625 C 1.523438 -0.390625 1.554688 -0.378906 1.578125 -0.359375 C 1.609375 -0.328125 1.625 -0.296875 1.625 -0.265625 C 1.625 -0.222656 1.609375 -0.191406 1.578125 -0.171875 C 1.515625 -0.117188 1.429688 -0.0703125 1.328125 -0.03125 C 1.222656 0 1.128906 0.015625 1.046875 0.015625 C 0.878906 0.015625 0.726562 -0.0195312 0.59375 -0.09375 C 0.46875 -0.164062 0.367188 -0.265625 0.296875 -0.390625 C 0.222656 -0.515625 0.1875 -0.65625 0.1875 -0.8125 C 0.1875 -0.976562 0.21875 -1.125 0.28125 -1.25 C 0.351562 -1.375 0.453125 -1.472656 0.578125 -1.546875 C 0.703125 -1.617188 0.84375 -1.65625 1 -1.65625 C 1.15625 -1.65625 1.285156 -1.617188 1.390625 -1.546875 C 1.503906 -1.484375 1.59375 -1.390625 1.65625 -1.265625 C 1.71875 -1.140625 1.75 -1 1.75 -0.84375 Z M 1 -1.390625 C 0.851562 -1.390625 0.734375 -1.347656 0.640625 -1.265625 C 0.546875 -1.191406 0.488281 -1.085938 0.46875 -0.953125 L 1.46875 -0.953125 C 1.445312 -1.085938 1.394531 -1.191406 1.3125 -1.265625 C 1.226562 -1.347656 1.125 -1.390625 1 -1.390625 Z M 1 -1.390625 "/></g></g></g><g fill="#f4f6fc" fill-opacity="1"><g transform="translate(308.970309, 61.030391)"><g><path d="M 1.09375 -1.65625 C 1.226562 -1.65625 1.347656 -1.625 1.453125 -1.5625 C 1.566406 -1.5 1.65625 -1.410156 1.71875 -1.296875 C 1.78125 -1.179688 1.8125 -1.046875 1.8125 -0.890625 L 1.8125 -0.15625 C 1.8125 -0.101562 1.796875 -0.0625 1.765625 -0.03125 C 1.734375 -0.0078125 1.695312 0 1.65625 0 C 1.613281 0 1.578125 -0.0078125 1.546875 -0.03125 C 1.515625 -0.0625 1.5 -0.101562 1.5 -0.15625 L 1.5 -0.890625 C 1.5 -1.046875 1.453125 -1.164062 1.359375 -1.25 C 1.273438 -1.332031 1.164062 -1.375 1.03125 -1.375 C 0.945312 -1.375 0.867188 -1.359375 0.796875 -1.328125 C 0.722656 -1.296875 0.664062 -1.25 0.625 -1.1875 C 0.59375 -1.132812 0.578125 -1.070312 0.578125 -1 L 0.578125 -0.15625 C 0.578125 -0.101562 0.5625 -0.0625 0.53125 -0.03125 C 0.5 -0.0078125 0.460938 0 0.421875 0 C 0.378906 0 0.34375 -0.0078125 0.3125 -0.03125 C 0.28125 -0.0625 0.265625 -0.101562 0.265625 -0.15625 L 0.265625 -1.484375 C 0.265625 -1.535156 0.28125 -1.570312 0.3125 -1.59375 C 0.34375 -1.625 0.378906 -1.640625 0.421875 -1.640625 C 0.460938 -1.640625 0.5 -1.625 0.53125 -1.59375 C 0.5625 -1.570312 0.578125 -1.535156 0.578125 -1.484375 L 0.578125 -1.453125 C 0.640625 -1.515625 0.710938 -1.5625 0.796875 -1.59375 C 0.890625 -1.632812 0.988281 -1.65625 1.09375 -1.65625 Z M 1.09375 -1.65625 "/></g></g></g><g fill="#f4f6fc" fill-opacity="1"><g transform="translate(311.766306, 61.030391)"><g><path d="M 0.96875 -0.296875 C 1 -0.296875 1.023438 -0.28125 1.046875 -0.25 C 1.078125 -0.226562 1.09375 -0.195312 1.09375 -0.15625 C 1.09375 -0.101562 1.078125 -0.0625 1.046875 -0.03125 C 1.015625 -0.0078125 0.972656 0 0.921875 0 L 0.859375 0 C 0.765625 0 0.675781 -0.0234375 0.59375 -0.078125 C 0.519531 -0.128906 0.457031 -0.195312 0.40625 -0.28125 C 0.363281 -0.375 0.34375 -0.472656 0.34375 -0.578125 L 0.34375 -1.328125 L 0.203125 -1.328125 C 0.160156 -1.328125 0.125 -1.335938 0.09375 -1.359375 C 0.0703125 -1.378906 0.0625 -1.410156 0.0625 -1.453125 C 0.0625 -1.492188 0.0703125 -1.523438 0.09375 -1.546875 C 0.125 -1.566406 0.160156 -1.578125 0.203125 -1.578125 L 0.34375 -1.578125 L 0.34375 -2.015625 C 0.34375 -2.054688 0.351562 -2.085938 0.375 -2.109375 C 0.40625 -2.140625 0.441406 -2.15625 0.484375 -2.15625 C 0.535156 -2.15625 0.570312 -2.140625 0.59375 -2.109375 C 0.625 -2.085938 0.640625 -2.054688 0.640625 -2.015625 L 0.640625 -1.578125 L 0.890625 -1.578125 C 0.929688 -1.578125 0.960938 -1.566406 0.984375 -1.546875 C 1.015625 -1.523438 1.03125 -1.492188 1.03125 -1.453125 C 1.03125 -1.410156 1.015625 -1.378906 0.984375 -1.359375 C 0.960938 -1.335938 0.929688 -1.328125 0.890625 -1.328125 L 0.640625 -1.328125 L 0.640625 -0.578125 C 0.640625 -0.503906 0.660156 -0.4375 0.703125 -0.375 C 0.742188 -0.320312 0.796875 -0.296875 0.859375 -0.296875 Z M 0.96875 -0.296875 "/></g></g></g><g fill="#f4f6fc" fill-opacity="1"><g transform="translate(313.719305, 61.030391)"><g><path d="M 1.015625 -1.65625 C 1.171875 -1.65625 1.3125 -1.617188 1.4375 -1.546875 C 1.5625 -1.472656 1.660156 -1.367188 1.734375 -1.234375 C 1.804688 -1.109375 1.84375 -0.96875 1.84375 -0.8125 L 1.84375 -0.15625 C 1.84375 -0.101562 1.828125 -0.0625 1.796875 -0.03125 C 1.765625 -0.0078125 1.726562 0 1.6875 0 C 1.644531 0 1.609375 -0.0078125 1.578125 -0.03125 C 1.546875 -0.0625 1.53125 -0.101562 1.53125 -0.15625 L 1.53125 -0.265625 C 1.457031 -0.171875 1.367188 -0.0976562 1.265625 -0.046875 C 1.171875 -0.00390625 1.066406 0.015625 0.953125 0.015625 C 0.804688 0.015625 0.675781 -0.0195312 0.5625 -0.09375 C 0.445312 -0.164062 0.351562 -0.265625 0.28125 -0.390625 C 0.21875 -0.515625 0.1875 -0.65625 0.1875 -0.8125 C 0.1875 -0.96875 0.222656 -1.109375 0.296875 -1.234375 C 0.367188 -1.367188 0.46875 -1.472656 0.59375 -1.546875 C 0.71875 -1.617188 0.859375 -1.65625 1.015625 -1.65625 Z M 1.015625 -0.265625 C 1.109375 -0.265625 1.195312 -0.285156 1.28125 -0.328125 C 1.363281 -0.378906 1.425781 -0.445312 1.46875 -0.53125 C 1.519531 -0.613281 1.546875 -0.707031 1.546875 -0.8125 C 1.546875 -0.925781 1.519531 -1.023438 1.46875 -1.109375 C 1.425781 -1.191406 1.363281 -1.257812 1.28125 -1.3125 C 1.195312 -1.363281 1.109375 -1.390625 1.015625 -1.390625 C 0.910156 -1.390625 0.816406 -1.363281 0.734375 -1.3125 C 0.660156 -1.257812 0.597656 -1.191406 0.546875 -1.109375 C 0.503906 -1.023438 0.484375 -0.925781 0.484375 -0.8125 C 0.484375 -0.707031 0.503906 -0.613281 0.546875 -0.53125 C 0.597656 -0.445312 0.660156 -0.378906 0.734375 -0.328125 C 0.816406 -0.285156 0.910156 -0.265625 1.015625 -0.265625 Z M 1.015625 -0.265625 "/></g></g></g><g fill="#f4f6fc" fill-opacity="1"><g transform="translate(316.494302, 61.030391)"><g><path d="M 0.65625 0 C 0.570312 0 0.492188 -0.0195312 0.421875 -0.0625 C 0.359375 -0.113281 0.304688 -0.179688 0.265625 -0.265625 C 0.222656 -0.347656 0.203125 -0.445312 0.203125 -0.5625 L 0.203125 -2.1875 C 0.203125 -2.238281 0.21875 -2.273438 0.25 -2.296875 C 0.28125 -2.328125 0.316406 -2.34375 0.359375 -2.34375 C 0.398438 -2.34375 0.4375 -2.328125 0.46875 -2.296875 C 0.5 -2.273438 0.515625 -2.238281 0.515625 -2.1875 L 0.515625 -0.5625 C 0.515625 -0.476562 0.523438 -0.410156 0.546875 -0.359375 C 0.578125 -0.316406 0.613281 -0.296875 0.65625 -0.296875 L 0.734375 -0.296875 C 0.773438 -0.296875 0.804688 -0.28125 0.828125 -0.25 C 0.859375 -0.226562 0.875 -0.195312 0.875 -0.15625 C 0.875 -0.101562 0.851562 -0.0625 0.8125 -0.03125 C 0.769531 -0.0078125 0.722656 0 0.671875 0 Z M 0.65625 0 "/></g></g></g><g clip-path="url(#2730523343)"><g mask="url(#7fc0b642da)"><g transform="matrix(1, 0, 0, 1, 286, 16)"><g clip-path="url(#15fe6a6b3c)"><g clip-path="url(#b83214018f)"><path fill="#fffefa" d="M 14.082031 20.710938 C 14.242188 20.957031 14.382812 21.234375 14.496094 21.542969 C 14.949219 22.753906 14.902344 23.988281 14.886719 24.222656 C 14.839844 24.976562 14.660156 26.0625 14.066406 26.949219 C 14.007812 27.042969 13.941406 27.128906 13.878906 27.210938 C 13.886719 27.230469 13.894531 27.25 13.90625 27.273438 C 13.910156 27.28125 13.914062 27.292969 13.917969 27.300781 C 13.980469 27.457031 14.0625 27.695312 14.097656 27.976562 C 14.160156 28.484375 14.109375 29.433594 13.046875 30.09375 C 12.621094 30.363281 12.214844 30.453125 11.859375 30.453125 C 11.113281 30.453125 10.578125 30.042969 10.476562 29.957031 C 10.363281 29.875 9.757812 29.378906 9.492188 28.480469 C 9.328125 28.542969 9.15625 28.59375 8.976562 28.621094 C 8.816406 28.644531 8.65625 28.660156 8.496094 28.660156 C 7.820312 28.660156 7.203125 28.421875 6.683594 27.964844 C 6.128906 27.476562 5.71875 26.746094 5.507812 25.910156 C 5.4375 25.933594 5.359375 25.957031 5.273438 25.976562 C 5.144531 26.003906 4.996094 26.027344 4.828125 26.027344 C 4.445312 26.027344 3.980469 25.917969 3.5 25.550781 C 2.621094 24.878906 2.464844 23.984375 2.460938 23.445312 C 2.339844 23.40625 2.222656 23.359375 2.109375 23.296875 C 1.230469 22.820312 0.742188 21.761719 0.761719 20.398438 C 0.777344 19.320312 1.222656 18.351562 1.9375 17.722656 C 1.648438 17.578125 1.382812 17.378906 1.152344 17.132812 C 0.625 16.570312 0.324219 15.820312 0.3125 15.019531 C 0.289062 13.636719 0.992188 12.167969 2.617188 12.019531 C 2.652344 12.015625 2.683594 12.011719 2.714844 12.011719 C 2.707031 12 2.703125 11.984375 2.695312 11.972656 C 2.511719 11.558594 2.410156 11.109375 2.402344 10.644531 C 2.390625 9.792969 2.683594 8.988281 3.230469 8.375 C 3.777344 7.761719 4.515625 7.414062 5.304688 7.398438 C 5.34375 7.398438 5.378906 7.398438 5.417969 7.398438 C 5.394531 7.242188 5.382812 7.085938 5.378906 6.925781 C 5.363281 6.074219 5.65625 5.265625 6.207031 4.652344 C 6.753906 4.042969 7.488281 3.695312 8.277344 3.679688 C 8.332031 3.679688 8.386719 3.679688 8.441406 3.683594 C 8.445312 3.039062 8.652344 2.410156 9.046875 1.871094 C 9.609375 1.109375 10.507812 0.609375 11.335938 0.59375 C 12.253906 0.574219 13.097656 0.910156 13.703125 1.535156 C 13.855469 1.695312 13.992188 1.871094 14.109375 2.058594 C 14.5 2.671875 14.707031 3.441406 14.722656 4.320312 C 14.742188 5.46875 14.421875 6.558594 13.828125 7.390625 C 13.53125 7.808594 13.179688 8.136719 12.792969 8.367188 C 13.730469 8.992188 14.351562 10.101562 14.375 11.367188 C 14.390625 12.292969 14.140625 13.117188 13.652344 13.757812 C 13.585938 13.839844 13.523438 13.917969 13.457031 13.988281 C 14.007812 14.140625 14.519531 14.445312 14.941406 14.886719 C 15.582031 15.554688 15.941406 16.449219 15.957031 17.410156 C 15.980469 18.824219 15.242188 20.101562 14.082031 20.710938 Z M 14.082031 20.710938 " fill-opacity="1" fill-rule="nonzero"/></g></g></g></g></g><g mask="url(#5ee30db79a)"><g transform="matrix(1, 0, 0, 1, 298, 17)"><g clip-path="url(#368118c015)"><g clip-path="url(#a6e0219cf1)"><path fill="#11ccf5" d="M 14.695312 8.90625 L 14.546875 17.25 L 14.117188 17.378906 L 14.050781 21.921875 L 9.65625 27.199219 L 7.984375 27.199219 L 8.007812 27.730469 L 3.203125 27.636719 L 3.117188 26.363281 L 2.089844 26.300781 L 1.917969 26.300781 C 1.914062 26.292969 1.910156 26.28125 1.90625 26.273438 C 1.894531 26.25 1.886719 26.230469 1.875 26.210938 C 1.941406 26.128906 2.007812 26.042969 2.066406 25.949219 C 2.660156 25.0625 2.839844 23.976562 2.886719 23.222656 C 2.902344 22.988281 2.949219 21.753906 2.496094 20.542969 C 2.382812 20.234375 2.242188 19.957031 2.082031 19.710938 C 3.242188 19.105469 3.980469 17.824219 3.957031 16.410156 C 3.941406 15.449219 3.582031 14.554688 2.941406 13.886719 C 2.519531 13.445312 2.007812 13.140625 1.453125 12.988281 C 1.523438 12.917969 1.585938 12.839844 1.652344 12.757812 C 2.140625 12.117188 2.390625 11.292969 2.375 10.367188 C 2.351562 9.101562 1.730469 7.992188 0.792969 7.367188 C 1.179688 7.136719 1.527344 6.808594 1.828125 6.390625 C 2.421875 5.558594 2.742188 4.46875 2.722656 3.320312 C 2.707031 2.441406 2.496094 1.671875 2.109375 1.058594 L 2.390625 0.769531 L 8.222656 0.769531 L 8.820312 1.398438 L 9.957031 1.648438 L 12.957031 4.980469 L 12.957031 8.65625 Z M 14.695312 8.90625 " fill-opacity="1" fill-rule="nonzero"/></g></g></g></g><path fill="#11ccf5" d="M 302.660156 32.632812 C 302.472656 32.632812 302.3125 32.75 302.234375 32.921875 L 299.335938 32.921875 C 299.257812 32.75 299.097656 32.632812 298.910156 32.632812 C 298.648438 32.632812 298.433594 32.863281 298.433594 33.148438 C 298.433594 33.429688 298.644531 33.660156 298.910156 33.660156 C 299.097656 33.660156 299.257812 33.542969 299.335938 33.375 L 302.234375 33.375 C 302.3125 33.542969 302.472656 33.660156 302.660156 33.660156 C 302.921875 33.660156 303.132812 33.429688 303.132812 33.148438 C 303.132812 32.863281 302.921875 32.632812 302.660156 32.632812 Z M 302.660156 32.632812 " fill-opacity="1" fill-rule="nonzero"/><path fill="#11ccf5" d="M 301.800781 40.988281 C 302.0625 40.988281 302.277344 40.757812 302.277344 40.476562 C 302.277344 40.191406 302.066406 39.960938 301.800781 39.960938 C 301.785156 39.960938 301.773438 39.964844 301.757812 39.964844 L 300.921875 38.808594 L 299.335938 38.808594 C 299.257812 38.636719 299.097656 38.519531 298.910156 38.519531 C 298.648438 38.519531 298.433594 38.75 298.433594 39.035156 C 298.433594 39.316406 298.648438 39.546875 298.910156 39.546875 C 299.097656 39.546875 299.257812 39.429688 299.335938 39.261719 L 300.714844 39.261719 L 301.398438 40.207031 C 301.355469 40.285156 301.328125 40.375 301.328125 40.476562 C 301.328125 40.757812 301.539062 40.988281 301.800781 40.988281 Z M 301.800781 40.988281 " fill-opacity="1" fill-rule="nonzero"/><path fill="#11ccf5" d="M 302.839844 38.804688 L 304.078125 38.804688 L 305.070312 39.875 L 306.816406 39.875 L 307.867188 38.738281 L 307.867188 38.175781 L 309.035156 38.175781 L 309.035156 35.085938 L 307.175781 35.085938 L 306.277344 36.050781 L 306.277344 36.34375 L 305.101562 36.34375 L 304.109375 37.417969 L 302.171875 37.417969 C 302.09375 37.246094 301.929688 37.128906 301.746094 37.128906 C 301.480469 37.128906 301.269531 37.359375 301.269531 37.644531 C 301.269531 37.925781 301.480469 38.15625 301.746094 38.15625 C 301.929688 38.15625 302.09375 38.039062 302.171875 37.871094 L 304.285156 37.871094 L 305.277344 36.800781 L 306.277344 36.800781 L 306.277344 38.175781 L 307.449219 38.175781 L 307.449219 38.550781 L 306.640625 39.421875 L 305.242188 39.421875 L 304.25 38.351562 L 302.789062 38.351562 C 302.703125 38.210938 302.554688 38.121094 302.390625 38.121094 C 302.128906 38.121094 301.917969 38.351562 301.917969 38.632812 C 301.917969 38.917969 302.128906 39.148438 302.390625 39.148438 C 302.597656 39.148438 302.773438 39.003906 302.839844 38.804688 Z M 306.699219 36.238281 L 307.347656 35.539062 L 308.617188 35.539062 L 308.617188 37.722656 L 306.699219 37.722656 Z M 306.699219 36.238281 " fill-opacity="1" fill-rule="nonzero"/><path fill="#11ccf5" d="M 303.5 35.140625 C 303.761719 35.140625 303.972656 34.910156 303.972656 34.628906 C 303.972656 34.34375 303.761719 34.117188 303.5 34.117188 C 303.3125 34.117188 303.148438 34.234375 303.074219 34.402344 L 299.335938 34.402344 C 299.257812 34.234375 299.097656 34.117188 298.910156 34.117188 C 298.648438 34.117188 298.433594 34.34375 298.433594 34.628906 C 298.433594 34.910156 298.644531 35.140625 298.910156 35.140625 C 299.097656 35.140625 299.257812 35.023438 299.335938 34.855469 L 303.074219 34.855469 C 303.148438 35.023438 303.3125 35.140625 303.5 35.140625 Z M 303.5 35.140625 " fill-opacity="1" fill-rule="nonzero"/><path fill="#11ccf5" d="M 299.003906 28.5625 L 300.839844 28.5625 C 300.917969 28.730469 301.078125 28.847656 301.265625 28.847656 C 301.527344 28.847656 301.742188 28.617188 301.742188 28.335938 C 301.742188 28.050781 301.527344 27.820312 301.265625 27.820312 C 301.078125 27.820312 300.917969 27.9375 300.839844 28.109375 L 299.003906 28.109375 C 298.925781 27.9375 298.765625 27.820312 298.578125 27.820312 C 298.316406 27.820312 298.101562 28.050781 298.101562 28.335938 C 298.101562 28.617188 298.3125 28.847656 298.578125 28.847656 C 298.765625 28.847656 298.925781 28.730469 299.003906 28.5625 Z M 299.003906 28.5625 " fill-opacity="1" fill-rule="nonzero"/><path fill="#11ccf5" d="M 298.449219 22.429688 L 300.527344 22.429688 L 301.910156 20.503906 L 302.757812 20.503906 C 302.835938 20.675781 302.996094 20.792969 303.183594 20.792969 C 303.445312 20.792969 303.660156 20.5625 303.660156 20.277344 C 303.660156 19.996094 303.449219 19.765625 303.183594 19.765625 C 302.996094 19.765625 302.835938 19.882812 302.757812 20.050781 L 301.707031 20.050781 L 300.324219 21.972656 L 298.53125 21.972656 C 298.472656 21.757812 298.289062 21.601562 298.074219 21.601562 C 297.808594 21.601562 297.597656 21.832031 297.597656 22.113281 C 297.597656 22.398438 297.808594 22.625 298.074219 22.625 C 298.226562 22.625 298.359375 22.546875 298.449219 22.429688 Z M 298.449219 22.429688 " fill-opacity="1" fill-rule="nonzero"/><path fill="#11ccf5" d="M 310.097656 26.601562 L 311.816406 26.601562 L 311.816406 33.457031 L 310.097656 33.457031 Z M 310.097656 26.601562 " fill-opacity="1" fill-rule="nonzero"/><path fill="#11ccf5" d="M 313.214844 26.582031 L 313.214844 26.355469 L 313.6875 26.355469 L 313.6875 25.902344 L 313.214844 25.902344 L 313.214844 25.675781 L 312.769531 25.675781 L 312.769531 25.507812 L 311.167969 25.507812 L 311.167969 21.863281 L 308.054688 18.402344 L 306.960938 18.292969 L 306.328125 17.539062 L 300.257812 17.539062 L 299.070312 19.0625 L 298.574219 19.054688 C 298.511719 18.855469 298.335938 18.714844 298.128906 18.714844 C 297.867188 18.714844 297.652344 18.945312 297.652344 19.230469 C 297.652344 19.511719 297.867188 19.742188 298.128906 19.742188 C 298.296875 19.742188 298.445312 19.648438 298.527344 19.507812 L 299.261719 19.519531 L 300.453125 17.992188 L 306.144531 17.992188 L 306.761719 18.726562 L 307.859375 18.839844 L 310.746094 22.046875 L 310.746094 25.507812 L 310.097656 25.507812 L 310.132812 22.496094 L 307.546875 19.632812 L 306.488281 19.632812 L 305.726562 18.570312 L 301.144531 18.570312 L 299.609375 20.515625 L 298.53125 20.515625 C 298.480469 20.292969 298.292969 20.128906 298.074219 20.128906 C 297.808594 20.128906 297.597656 20.359375 297.597656 20.644531 C 297.597656 20.925781 297.808594 21.15625 298.074219 21.15625 C 298.222656 21.15625 298.351562 21.082031 298.441406 20.96875 L 299.800781 20.96875 L 301.339844 19.023438 L 305.523438 19.023438 L 306.28125 20.085938 L 307.367188 20.085938 L 309.710938 22.679688 L 309.679688 25.507812 L 309.144531 25.507812 L 309.144531 25.675781 L 308.703125 25.675781 L 308.703125 25.902344 L 305.554688 25.902344 L 303.769531 23.976562 L 300.8125 23.976562 L 298.753906 26.195312 C 298.699219 26.171875 298.640625 26.15625 298.578125 26.15625 C 298.316406 26.15625 298.101562 26.386719 298.101562 26.671875 C 298.101562 26.953125 298.3125 27.183594 298.578125 27.183594 C 298.839844 27.183594 299.050781 26.953125 299.050781 26.671875 C 299.050781 26.625 299.046875 26.578125 299.035156 26.535156 L 300.984375 24.429688 L 303.597656 24.429688 L 305.382812 26.355469 L 308.703125 26.355469 L 308.703125 26.582031 L 309.144531 26.582031 L 309.144531 27.21875 L 308.703125 27.21875 L 308.703125 27.445312 L 304.996094 27.445312 L 304.003906 26.375 L 301.890625 26.375 C 301.8125 26.207031 301.652344 26.089844 301.464844 26.089844 C 301.203125 26.089844 300.988281 26.320312 300.988281 26.601562 C 300.988281 26.886719 301.203125 27.117188 301.464844 27.117188 C 301.652344 27.117188 301.8125 27 301.890625 26.828125 L 303.828125 26.828125 L 304.820312 27.898438 L 308.703125 27.898438 L 308.703125 28.125 L 309.144531 28.125 L 309.144531 28.765625 L 308.703125 28.765625 L 308.703125 28.992188 L 304.4375 28.992188 L 303.445312 27.921875 L 302.914062 27.921875 C 302.835938 27.75 302.675781 27.632812 302.488281 27.632812 C 302.226562 27.632812 302.015625 27.863281 302.015625 28.148438 C 302.015625 28.429688 302.226562 28.660156 302.488281 28.660156 C 302.675781 28.660156 302.835938 28.542969 302.914062 28.375 L 303.269531 28.375 L 304.261719 29.445312 L 308.703125 29.445312 L 308.703125 29.671875 L 309.144531 29.671875 L 309.144531 30.308594 L 308.703125 30.308594 L 308.703125 30.464844 L 303.707031 30.464844 L 303.707031 29.832031 L 303.390625 29.832031 L 303.390625 29.332031 L 302.96875 29.332031 L 302.96875 29.832031 L 302.675781 29.832031 L 302.675781 29.332031 L 302.257812 29.332031 L 302.257812 29.832031 L 302.035156 29.832031 L 302.035156 30.074219 L 301.589844 30.074219 L 301.589844 30.527344 L 302.035156 30.527344 L 302.035156 30.84375 L 301.589844 30.84375 L 301.589844 31.296875 L 302.035156 31.296875 L 302.035156 31.550781 L 302.257812 31.550781 L 302.257812 32.03125 L 302.675781 32.03125 L 302.675781 31.550781 L 302.96875 31.550781 L 302.96875 32.03125 L 303.390625 32.03125 L 303.390625 31.550781 L 303.707031 31.550781 L 303.707031 30.917969 L 308.703125 30.917969 L 308.703125 31.214844 L 309.144531 31.214844 L 309.144531 31.855469 L 308.703125 31.855469 L 308.703125 32.105469 L 305.828125 32.105469 L 304.835938 33.175781 L 304.484375 33.175781 C 304.40625 33.007812 304.242188 32.890625 304.058594 32.890625 C 303.792969 32.890625 303.582031 33.121094 303.582031 33.402344 C 303.582031 33.6875 303.792969 33.917969 304.058594 33.917969 C 304.242188 33.917969 304.40625 33.800781 304.484375 33.628906 L 305.011719 33.628906 L 306.003906 32.558594 L 308.703125 32.558594 L 308.703125 32.761719 L 309.144531 32.761719 L 309.144531 33.398438 L 308.703125 33.398438 L 308.703125 33.625 L 306.519531 33.625 L 304.445312 35.871094 L 303.085938 35.871094 C 303.007812 35.703125 302.847656 35.585938 302.660156 35.585938 C 302.394531 35.585938 302.183594 35.816406 302.183594 36.097656 C 302.183594 36.382812 302.394531 36.609375 302.660156 36.609375 C 302.847656 36.609375 303.007812 36.496094 303.085938 36.324219 L 304.621094 36.324219 L 306.695312 34.078125 L 308.703125 34.078125 L 308.703125 34.304688 L 309.144531 34.304688 L 309.144531 34.550781 L 309.675781 34.550781 L 309.675781 38.074219 L 307.824219 40.234375 L 306.851562 40.234375 L 306.492188 40.664062 L 304.742188 40.664062 L 303.664062 39.5 L 303.40625 39.5 C 303.332031 39.320312 303.167969 39.199219 302.972656 39.199219 C 302.710938 39.199219 302.5 39.425781 302.5 39.710938 C 302.5 39.992188 302.710938 40.222656 302.972656 40.222656 C 303.15625 40.222656 303.3125 40.113281 303.394531 39.953125 L 303.492188 39.953125 L 304.570312 41.117188 L 306.675781 41.117188 L 307.039062 40.6875 L 308.007812 40.6875 L 310.09375 38.253906 L 310.09375 34.550781 L 310.746094 34.550781 L 310.746094 38.523438 L 306.777344 43.132812 L 306.222656 43.132812 L 306.222656 41.796875 L 305.957031 41.796875 L 305.957031 41.480469 L 305.539062 41.480469 L 305.539062 41.796875 L 305.085938 41.796875 L 305.085938 41.480469 L 304.664062 41.480469 L 304.664062 41.796875 L 304.214844 41.796875 L 304.214844 41.480469 L 303.792969 41.480469 L 303.792969 41.796875 L 303.34375 41.796875 L 303.34375 41.480469 L 302.921875 41.480469 L 302.921875 41.796875 L 302.46875 41.796875 L 302.46875 41.480469 L 302.050781 41.480469 L 302.050781 41.796875 L 301.597656 41.796875 L 301.597656 41.480469 L 301.179688 41.480469 L 301.179688 41.796875 L 300.957031 41.796875 L 300.957031 43.136719 L 300.269531 43.136719 L 299.289062 41.09375 C 299.347656 41.007812 299.382812 40.902344 299.382812 40.789062 C 299.382812 40.503906 299.167969 40.277344 298.90625 40.277344 C 298.644531 40.277344 298.429688 40.503906 298.429688 40.789062 C 298.429688 41.070312 298.644531 41.300781 298.90625 41.300781 C 298.910156 41.300781 298.914062 41.300781 298.917969 41.300781 L 300.015625 43.589844 L 300.957031 43.589844 L 300.957031 44.917969 L 301.179688 44.917969 L 301.179688 45.238281 L 301.597656 45.238281 L 301.597656 44.917969 L 302.050781 44.917969 L 302.050781 45.238281 L 302.46875 45.238281 L 302.46875 44.917969 L 302.921875 44.917969 L 302.921875 45.238281 L 303.339844 45.238281 L 303.339844 44.917969 L 303.792969 44.917969 L 303.792969 45.238281 L 304.214844 45.238281 L 304.214844 44.917969 L 304.664062 44.917969 L 304.664062 45.238281 L 305.085938 45.238281 L 305.085938 44.917969 L 305.535156 44.917969 L 305.535156 45.238281 L 305.957031 45.238281 L 305.957031 44.917969 L 306.222656 44.917969 L 306.222656 44.433594 L 307.636719 44.433594 L 312.277344 39.125 L 312.277344 34.550781 L 312.769531 34.550781 L 312.769531 34.304688 L 313.214844 34.304688 L 313.214844 34.078125 L 313.683594 34.078125 L 313.683594 33.625 L 313.214844 33.625 L 313.214844 33.398438 L 312.769531 33.398438 L 312.769531 32.761719 L 313.214844 32.761719 L 313.214844 32.535156 L 313.683594 32.535156 L 313.683594 32.082031 L 313.214844 32.082031 L 313.214844 31.855469 L 312.769531 31.855469 L 312.769531 31.214844 L 313.214844 31.214844 L 313.214844 30.988281 L 313.683594 30.988281 L 313.683594 30.535156 L 313.214844 30.535156 L 313.214844 30.308594 L 312.769531 30.308594 L 312.769531 29.671875 L 313.214844 29.671875 L 313.214844 29.445312 L 313.683594 29.445312 L 313.683594 28.992188 L 313.214844 28.992188 L 313.214844 28.765625 L 312.769531 28.765625 L 312.769531 28.125 L 313.214844 28.125 L 313.214844 27.898438 L 313.683594 27.898438 L 313.683594 27.445312 L 313.214844 27.445312 L 313.214844 27.21875 L 312.769531 27.21875 L 312.769531 26.582031 Z M 303.289062 31.097656 L 302.457031 31.097656 L 302.457031 30.285156 L 303.289062 30.285156 Z M 303.921875 43.152344 C 304 43.300781 304.148438 43.40625 304.320312 43.40625 C 304.570312 43.40625 304.773438 43.183594 304.773438 42.914062 C 304.773438 42.644531 304.570312 42.425781 304.320312 42.425781 C 304.140625 42.425781 303.988281 42.535156 303.914062 42.699219 L 302.152344 42.699219 L 301.785156 43.136719 L 301.378906 43.136719 L 301.378906 42.25 L 305.804688 42.25 L 305.804688 43.132812 L 305.476562 43.132812 L 304.992188 43.707031 L 303.164062 43.707031 C 303.105469 43.507812 302.933594 43.363281 302.730469 43.363281 C 302.480469 43.363281 302.277344 43.582031 302.277344 43.851562 C 302.277344 44.125 302.480469 44.34375 302.730469 44.34375 C 302.875 44.34375 303 44.273438 303.085938 44.160156 L 305.179688 44.160156 L 305.660156 43.585938 L 305.804688 43.585938 L 305.804688 44.464844 L 301.378906 44.464844 L 301.378906 43.589844 L 301.96875 43.589844 L 302.339844 43.152344 Z M 311.859375 38.945312 L 307.460938 43.980469 L 306.222656 43.980469 L 306.222656 43.585938 L 306.960938 43.585938 L 311.167969 38.703125 L 311.167969 34.550781 L 311.859375 34.550781 Z M 312.351562 34.097656 L 309.566406 34.097656 L 309.566406 25.960938 L 312.351562 25.960938 Z M 312.351562 34.097656 " fill-opacity="1" fill-rule="nonzero"/><path fill="#11ccf5" d="M 307.65625 35.914062 C 307.257812 35.914062 306.929688 36.265625 306.929688 36.699219 C 306.929688 37.132812 307.257812 37.484375 307.65625 37.484375 C 308.058594 37.484375 308.386719 37.132812 308.386719 36.699219 C 308.386719 36.265625 308.058594 35.914062 307.65625 35.914062 Z M 307.65625 37.03125 C 307.488281 37.03125 307.347656 36.882812 307.347656 36.699219 C 307.347656 36.515625 307.488281 36.367188 307.65625 36.367188 C 307.828125 36.367188 307.964844 36.515625 307.964844 36.699219 C 307.964844 36.882812 307.828125 37.03125 307.65625 37.03125 Z M 307.65625 37.03125 " fill-opacity="1" fill-rule="nonzero"/><path fill="#11ccf5" d="M 306.507812 20.445312 L 304.761719 20.445312 L 303.769531 21.515625 L 302.839844 21.515625 C 302.773438 21.316406 302.597656 21.171875 302.390625 21.171875 C 302.128906 21.171875 301.917969 21.402344 301.917969 21.683594 C 301.917969 21.96875 302.128906 22.199219 302.390625 22.199219 C 302.554688 22.199219 302.703125 22.105469 302.789062 21.96875 L 303.941406 21.96875 L 304.933594 20.898438 L 306.335938 20.898438 L 307.140625 21.765625 L 307.140625 22.140625 L 305.972656 22.140625 L 305.972656 23.519531 L 304.96875 23.519531 L 303.976562 22.449219 L 302.171875 22.449219 C 302.09375 22.28125 301.929688 22.164062 301.746094 22.164062 C 301.480469 22.164062 301.269531 22.390625 301.269531 22.675781 C 301.269531 22.960938 301.480469 23.1875 301.746094 23.1875 C 301.929688 23.1875 302.09375 23.070312 302.171875 22.902344 L 303.800781 22.902344 L 304.792969 23.972656 L 305.972656 23.972656 L 305.972656 24.265625 L 306.867188 25.234375 L 308.726562 25.234375 L 308.726562 22.859375 L 308.0625 22.140625 L 307.558594 22.140625 L 307.558594 21.578125 Z M 308.308594 23.046875 L 308.308594 24.78125 L 307.039062 24.78125 L 306.390625 24.078125 L 306.390625 22.59375 L 307.890625 22.59375 Z M 308.308594 23.046875 " fill-opacity="1" fill-rule="nonzero"/><path fill="#11ccf5" d="M 307.347656 24.40625 C 307.75 24.40625 308.078125 24.054688 308.078125 23.621094 C 308.078125 23.1875 307.75 22.835938 307.347656 22.835938 C 306.949219 22.835938 306.621094 23.1875 306.621094 23.621094 C 306.621094 24.054688 306.949219 24.40625 307.347656 24.40625 Z M 307.347656 23.289062 C 307.519531 23.289062 307.65625 23.4375 307.65625 23.621094 C 307.65625 23.800781 307.519531 23.953125 307.347656 23.953125 C 307.179688 23.953125 307.042969 23.800781 307.042969 23.621094 C 307.042969 23.4375 307.179688 23.289062 307.347656 23.289062 Z M 307.347656 23.289062 " fill-opacity="1" fill-rule="nonzero"/><path fill="#fffefa" d="M 292.972656 30.160156 C 292.972656 30.296875 292.871094 30.410156 292.742188 30.410156 C 292.613281 30.410156 292.507812 30.296875 292.507812 30.160156 C 292.507812 30.023438 292.613281 29.910156 292.742188 29.910156 C 292.871094 29.910156 292.972656 30.023438 292.972656 30.160156 Z M 292.972656 30.160156 " fill-opacity="1" fill-rule="nonzero"/><path fill="#fffefa" d="M 290.289062 26.292969 C 290.289062 26.429688 290.1875 26.542969 290.058594 26.542969 C 289.929688 26.542969 289.828125 26.429688 289.828125 26.292969 C 289.828125 26.152344 289.929688 26.042969 290.058594 26.042969 C 290.1875 26.042969 290.289062 26.152344 290.289062 26.292969 Z M 290.289062 26.292969 " fill-opacity="1" fill-rule="nonzero"/><path fill="#fffefa" d="M 292.289062 25.542969 C 292.289062 25.679688 292.183594 25.792969 292.054688 25.792969 C 291.929688 25.792969 291.824219 25.679688 291.824219 25.542969 C 291.824219 25.402344 291.929688 25.292969 292.054688 25.292969 C 292.183594 25.292969 292.289062 25.402344 292.289062 25.542969 Z M 292.289062 25.542969 " fill-opacity="1" fill-rule="nonzero"/><path fill="#fffefa" d="M 292.511719 32.328125 C 292.480469 32.460938 292.355469 32.542969 292.230469 32.507812 C 292.105469 32.472656 292.03125 32.335938 292.0625 32.199219 C 292.097656 32.066406 292.222656 31.988281 292.347656 32.023438 C 292.472656 32.058594 292.546875 32.195312 292.511719 32.328125 Z M 292.511719 32.328125 " fill-opacity="1" fill-rule="nonzero"/><path fill="#fffefa" d="M 289.011719 30.0625 C 288.976562 30.195312 288.851562 30.273438 288.726562 30.238281 C 288.601562 30.207031 288.527344 30.070312 288.5625 29.933594 C 288.59375 29.800781 288.71875 29.722656 288.84375 29.753906 C 288.96875 29.789062 289.042969 29.925781 289.011719 30.0625 Z M 289.011719 30.0625 " fill-opacity="1" fill-rule="nonzero"/><path fill="#fffefa" d="M 295.679688 31.253906 C 295.679688 31.421875 295.605469 31.503906 295.449219 31.503906 C 295.296875 31.503906 295.21875 31.421875 295.21875 31.253906 C 295.21875 31.085938 295.296875 31.003906 295.449219 31.003906 C 295.605469 31.003906 295.679688 31.085938 295.679688 31.253906 Z M 295.679688 31.253906 " fill-opacity="1" fill-rule="nonzero"/><path fill="#fffefa" d="M 292.320312 37.042969 C 292.320312 37.179688 292.214844 37.292969 292.085938 37.292969 C 291.960938 37.292969 291.855469 37.179688 291.855469 37.042969 C 291.855469 36.90625 291.960938 36.792969 292.085938 36.792969 C 292.214844 36.792969 292.320312 36.90625 292.320312 37.042969 Z M 292.320312 37.042969 " fill-opacity="1" fill-rule="nonzero"/><path fill="#fffefa" d="M 291.300781 35.390625 C 291.300781 35.53125 291.195312 35.640625 291.070312 35.640625 C 290.941406 35.640625 290.835938 35.53125 290.835938 35.390625 C 290.835938 35.253906 290.941406 35.140625 291.070312 35.140625 C 291.195312 35.140625 291.300781 35.253906 291.300781 35.390625 Z M 291.300781 35.390625 " fill-opacity="1" fill-rule="nonzero"/><path fill="#fffefa" d="M 289.574219 35.742188 C 289.574219 35.910156 289.496094 35.992188 289.34375 35.992188 C 289.1875 35.992188 289.109375 35.910156 289.109375 35.742188 C 289.109375 35.578125 289.1875 35.492188 289.34375 35.492188 C 289.496094 35.492188 289.574219 35.578125 289.574219 35.742188 Z M 289.574219 35.742188 " fill-opacity="1" fill-rule="nonzero"/><path fill="#fffefa" d="M 288.667969 31.785156 C 288.667969 31.925781 288.5625 32.035156 288.4375 32.035156 C 288.308594 32.035156 288.203125 31.925781 288.203125 31.785156 C 288.203125 31.648438 288.308594 31.535156 288.4375 31.535156 C 288.5625 31.535156 288.667969 31.648438 288.667969 31.785156 Z M 288.667969 31.785156 " fill-opacity="1" fill-rule="nonzero"/><path fill="#fffefa" d="M 289.574219 37.542969 C 289.574219 37.683594 289.472656 37.792969 289.34375 37.792969 C 289.214844 37.792969 289.109375 37.683594 289.109375 37.542969 C 289.109375 37.40625 289.214844 37.292969 289.34375 37.292969 C 289.472656 37.292969 289.574219 37.40625 289.574219 37.542969 Z M 289.574219 37.542969 " fill-opacity="1" fill-rule="nonzero"/><path fill="#fffefa" d="M 293.535156 39.242188 C 293.410156 39.242188 293.304688 39.355469 293.304688 39.492188 C 293.304688 39.632812 293.410156 39.742188 293.535156 39.742188 C 293.664062 39.742188 293.769531 39.632812 293.769531 39.492188 C 293.769531 39.355469 293.664062 39.242188 293.535156 39.242188 Z M 293.535156 39.242188 " fill-opacity="1" fill-rule="nonzero"/><path fill="#fffefa" d="M 295.496094 42.273438 C 295.496094 42.132812 295.394531 42.023438 295.265625 42.023438 C 295.136719 42.023438 295.03125 42.132812 295.03125 42.273438 C 295.03125 42.410156 295.136719 42.523438 295.265625 42.523438 C 295.394531 42.523438 295.496094 42.410156 295.496094 42.273438 Z M 295.496094 42.273438 " fill-opacity="1" fill-rule="nonzero"/><path fill="#fffefa" d="M 293.535156 41.863281 C 293.410156 41.863281 293.304688 41.972656 293.304688 42.113281 C 293.304688 42.25 293.410156 42.363281 293.535156 42.363281 C 293.664062 42.363281 293.769531 42.25 293.769531 42.113281 C 293.769531 41.972656 293.664062 41.863281 293.535156 41.863281 Z M 293.535156 41.863281 " fill-opacity="1" fill-rule="nonzero"/><path fill="#fffefa" d="M 295.085938 38.414062 C 295.085938 38.578125 295.007812 38.664062 294.851562 38.664062 C 294.699219 38.664062 294.621094 38.578125 294.621094 38.414062 C 294.621094 38.246094 294.699219 38.160156 294.851562 38.160156 C 295.007812 38.160156 295.085938 38.246094 295.085938 38.414062 Z M 295.085938 38.414062 " fill-opacity="1" fill-rule="nonzero"/><path fill="#fffefa" d="M 297.894531 42.363281 C 297.894531 42.5 298 42.613281 298.128906 42.613281 C 298.253906 42.613281 298.359375 42.5 298.359375 42.363281 C 298.359375 42.222656 298.253906 42.113281 298.128906 42.113281 C 298 42.113281 297.894531 42.222656 297.894531 42.363281 Z M 297.894531 42.363281 " fill-opacity="1" fill-rule="nonzero"/><path fill="#fffefa" d="M 297.304688 40.222656 C 297.304688 40.363281 297.410156 40.476562 297.539062 40.476562 C 297.664062 40.476562 297.769531 40.363281 297.769531 40.222656 C 297.769531 40.085938 297.664062 39.972656 297.539062 39.972656 C 297.410156 39.972656 297.304688 40.085938 297.304688 40.222656 Z M 297.304688 40.222656 " fill-opacity="1" fill-rule="nonzero"/><path fill="#fffefa" d="M 295.972656 34.378906 C 295.84375 34.378906 295.742188 34.488281 295.742188 34.628906 C 295.742188 34.765625 295.84375 34.878906 295.972656 34.878906 C 296.101562 34.878906 296.203125 34.765625 296.203125 34.628906 C 296.203125 34.488281 296.101562 34.378906 295.972656 34.378906 Z M 295.972656 34.378906 " fill-opacity="1" fill-rule="nonzero"/><path fill="#fffefa" d="M 296.4375 36.820312 C 296.5625 36.820312 296.667969 36.710938 296.667969 36.570312 C 296.667969 36.433594 296.5625 36.320312 296.4375 36.320312 C 296.308594 36.320312 296.203125 36.433594 296.203125 36.570312 C 296.203125 36.710938 296.308594 36.820312 296.4375 36.820312 Z M 296.4375 36.820312 " fill-opacity="1" fill-rule="nonzero"/><path fill="#fffefa" d="M 293.902344 35.140625 C 293.902344 35.277344 294.007812 35.390625 294.136719 35.390625 C 294.261719 35.390625 294.367188 35.277344 294.367188 35.140625 C 294.367188 35.003906 294.261719 34.890625 294.136719 34.890625 C 294.007812 34.890625 293.902344 35.003906 293.902344 35.140625 Z M 293.902344 35.140625 " fill-opacity="1" fill-rule="nonzero"/><path fill="#fffefa" d="M 297.671875 31.773438 C 297.671875 31.910156 297.773438 32.023438 297.902344 32.023438 C 298.03125 32.023438 298.136719 31.910156 298.136719 31.773438 C 298.136719 31.636719 298.03125 31.523438 297.902344 31.523438 C 297.773438 31.523438 297.671875 31.636719 297.671875 31.773438 Z M 297.671875 31.773438 " fill-opacity="1" fill-rule="nonzero"/><path fill="#fffefa" d="M 294.929688 28.332031 C 294.929688 28.5 294.851562 28.582031 294.699219 28.582031 C 294.542969 28.582031 294.464844 28.5 294.464844 28.332031 C 294.464844 28.164062 294.542969 28.082031 294.699219 28.082031 C 294.851562 28.082031 294.929688 28.164062 294.929688 28.332031 Z M 294.929688 28.332031 " fill-opacity="1" fill-rule="nonzero"/><path fill="#fffefa" d="M 293.582031 22.230469 C 293.582031 22.367188 293.683594 22.480469 293.8125 22.480469 C 293.941406 22.480469 294.046875 22.367188 294.046875 22.230469 C 294.046875 22.089844 293.941406 21.980469 293.8125 21.980469 C 293.683594 21.980469 293.582031 22.089844 293.582031 22.230469 Z M 293.582031 22.230469 " fill-opacity="1" fill-rule="nonzero"/><path fill="#fffefa" d="M 296.292969 19.21875 C 296.292969 19.359375 296.398438 19.472656 296.527344 19.472656 C 296.652344 19.472656 296.757812 19.359375 296.757812 19.21875 C 296.757812 19.082031 296.652344 18.96875 296.527344 18.96875 C 296.398438 18.96875 296.292969 19.082031 296.292969 19.21875 Z M 296.292969 19.21875 " fill-opacity="1" fill-rule="nonzero"/><path fill="#fffefa" d="M 294.792969 23.5 C 294.792969 23.636719 294.894531 23.75 295.023438 23.75 C 295.152344 23.75 295.257812 23.636719 295.257812 23.5 C 295.257812 23.359375 295.152344 23.25 295.023438 23.25 C 294.894531 23.25 294.792969 23.359375 294.792969 23.5 Z M 294.792969 23.5 " fill-opacity="1" fill-rule="nonzero"/><path fill="#fffefa" d="M 296.527344 22.925781 C 296.527344 23.0625 296.628906 23.175781 296.757812 23.175781 C 296.886719 23.175781 296.988281 23.0625 296.988281 22.925781 C 296.988281 22.789062 296.886719 22.675781 296.757812 22.675781 C 296.628906 22.675781 296.527344 22.789062 296.527344 22.925781 Z M 296.527344 22.925781 " fill-opacity="1" fill-rule="nonzero"/><path fill="#fffefa" d="M 295.96875 26.042969 C 295.96875 26.207031 295.890625 26.292969 295.734375 26.292969 C 295.582031 26.292969 295.503906 26.207031 295.503906 26.042969 C 295.503906 25.875 295.582031 25.792969 295.734375 25.792969 C 295.890625 25.792969 295.96875 25.875 295.96875 26.042969 Z M 295.96875 26.042969 " fill-opacity="1" fill-rule="nonzero"/><path fill="#fffefa" d="M 297.285156 27.761719 C 297.285156 27.898438 297.390625 28.011719 297.515625 28.011719 C 297.644531 28.011719 297.75 27.898438 297.75 27.761719 C 297.75 27.625 297.644531 27.511719 297.515625 27.511719 C 297.390625 27.511719 297.285156 27.625 297.285156 27.761719 Z M 297.285156 27.761719 " fill-opacity="1" fill-rule="nonzero"/><path fill="#fffefa" d="M 297.980469 25.90625 C 297.980469 26.074219 297.902344 26.15625 297.75 26.15625 C 297.59375 26.15625 297.515625 26.074219 297.515625 25.90625 C 297.515625 25.738281 297.59375 25.65625 297.75 25.65625 C 297.902344 25.65625 297.980469 25.738281 297.980469 25.90625 Z M 297.980469 25.90625 " fill-opacity="1" fill-rule="nonzero"/><path fill="#fffefa" d="M 291.160156 40.273438 C 291.160156 40.441406 291.085938 40.523438 290.929688 40.523438 C 290.773438 40.523438 290.699219 40.441406 290.699219 40.273438 C 290.699219 40.109375 290.773438 40.023438 290.929688 40.023438 C 291.085938 40.023438 291.160156 40.109375 291.160156 40.273438 Z M 291.160156 40.273438 " fill-opacity="1" fill-rule="nonzero"/><path fill="#fffefa" d="M 301.136719 33.523438 C 301.128906 33.773438 301.09375 34.019531 301.027344 34.25 L 301.894531 34.25 C 301.945312 34.015625 301.972656 33.773438 301.976562 33.523438 Z M 301.136719 33.523438 " fill-opacity="1" fill-rule="nonzero"/><path fill="#fffefa" d="M 299.667969 29.753906 C 299.902344 29.449219 300.082031 29.097656 300.203125 28.710938 L 299.296875 28.710938 C 298.910156 29.554688 298.199219 29.867188 297.980469 29.949219 C 297.941406 29.957031 297.898438 29.964844 297.859375 29.976562 C 297.84375 29.980469 297.828125 29.988281 297.8125 29.992188 C 297.488281 30.050781 297 29.996094 296.675781 29.683594 C 296.359375 29.375 296.261719 28.878906 296.386719 28.203125 C 296.433594 27.957031 296.285156 27.71875 296.058594 27.667969 C 295.832031 27.621094 295.609375 27.78125 295.566406 28.023438 C 295.328125 29.285156 295.734375 29.988281 296.117188 30.359375 C 296.535156 30.761719 297.082031 30.921875 297.570312 30.921875 C 297.792969 30.921875 298.007812 30.886719 298.1875 30.828125 C 298.324219 30.800781 298.460938 30.785156 298.601562 30.78125 C 299.265625 30.769531 299.894531 31.039062 300.375 31.535156 C 300.703125 31.878906 300.933594 32.304688 301.050781 32.769531 L 301.910156 32.769531 C 301.78125 32.054688 301.453125 31.398438 300.957031 30.882812 C 300.535156 30.445312 300.023438 30.140625 299.472656 29.988281 C 299.539062 29.914062 299.605469 29.835938 299.667969 29.753906 Z M 299.667969 29.753906 " fill-opacity="1" fill-rule="nonzero"/><path fill="#fffefa" d="M 299.875 19.945312 L 300.566406 19.070312 C 300.503906 18.832031 300.417969 18.609375 300.316406 18.398438 L 299.714844 19.171875 C 299.792969 19.410156 299.847656 19.667969 299.875 19.945312 Z M 299.875 19.945312 " fill-opacity="1" fill-rule="nonzero"/><path fill="#fffefa" d="M 300.363281 27.957031 C 300.382812 27.765625 300.394531 27.566406 300.390625 27.363281 C 300.378906 26.769531 300.238281 26.207031 299.992188 25.714844 L 299.359375 26.394531 C 299.476562 26.699219 299.546875 27.03125 299.550781 27.378906 C 299.554688 27.585938 299.542969 27.777344 299.515625 27.957031 Z M 300.363281 27.957031 " fill-opacity="1" fill-rule="nonzero"/><g clip-path="url(#b5c9ff7f33)"><path fill="#fffefa" d="M 301.65625 35.007812 L 300.691406 35.007812 C 300.402344 35.453125 299.992188 35.804688 299.492188 36 C 299.089844 35.652344 298.613281 35.429688 298.070312 35.332031 C 297.984375 34.476562 297.628906 33.691406 297.050781 33.085938 C 296.398438 32.40625 295.539062 32.042969 294.628906 32.058594 C 294.445312 32.0625 294.238281 32.089844 294.023438 32.140625 C 294.253906 31.519531 294.398438 30.847656 294.386719 30.289062 C 294.375 29.585938 294.1875 28.917969 293.839844 28.339844 C 294.128906 27.863281 294.296875 27.3125 294.320312 26.742188 C 295.238281 25.085938 295.96875 24.925781 296.558594 24.792969 C 296.707031 24.761719 296.859375 24.742188 297.015625 24.738281 C 297.058594 24.738281 297.101562 24.738281 297.144531 24.742188 L 297.152344 24.742188 C 297.195312 24.742188 297.242188 24.746094 297.285156 24.75 C 297.289062 24.75 297.292969 24.75 297.296875 24.75 C 297.984375 24.820312 298.582031 25.1875 298.992188 25.726562 L 299.585938 25.082031 C 299.363281 24.800781 299.101562 24.558594 298.808594 24.367188 C 299.195312 24.136719 299.546875 23.808594 299.84375 23.390625 C 300.023438 23.140625 300.175781 22.867188 300.300781 22.578125 L 299.347656 22.578125 C 299.292969 22.667969 299.238281 22.753906 299.179688 22.835938 C 298.722656 23.476562 298.113281 23.835938 297.464844 23.847656 C 297.425781 23.847656 297.390625 23.847656 297.351562 23.847656 C 297.34375 23.84375 297.335938 23.84375 297.324219 23.84375 C 297.273438 23.839844 297.222656 23.835938 297.171875 23.835938 L 297.164062 23.835938 C 297.113281 23.832031 297.058594 23.832031 297 23.835938 C 296.792969 23.839844 296.589844 23.863281 296.390625 23.90625 C 295.6875 24.0625 294.941406 24.320312 294.128906 25.4375 C 294.117188 25.402344 294.101562 25.367188 294.089844 25.332031 C 293.761719 24.507812 293.117188 23.863281 292.335938 23.574219 C 292.273438 23.359375 292.238281 23.136719 292.234375 22.90625 C 292.222656 22.296875 292.433594 21.722656 292.828125 21.28125 C 293.21875 20.84375 293.746094 20.597656 294.308594 20.585938 C 294.410156 20.582031 294.511719 20.589844 294.613281 20.601562 C 295.183594 20.679688 295.710938 21.011719 296.054688 21.519531 C 296.191406 21.722656 296.453125 21.765625 296.640625 21.617188 C 296.828125 21.46875 296.867188 21.183594 296.730469 20.984375 C 296.371094 20.453125 295.867188 20.058594 295.300781 19.847656 C 295.253906 19.226562 295.496094 18.742188 295.722656 18.4375 C 296.132812 17.878906 296.777344 17.507812 297.367188 17.496094 C 298.074219 17.484375 298.6875 17.722656 299.136719 18.1875 C 299.21875 18.273438 299.292969 18.363281 299.359375 18.457031 L 299.910156 17.75 C 299.847656 17.675781 299.785156 17.605469 299.71875 17.535156 C 299.113281 16.90625 298.273438 16.570312 297.351562 16.589844 C 296.523438 16.605469 295.625 17.109375 295.066406 17.871094 C 294.667969 18.410156 294.460938 19.035156 294.457031 19.679688 C 294.402344 19.679688 294.347656 19.675781 294.292969 19.679688 C 293.507812 19.691406 292.769531 20.039062 292.222656 20.652344 C 291.675781 21.265625 291.382812 22.070312 291.394531 22.921875 C 291.398438 23.082031 291.410156 23.242188 291.4375 23.398438 C 291.398438 23.398438 291.359375 23.398438 291.320312 23.398438 C 290.53125 23.414062 289.796875 23.757812 289.246094 24.371094 C 288.699219 24.984375 288.40625 25.792969 288.421875 26.644531 C 288.429688 27.109375 288.527344 27.554688 288.714844 27.96875 C 288.71875 27.984375 288.726562 27.996094 288.730469 28.007812 C 288.699219 28.011719 288.667969 28.011719 288.636719 28.015625 C 287.011719 28.167969 286.304688 29.632812 286.328125 31.015625 C 286.34375 31.816406 286.640625 32.566406 287.167969 33.128906 C 287.398438 33.378906 287.667969 33.574219 287.953125 33.722656 C 287.238281 34.347656 286.792969 35.316406 286.777344 36.394531 C 286.757812 37.761719 287.25 38.816406 288.125 39.292969 C 288.238281 39.355469 288.359375 39.40625 288.480469 39.445312 C 288.480469 39.984375 288.636719 40.878906 289.515625 41.546875 C 289.996094 41.914062 290.464844 42.023438 290.847656 42.023438 C 291.011719 42.023438 291.160156 42.003906 291.289062 41.972656 C 291.375 41.957031 291.453125 41.933594 291.527344 41.90625 C 291.734375 42.742188 292.148438 43.476562 292.699219 43.964844 C 293.21875 44.421875 293.839844 44.65625 294.515625 44.65625 C 294.671875 44.65625 294.832031 44.644531 294.996094 44.617188 C 295.171875 44.589844 295.34375 44.542969 295.507812 44.480469 C 295.773438 45.375 296.382812 45.871094 296.492188 45.957031 C 296.59375 46.042969 297.128906 46.453125 297.875 46.453125 C 298.234375 46.453125 298.636719 46.359375 299.066406 46.089844 C 300.125 45.429688 300.175781 44.480469 300.113281 43.976562 C 300.105469 43.890625 300.089844 43.816406 300.074219 43.742188 L 299.933594 43.742188 L 299.339844 42.503906 C 298.976562 43.003906 298.4375 43.382812 297.636719 43.398438 C 297.402344 43.402344 297.21875 43.609375 297.222656 43.859375 C 297.226562 44.105469 297.414062 44.304688 297.640625 44.304688 L 297.648438 44.304688 C 298.238281 44.292969 298.769531 44.128906 299.222656 43.828125 C 299.277344 44.007812 299.320312 44.25 299.273438 44.492188 C 299.210938 44.8125 299 45.085938 298.644531 45.308594 C 297.769531 45.855469 297.054688 45.28125 297.007812 45.238281 C 296.996094 45.226562 296.992188 45.226562 296.976562 45.214844 C 296.953125 45.199219 296.414062 44.789062 296.265625 44.023438 C 296.851562 43.519531 297.222656 42.769531 297.214844 41.96875 C 297.207031 41.402344 296.929688 40.636719 296.320312 40.214844 C 295.898438 39.921875 295.164062 39.679688 294.046875 40.207031 C 293.835938 40.308594 293.738281 40.574219 293.832031 40.804688 C 293.921875 41.035156 294.171875 41.140625 294.382812 41.039062 C 294.8125 40.835938 295.414062 40.664062 295.867188 40.976562 C 296.234375 41.230469 296.371094 41.71875 296.375 41.980469 C 296.386719 42.824219 295.726562 43.589844 294.875 43.722656 C 294.242188 43.820312 293.691406 43.667969 293.234375 43.261719 C 292.644531 42.742188 292.265625 41.84375 292.214844 40.851562 C 292.164062 39.839844 292.375 38.917969 292.839844 38.101562 C 293.1875 37.492188 293.554688 37.171875 293.566406 37.164062 C 293.574219 37.15625 293.585938 37.148438 293.59375 37.140625 C 294.015625 37.261719 294.457031 37.226562 294.832031 37.023438 C 295.324219 36.753906 295.609375 36.230469 295.613281 35.589844 C 295.617188 35.339844 295.429688 35.132812 295.199219 35.132812 L 295.195312 35.132812 C 294.964844 35.132812 294.777344 35.332031 294.773438 35.582031 C 294.773438 35.886719 294.664062 36.097656 294.453125 36.214844 C 294.15625 36.375 293.726562 36.308594 293.402344 36.054688 C 293.140625 35.847656 292.722656 35.34375 292.878906 34.269531 C 292.910156 34.039062 293 33.839844 293.125 33.675781 C 293.175781 33.621094 293.230469 33.5625 293.28125 33.5 C 293.667969 33.132812 294.242188 32.972656 294.644531 32.964844 C 295.328125 32.953125 295.976562 33.226562 296.46875 33.742188 C 296.960938 34.253906 297.238281 34.941406 297.25 35.679688 C 297.265625 36.605469 296.851562 37.476562 296.144531 38.003906 C 295.957031 38.148438 295.910156 38.429688 296.039062 38.636719 C 296.121094 38.761719 296.253906 38.832031 296.386719 38.832031 C 296.46875 38.832031 296.550781 38.804688 296.625 38.75 C 297.410156 38.160156 297.921875 37.253906 298.054688 36.25 C 298.832031 36.433594 299.398438 36.980469 299.734375 37.882812 C 299.832031 38.140625 299.902344 38.40625 299.953125 38.65625 L 300.808594 38.65625 C 300.75 38.304688 300.65625 37.921875 300.511719 37.542969 C 300.398438 37.234375 300.257812 36.957031 300.097656 36.707031 C 300.792969 36.34375 301.335938 35.738281 301.65625 35.007812 Z M 291.375 40.898438 C 291.378906 40.933594 291.378906 40.96875 291.382812 41 C 291.105469 41.125 290.578125 41.246094 290 40.808594 C 289.460938 40.398438 289.335938 39.863281 289.320312 39.519531 C 289.671875 39.472656 290.007812 39.328125 290.292969 39.09375 C 290.949219 38.550781 291.210938 37.644531 291.011719 36.609375 C 290.964844 36.367188 290.742188 36.207031 290.515625 36.257812 C 290.289062 36.308594 290.144531 36.546875 290.191406 36.792969 C 290.324219 37.484375 290.179688 38.046875 289.785156 38.375 C 289.425781 38.667969 288.925781 38.710938 288.503906 38.484375 C 287.925781 38.171875 287.605469 37.414062 287.617188 36.410156 C 287.636719 35.265625 288.292969 34.292969 289.253906 33.988281 C 289.449219 33.925781 289.652344 33.894531 289.859375 33.886719 L 289.875 33.886719 C 289.890625 33.886719 289.902344 33.886719 289.914062 33.886719 C 289.921875 33.886719 289.933594 33.886719 289.941406 33.886719 L 289.96875 33.886719 C 290.316406 33.890625 291.238281 33.898438 291.925781 34.746094 C 291.953125 34.773438 291.980469 34.800781 292.007812 34.820312 C 292.035156 35.59375 292.308594 36.253906 292.796875 36.695312 C 292.300781 37.230469 291.261719 38.632812 291.375 40.902344 Z M 292.695312 32.847656 C 292.457031 33.078125 292.261719 33.367188 292.144531 33.722656 C 291.285156 32.992188 290.324219 32.984375 289.976562 32.980469 L 289.9375 32.980469 C 289.9375 32.980469 289.933594 32.980469 289.933594 32.980469 C 289.910156 32.980469 289.890625 32.980469 289.867188 32.980469 C 289.859375 32.980469 289.851562 32.980469 289.84375 32.980469 C 289.582031 32.988281 289.328125 33.027344 289.082031 33.097656 C 288.039062 33.0625 287.1875 32.132812 287.167969 31 C 287.152344 30.109375 287.546875 29.027344 288.707031 28.917969 C 288.972656 28.894531 289.210938 28.914062 289.417969 28.972656 C 289.492188 29.03125 289.578125 29.058594 289.667969 29.0625 C 290.074219 29.246094 290.328125 29.582031 290.386719 29.933594 C 290.46875 30.394531 290.21875 30.761719 289.71875 30.921875 C 289.496094 30.992188 289.367188 31.242188 289.433594 31.480469 C 289.5 31.722656 289.730469 31.859375 289.953125 31.789062 C 291.007812 31.457031 291.347656 30.535156 291.214844 29.769531 C 291.097656 29.097656 290.613281 28.453125 289.847656 28.164062 C 289.84375 28.160156 289.839844 28.152344 289.835938 28.148438 C 289.832031 28.144531 289.832031 28.144531 289.828125 28.144531 C 289.816406 28.128906 289.804688 28.113281 289.789062 28.09375 C 289.660156 27.9375 289.554688 27.765625 289.46875 27.574219 C 289.335938 27.277344 289.265625 26.960938 289.261719 26.625 C 289.25 26.015625 289.460938 25.4375 289.851562 25 C 290.242188 24.5625 290.769531 24.316406 291.335938 24.304688 C 291.53125 24.300781 291.722656 24.324219 291.910156 24.378906 C 292.535156 24.554688 293.0625 25.042969 293.316406 25.6875 C 293.425781 25.957031 293.480469 26.246094 293.488281 26.542969 C 293.492188 26.914062 293.414062 27.277344 293.261719 27.605469 C 292.886719 27.234375 292.4375 26.957031 291.941406 26.796875 C 291.71875 26.722656 291.484375 26.859375 291.417969 27.097656 C 291.351562 27.335938 291.476562 27.589844 291.699219 27.664062 C 292.210938 27.828125 292.65625 28.160156 292.992188 28.613281 C 292.992188 28.617188 292.992188 28.617188 292.992188 28.617188 C 293.347656 29.101562 293.539062 29.6875 293.550781 30.304688 C 293.5625 31.082031 293.160156 32.242188 292.695312 32.847656 Z M 292.695312 32.847656 " fill-opacity="1" fill-rule="nonzero"/></g><path fill="#fffefa" d="M 299.847656 21.117188 C 299.8125 21.363281 299.757812 21.597656 299.683594 21.824219 L 300.253906 21.824219 L 300.683594 21.230469 C 300.722656 20.933594 300.742188 20.625 300.738281 20.316406 C 300.738281 20.21875 300.734375 20.125 300.726562 20.03125 L 299.867188 21.117188 Z M 299.847656 21.117188 " fill-opacity="1" fill-rule="nonzero"/><path fill="#fffefa" d="M 300.648438 39.410156 L 300.054688 39.410156 C 300.082031 39.8125 300.070312 40.101562 300.066406 40.160156 C 300.046875 40.480469 299.976562 41.101562 299.75 41.71875 L 300.226562 42.714844 C 300.707031 41.875 300.859375 40.910156 300.902344 40.222656 C 300.90625 40.152344 300.914062 39.996094 300.910156 39.777344 Z M 300.648438 39.410156 " fill-opacity="1" fill-rule="nonzero"/></svg>