<svg xmlns="http://www.w3.org/2000/svg" xmlns:xlink="http://www.w3.org/1999/xlink" width="500" zoomAndPan="magnify" viewBox="0 0 375 374.999991" height="500" preserveAspectRatio="xMidYMid meet" version="1.0"><defs><filter x="0%" y="0%" width="100%" height="100%" id="2cf4de5372"><feColorMatrix values="0 0 0 0 1 0 0 0 0 1 0 0 0 0 1 0 0 0 1 0" color-interpolation-filters="sRGB"/></filter><g/><clipPath id="3b6512aa76"><path d="M 119.058594 82.933594 L 198 82.933594 L 198 232.183594 L 119.058594 232.183594 Z M 119.058594 82.933594 " clip-rule="nonzero"/></clipPath><mask id="c851fff082"><g filter="url(#2cf4de5372)"><rect x="-37.5" width="450" fill="#000000" y="-37.499999" height="449.999989" fill-opacity="0.3"/></g></mask><clipPath id="0963865262"><path d="M 0.0585938 0.933594 L 78.519531 0.933594 L 78.519531 150.183594 L 0.0585938 150.183594 Z M 0.0585938 0.933594 " clip-rule="nonzero"/></clipPath><clipPath id="27176cc9a5"><rect x="0" width="79" y="0" height="151"/></clipPath><mask id="af93207ada"><g filter="url(#2cf4de5372)"><rect x="-37.5" width="450" fill="#000000" y="-37.499999" height="449.999989" fill-opacity="0.2"/></g></mask><clipPath id="7feb47a360"><path d="M 0.199219 0.558594 L 70 0.558594 L 70 135.921875 L 0.199219 135.921875 Z M 0.199219 0.558594 " clip-rule="nonzero"/></clipPath><clipPath id="86995c400f"><rect x="0" width="71" y="0" height="136"/></clipPath><clipPath id="a26c16a490"><path d="M 119.058594 82.933594 L 196 82.933594 L 196 232.183594 L 119.058594 232.183594 Z M 119.058594 82.933594 " clip-rule="nonzero"/></clipPath></defs><g fill="#97e4ff" fill-opacity="1"><g transform="translate(33.796282, 279.645972)"><g><path d="M 26.132812 -20.0625 C 26.132812 -20.027344 26.132812 -19.992188 26.132812 -19.960938 C 26.132812 -19.925781 26.132812 -19.890625 26.132812 -19.855469 Z M 26.785156 -1.476562 L 20.78125 -11.761719 C 22.460938 -11.96875 23.765625 -12.6875 24.625 -13.855469 C 25.582031 -15.261719 26.097656 -17.285156 26.132812 -19.960938 C 26.097656 -22.632812 25.582031 -24.65625 24.625 -26.0625 C 23.59375 -27.539062 21.878906 -28.257812 19.546875 -28.257812 L 3.738281 -28.257812 C 3.429688 -28.257812 2.742188 -28.15625 2.742188 -27.058594 L 2.742188 -24.347656 C 2.742188 -23.285156 3.429688 -23.183594 3.738281 -23.183594 L 18.65625 -23.183594 C 19.546875 -23.183594 20.128906 -22.941406 20.472656 -22.429688 C 20.851562 -21.914062 21.023438 -21.089844 21.023438 -19.960938 C 21.023438 -18.828125 20.851562 -18.003906 20.472656 -17.488281 C 20.128906 -16.976562 19.546875 -16.734375 18.65625 -16.734375 L 3.738281 -16.734375 C 3.429688 -16.734375 2.742188 -16.632812 2.742188 -15.570312 L 2.742188 -1.164062 C 2.742188 -0.101562 3.429688 0.0351562 3.738281 0.0351562 L 6.859375 0.0351562 C 7.167969 0.0351562 7.820312 -0.101562 7.820312 -1.164062 L 7.820312 -11.660156 L 15.054688 -11.660156 L 21.261719 -0.652344 C 21.398438 -0.445312 21.503906 -0.273438 21.640625 -0.171875 C 21.8125 -0.0351562 22.050781 0.0351562 22.359375 0.0351562 L 26.132812 0.0351562 C 26.542969 0.0351562 26.851562 -0.238281 26.921875 -0.652344 C 26.957031 -0.996094 26.921875 -1.269531 26.785156 -1.476562 Z M 26.785156 -1.476562 "/></g></g></g><g fill="#97e4ff" fill-opacity="1"><g transform="translate(61.775224, 279.645972)"><g><path d="M 23.355469 -6.140625 L 11.28125 -6.140625 C 10.5625 -6.140625 9.980469 -6.242188 9.5 -6.378906 C 9.054688 -6.550781 8.746094 -6.789062 8.46875 -7.132812 C 8.195312 -7.511719 7.992188 -8.023438 7.886719 -8.675781 C 7.851562 -8.847656 7.851562 -9.089844 7.820312 -9.257812 C 7.820312 -9.257812 7.851562 -11.730469 7.886719 -11.730469 L 23.21875 -11.730469 C 23.492188 -11.730469 24.175781 -11.867188 24.175781 -12.929688 L 24.175781 -15.636719 C 24.175781 -16.703125 23.492188 -16.804688 23.21875 -16.804688 L 5.519531 -16.769531 C 4.527344 -16.703125 3.667969 -16.1875 3.1875 -15.328125 C 3.019531 -15.054688 2.878906 -14.78125 2.8125 -14.472656 L 2.742188 -10.152344 L 2.742188 -9.980469 C 2.777344 -8.367188 2.949219 -6.996094 3.1875 -5.863281 C 3.496094 -4.492188 4.011719 -3.359375 4.664062 -2.503906 C 5.351562 -1.613281 6.242188 -0.996094 7.339844 -0.617188 C 8.402344 -0.207031 9.671875 -0.0351562 11.179688 -0.0351562 L 23.355469 -0.0351562 C 23.664062 -0.0351562 24.347656 -0.136719 24.347656 -1.199219 L 24.347656 -4.972656 C 24.347656 -6.035156 23.664062 -6.140625 23.355469 -6.140625 Z M 23.390625 -28.328125 L 3.667969 -28.328125 C 3.394531 -28.328125 2.742188 -28.191406 2.742188 -27.09375 L 2.742188 -24.417969 C 2.742188 -23.355469 3.394531 -23.25 3.667969 -23.25 L 23.390625 -23.21875 C 23.664062 -23.21875 24.347656 -23.355469 24.347656 -24.417969 L 24.347656 -27.125 C 24.347656 -28.191406 23.664062 -28.328125 23.390625 -28.328125 Z M 23.390625 -28.328125 "/></g></g></g><g fill="#97e4ff" fill-opacity="1"><g transform="translate(87.148162, 279.645972)"><g><path d="M 26.167969 -21.878906 C 25.824219 -23.320312 25.242188 -24.519531 24.519531 -25.480469 C 23.765625 -26.40625 22.769531 -27.125 21.605469 -27.574219 C 20.4375 -28.019531 19.066406 -28.257812 17.457031 -28.257812 L 5.488281 -28.257812 L 5.488281 -28.222656 C 4.492188 -28.15625 3.636719 -27.605469 3.121094 -26.785156 C 2.984375 -26.507812 2.847656 -26.199219 2.777344 -25.925781 L 2.742188 -2.503906 C 2.8125 -2.125 2.949219 -1.75 3.121094 -1.441406 C 3.667969 -0.515625 4.664062 0.0351562 5.726562 0.0351562 L 17.457031 0.0351562 C 19.066406 0.0351562 20.472656 -0.207031 21.605469 -0.652344 C 22.769531 -1.097656 23.765625 -1.816406 24.519531 -2.777344 C 25.242188 -3.703125 25.824219 -4.902344 26.167969 -6.34375 C 26.507812 -7.785156 26.679688 -9.5 26.679688 -11.421875 L 26.679688 -16.804688 C 26.679688 -18.726562 26.507812 -20.4375 26.167969 -21.878906 Z M 7.785156 -5.246094 L 7.785156 -22.976562 C 7.785156 -23.113281 7.820312 -23.183594 7.851562 -23.183594 L 17.351562 -23.183594 C 18.140625 -23.183594 18.828125 -23.078125 19.375 -22.875 C 19.925781 -22.667969 20.335938 -22.394531 20.644531 -21.949219 C 20.988281 -21.503906 21.226562 -20.917969 21.367188 -20.199219 C 21.503906 -19.410156 21.605469 -18.449219 21.605469 -17.320312 L 21.605469 -10.90625 C 21.605469 -9.773438 21.503906 -8.8125 21.367188 -8.058594 C 21.226562 -7.304688 20.988281 -6.722656 20.644531 -6.277344 C 20.335938 -5.863281 19.925781 -5.554688 19.375 -5.351562 C 18.828125 -5.144531 18.140625 -5.074219 17.351562 -5.074219 L 7.820312 -5.074219 C 7.820312 -5.074219 7.785156 -5.109375 7.785156 -5.246094 Z M 7.785156 -5.246094 "/></g></g></g><g fill="#97e4ff" fill-opacity="1"><g transform="translate(114.852797, 279.645972)"><g><path d="M 23.355469 -6.140625 L 11.28125 -6.140625 C 10.5625 -6.140625 9.980469 -6.242188 9.5 -6.378906 C 9.054688 -6.550781 8.746094 -6.789062 8.46875 -7.132812 C 8.195312 -7.511719 7.992188 -8.023438 7.886719 -8.675781 C 7.851562 -8.847656 7.851562 -9.089844 7.820312 -9.257812 C 7.820312 -9.257812 7.851562 -11.730469 7.886719 -11.730469 L 23.21875 -11.730469 C 23.492188 -11.730469 24.175781 -11.867188 24.175781 -12.929688 L 24.175781 -15.636719 C 24.175781 -16.703125 23.492188 -16.804688 23.21875 -16.804688 L 5.519531 -16.769531 C 4.527344 -16.703125 3.667969 -16.1875 3.1875 -15.328125 C 3.019531 -15.054688 2.878906 -14.78125 2.8125 -14.472656 L 2.742188 -10.152344 L 2.742188 -9.980469 C 2.777344 -8.367188 2.949219 -6.996094 3.1875 -5.863281 C 3.496094 -4.492188 4.011719 -3.359375 4.664062 -2.503906 C 5.351562 -1.613281 6.242188 -0.996094 7.339844 -0.617188 C 8.402344 -0.207031 9.671875 -0.0351562 11.179688 -0.0351562 L 23.355469 -0.0351562 C 23.664062 -0.0351562 24.347656 -0.136719 24.347656 -1.199219 L 24.347656 -4.972656 C 24.347656 -6.035156 23.664062 -6.140625 23.355469 -6.140625 Z M 23.390625 -28.328125 L 3.667969 -28.328125 C 3.394531 -28.328125 2.742188 -28.191406 2.742188 -27.09375 L 2.742188 -24.417969 C 2.742188 -23.355469 3.394531 -23.25 3.667969 -23.25 L 23.390625 -23.21875 C 23.664062 -23.21875 24.347656 -23.355469 24.347656 -24.417969 L 24.347656 -27.125 C 24.347656 -28.191406 23.664062 -28.328125 23.390625 -28.328125 Z M 23.390625 -28.328125 "/></g></g></g><g fill="#97e4ff" fill-opacity="1"><g transform="translate(140.225732, 279.645972)"><g><path d="M 19.308594 -16.871094 L 9.019531 -16.871094 C 8.503906 -16.871094 7.851562 -17.078125 7.851562 -18.757812 L 7.851562 -21.296875 C 7.851562 -21.914062 7.957031 -22.394531 8.128906 -22.738281 C 8.265625 -22.941406 8.46875 -23.183594 9.054688 -23.183594 L 23.011719 -23.183594 C 23.285156 -23.183594 23.972656 -23.285156 23.972656 -24.347656 L 23.972656 -27.09375 C 23.972656 -28.15625 23.285156 -28.257812 23.011719 -28.257812 L 8.230469 -28.257812 C 6.34375 -28.257812 4.972656 -27.640625 4.082031 -26.371094 C 3.1875 -25.136719 2.742188 -23.492188 2.742188 -21.503906 L 2.742188 -18.894531 C 2.742188 -16.53125 3.222656 -14.609375 4.082031 -13.410156 C 5.144531 -12.003906 6.722656 -11.796875 8.160156 -11.796875 L 18.449219 -11.796875 C 18.964844 -11.796875 19.652344 -11.589844 19.652344 -9.910156 L 19.652344 -6.960938 C 19.652344 -6.34375 19.546875 -5.863281 19.34375 -5.519531 C 19.203125 -5.316406 19 -5.074219 18.417969 -5.074219 L 3.773438 -5.074219 C 3.464844 -5.074219 2.777344 -4.972656 2.777344 -3.910156 L 2.777344 -1.164062 C 2.777344 -0.101562 3.464844 0 3.773438 0 L 19.238281 0 C 21.125 0 22.53125 -0.652344 23.421875 -1.921875 C 24.28125 -3.15625 24.726562 -4.765625 24.726562 -6.757812 L 24.726562 -9.773438 C 24.726562 -12.003906 24.28125 -13.753906 23.390625 -14.988281 C 22.460938 -16.222656 21.089844 -16.871094 19.308594 -16.871094 Z M 19.308594 -16.871094 "/></g></g></g><g fill="#97e4ff" fill-opacity="1"><g transform="translate(165.975856, 279.645972)"><g/></g></g><g fill="#97e4ff" fill-opacity="1"><g transform="translate(181.884883, 279.645972)"><g><path d="M 19.308594 -16.871094 L 9.019531 -16.871094 C 8.503906 -16.871094 7.851562 -17.078125 7.851562 -18.757812 L 7.851562 -21.296875 C 7.851562 -21.914062 7.957031 -22.394531 8.128906 -22.738281 C 8.265625 -22.941406 8.46875 -23.183594 9.054688 -23.183594 L 23.011719 -23.183594 C 23.285156 -23.183594 23.972656 -23.285156 23.972656 -24.347656 L 23.972656 -27.09375 C 23.972656 -28.15625 23.285156 -28.257812 23.011719 -28.257812 L 8.230469 -28.257812 C 6.34375 -28.257812 4.972656 -27.640625 4.082031 -26.371094 C 3.1875 -25.136719 2.742188 -23.492188 2.742188 -21.503906 L 2.742188 -18.894531 C 2.742188 -16.53125 3.222656 -14.609375 4.082031 -13.410156 C 5.144531 -12.003906 6.722656 -11.796875 8.160156 -11.796875 L 18.449219 -11.796875 C 18.964844 -11.796875 19.652344 -11.589844 19.652344 -9.910156 L 19.652344 -6.960938 C 19.652344 -6.34375 19.546875 -5.863281 19.34375 -5.519531 C 19.203125 -5.316406 19 -5.074219 18.417969 -5.074219 L 3.773438 -5.074219 C 3.464844 -5.074219 2.777344 -4.972656 2.777344 -3.910156 L 2.777344 -1.164062 C 2.777344 -0.101562 3.464844 0 3.773438 0 L 19.238281 0 C 21.125 0 22.53125 -0.652344 23.421875 -1.921875 C 24.28125 -3.15625 24.726562 -4.765625 24.726562 -6.757812 L 24.726562 -9.773438 C 24.726562 -12.003906 24.28125 -13.753906 23.390625 -14.988281 C 22.460938 -16.222656 21.089844 -16.871094 19.308594 -16.871094 Z M 19.308594 -16.871094 "/></g></g></g><g fill="#97e4ff" fill-opacity="1"><g transform="translate(207.635007, 279.645972)"><g><path d="M 26.097656 -25.753906 C 25.410156 -26.613281 24.519531 -27.265625 23.421875 -27.675781 C 22.359375 -28.050781 21.058594 -28.257812 19.546875 -28.257812 L 11.179688 -28.257812 C 9.671875 -28.257812 8.402344 -28.050781 7.339844 -27.675781 C 6.242188 -27.265625 5.351562 -26.613281 4.664062 -25.753906 C 4.011719 -24.898438 3.496094 -23.765625 3.1875 -22.394531 C 2.878906 -21.058594 2.742188 -19.445312 2.742188 -17.523438 L 2.742188 -10.734375 C 2.742188 -8.8125 2.878906 -7.167969 3.1875 -5.828125 C 3.496094 -4.457031 4.011719 -3.328125 4.664062 -2.46875 C 5.351562 -1.578125 6.242188 -0.925781 7.339844 -0.546875 C 8.367188 -0.171875 9.671875 0.0351562 11.179688 0.0351562 L 19.546875 0.0351562 C 21.058594 0.0351562 22.359375 -0.171875 23.421875 -0.546875 C 24.519531 -0.925781 25.410156 -1.578125 26.097656 -2.433594 C 26.785156 -3.328125 27.265625 -4.457031 27.574219 -5.828125 C 27.847656 -7.167969 28.019531 -8.8125 28.019531 -10.734375 L 28.019531 -17.523438 C 28.019531 -19.410156 27.847656 -21.058594 27.574219 -22.394531 C 27.265625 -23.765625 26.785156 -24.898438 26.097656 -25.753906 Z M 22.910156 -18.105469 L 22.910156 -10.117188 C 22.910156 -9.121094 22.875 -8.265625 22.738281 -7.578125 C 22.632812 -6.960938 22.429688 -6.414062 22.152344 -6.070312 C 21.914062 -5.691406 21.570312 -5.453125 21.125 -5.316406 C 20.679688 -5.144531 20.097656 -5.074219 19.375 -5.074219 L 11.351562 -5.074219 C 10.632812 -5.074219 10.046875 -5.144531 9.601562 -5.316406 C 9.15625 -5.453125 8.8125 -5.691406 8.574219 -6.070312 C 8.300781 -6.414062 8.128906 -6.960938 7.992188 -7.578125 C 7.886719 -8.265625 7.820312 -9.121094 7.820312 -10.117188 L 7.820312 -18.105469 C 7.820312 -19.101562 7.886719 -19.960938 7.992188 -20.644531 C 8.128906 -21.296875 8.300781 -21.8125 8.574219 -22.1875 C 8.8125 -22.53125 9.15625 -22.769531 9.601562 -22.941406 C 10.046875 -23.078125 10.632812 -23.183594 11.351562 -23.183594 L 19.375 -23.183594 C 20.097656 -23.183594 20.679688 -23.078125 21.125 -22.941406 C 21.570312 -22.769531 21.914062 -22.53125 22.152344 -22.1875 C 22.429688 -21.8125 22.632812 -21.296875 22.738281 -20.644531 C 22.875 -19.960938 22.910156 -19.101562 22.910156 -18.105469 Z M 22.910156 -18.105469 "/></g></g></g><g fill="#97e4ff" fill-opacity="1"><g transform="translate(236.676934, 279.645972)"><g><path d="M 23.699219 -28.257812 L 11.214844 -28.257812 C 9.707031 -28.257812 8.402344 -28.050781 7.339844 -27.675781 C 6.242188 -27.265625 5.351562 -26.613281 4.699219 -25.753906 C 4.011719 -24.898438 3.496094 -23.765625 3.1875 -22.394531 C 2.878906 -21.058594 2.742188 -19.410156 2.742188 -17.523438 L 2.742188 -10.734375 C 2.742188 -8.8125 2.878906 -7.167969 3.1875 -5.796875 C 3.496094 -4.457031 4.011719 -3.328125 4.699219 -2.433594 C 5.382812 -1.578125 6.277344 -0.925781 7.339844 -0.546875 C 8.402344 -0.171875 9.707031 0.0351562 11.214844 0.0351562 L 23.699219 0.0351562 C 23.972656 0.0351562 24.65625 -0.101562 24.65625 -1.164062 L 24.65625 -3.875 C 24.65625 -4.9375 23.972656 -5.074219 23.699219 -5.074219 L 11.386719 -5.074219 C 10.664062 -5.074219 10.046875 -5.144531 9.601562 -5.316406 C 9.15625 -5.453125 8.847656 -5.691406 8.574219 -6.070312 C 8.300781 -6.414062 8.128906 -6.925781 7.992188 -7.578125 C 7.886719 -8.265625 7.820312 -9.121094 7.820312 -10.152344 L 7.820312 -18.140625 C 7.820312 -19.171875 7.886719 -20.027344 7.992188 -20.679688 C 8.128906 -21.332031 8.300781 -21.8125 8.574219 -22.1875 C 8.847656 -22.566406 9.15625 -22.804688 9.601562 -22.941406 C 10.046875 -23.113281 10.664062 -23.183594 11.386719 -23.183594 L 23.699219 -23.183594 C 23.972656 -23.183594 24.65625 -23.320312 24.65625 -24.417969 L 24.65625 -27.058594 C 24.65625 -28.121094 23.972656 -28.257812 23.699219 -28.257812 Z M 23.699219 -28.257812 "/></g></g></g><g fill="#97e4ff" fill-opacity="1"><g transform="translate(262.35849, 279.645972)"><g><path d="M 6.859375 -28.257812 L 3.703125 -28.257812 C 3.429688 -28.257812 2.742188 -28.121094 2.742188 -27.058594 L 2.742188 -1.164062 C 2.742188 -0.101562 3.429688 0.0351562 3.703125 0.0351562 L 6.859375 0.0351562 C 7.132812 0.0351562 7.820312 -0.101562 7.820312 -1.164062 L 7.820312 -27.058594 C 7.820312 -28.121094 7.132812 -28.257812 6.859375 -28.257812 Z M 6.859375 -28.257812 "/></g></g></g><g fill="#97e4ff" fill-opacity="1"><g transform="translate(271.203872, 279.645972)"><g><path d="M 21.125 -25.070312 C 21.058594 -25.242188 20.988281 -25.445312 20.917969 -25.582031 C 20.371094 -27.367188 18.726562 -28.636719 16.839844 -28.636719 C 15.980469 -28.636719 15.15625 -28.394531 14.472656 -27.914062 C 14.265625 -27.8125 14.09375 -27.675781 13.957031 -27.574219 C 13.445312 -27.125 12.929688 -26.304688 12.449219 -25.070312 L 2.878906 -1.304688 C 2.777344 -0.996094 2.742188 -0.6875 2.8125 -0.480469 C 2.847656 -0.273438 3.019531 0.0351562 3.566406 0.0351562 L 7.339844 0.0351562 C 7.785156 0.0351562 8.128906 -0.238281 8.300781 -0.6875 L 10.253906 -5.589844 L 17.765625 -5.589844 C 18.140625 -5.589844 18.484375 -5.761719 18.65625 -6.070312 C 18.863281 -6.34375 18.894531 -6.722656 18.792969 -7.066406 L 17.558594 -10.117188 C 17.386719 -10.527344 17.011719 -10.800781 16.5625 -10.800781 L 12.3125 -10.800781 L 16.703125 -21.914062 C 16.734375 -21.984375 16.769531 -22.015625 16.769531 -22.015625 L 16.90625 -22.015625 C 16.90625 -22.015625 16.90625 -22.015625 16.941406 -21.949219 L 25.445312 -0.71875 C 25.617188 -0.238281 25.960938 0.0351562 26.441406 0.0351562 L 30.109375 0.0351562 C 30.660156 0.0351562 30.796875 -0.308594 30.863281 -0.480469 C 30.933594 -0.6875 30.898438 -0.996094 30.761719 -1.304688 Z M 21.125 -25.070312 "/></g></g></g><g fill="#97e4ff" fill-opacity="1"><g transform="translate(303.160398, 279.645972)"><g><path d="M 6.859375 -28.257812 L 3.703125 -28.257812 C 3.429688 -28.257812 2.742188 -28.121094 2.742188 -27.058594 L 2.742188 -1.164062 C 2.742188 -0.101562 3.429688 0.0351562 3.703125 0.0351562 L 6.859375 0.0351562 C 7.132812 0.0351562 7.820312 -0.101562 7.820312 -1.164062 L 7.820312 -27.058594 C 7.820312 -28.121094 7.132812 -28.257812 6.859375 -28.257812 Z M 6.859375 -28.257812 "/></g></g></g><g fill="#97e4ff" fill-opacity="1"><g transform="translate(312.00578, 279.645972)"><g><path d="M 19.308594 -16.871094 L 9.019531 -16.871094 C 8.503906 -16.871094 7.851562 -17.078125 7.851562 -18.757812 L 7.851562 -21.296875 C 7.851562 -21.914062 7.957031 -22.394531 8.128906 -22.738281 C 8.265625 -22.941406 8.46875 -23.183594 9.054688 -23.183594 L 23.011719 -23.183594 C 23.285156 -23.183594 23.972656 -23.285156 23.972656 -24.347656 L 23.972656 -27.09375 C 23.972656 -28.15625 23.285156 -28.257812 23.011719 -28.257812 L 8.230469 -28.257812 C 6.34375 -28.257812 4.972656 -27.640625 4.082031 -26.371094 C 3.1875 -25.136719 2.742188 -23.492188 2.742188 -21.503906 L 2.742188 -18.894531 C 2.742188 -16.53125 3.222656 -14.609375 4.082031 -13.410156 C 5.144531 -12.003906 6.722656 -11.796875 8.160156 -11.796875 L 18.449219 -11.796875 C 18.964844 -11.796875 19.652344 -11.589844 19.652344 -9.910156 L 19.652344 -6.960938 C 19.652344 -6.34375 19.546875 -5.863281 19.34375 -5.519531 C 19.203125 -5.316406 19 -5.074219 18.417969 -5.074219 L 3.773438 -5.074219 C 3.464844 -5.074219 2.777344 -4.972656 2.777344 -3.910156 L 2.777344 -1.164062 C 2.777344 -0.101562 3.464844 0 3.773438 0 L 19.238281 0 C 21.125 0 22.53125 -0.652344 23.421875 -1.921875 C 24.28125 -3.15625 24.726562 -4.765625 24.726562 -6.757812 L 24.726562 -9.773438 C 24.726562 -12.003906 24.28125 -13.753906 23.390625 -14.988281 C 22.460938 -16.222656 21.089844 -16.871094 19.308594 -16.871094 Z M 19.308594 -16.871094 "/></g></g></g><g fill="#f4f6fc" fill-opacity="1"><g transform="translate(100.516689, 305.151981)"><g><path d="M 10.296875 -1.140625 C 10.472656 -0.960938 10.5625 -0.796875 10.5625 -0.640625 C 10.5625 -0.515625 10.488281 -0.378906 10.34375 -0.234375 C 10.1875 -0.078125 10.03125 0 9.875 0 C 9.726562 0 9.566406 -0.078125 9.390625 -0.234375 L 7.734375 -1.890625 L 7.671875 -1.796875 C 7.109375 -1.160156 6.519531 -0.664062 5.90625 -0.3125 C 5.289062 0.03125 4.609375 0.203125 3.859375 0.203125 C 2.898438 0.203125 2.128906 -0.0507812 1.546875 -0.5625 C 0.960938 -1.082031 0.671875 -1.800781 0.671875 -2.71875 C 0.671875 -3.34375 0.875 -3.921875 1.28125 -4.453125 C 1.695312 -4.992188 2.332031 -5.601562 3.1875 -6.28125 L 3.265625 -6.34375 L 2.484375 -7.125 C 1.785156 -7.84375 1.4375 -8.617188 1.4375 -9.453125 C 1.4375 -9.921875 1.554688 -10.347656 1.796875 -10.734375 C 2.035156 -11.128906 2.363281 -11.4375 2.78125 -11.65625 C 3.207031 -11.875 3.679688 -11.984375 4.203125 -11.984375 C 4.734375 -11.984375 5.207031 -11.867188 5.625 -11.640625 C 6.039062 -11.410156 6.367188 -11.09375 6.609375 -10.6875 C 6.847656 -10.28125 6.96875 -9.832031 6.96875 -9.34375 C 6.957031 -8.769531 6.8125 -8.265625 6.53125 -7.828125 C 6.25 -7.398438 5.757812 -6.910156 5.0625 -6.359375 L 7.765625 -3.65625 L 8.96875 -4.9375 C 9.15625 -5.144531 9.328125 -5.25 9.484375 -5.25 C 9.585938 -5.25 9.703125 -5.1875 9.828125 -5.0625 C 9.984375 -4.914062 10.0625 -4.757812 10.0625 -4.59375 C 10.0625 -4.414062 9.992188 -4.253906 9.859375 -4.109375 L 8.625 -2.8125 Z M 4.265625 -7.15625 L 4.421875 -7.28125 C 4.910156 -7.664062 5.238281 -8.015625 5.40625 -8.328125 C 5.582031 -8.648438 5.675781 -9 5.6875 -9.375 C 5.6875 -9.769531 5.550781 -10.101562 5.28125 -10.375 C 5.019531 -10.644531 4.660156 -10.78125 4.203125 -10.78125 C 3.773438 -10.78125 3.421875 -10.648438 3.140625 -10.390625 C 2.867188 -10.140625 2.734375 -9.835938 2.734375 -9.484375 C 2.734375 -8.953125 2.976562 -8.441406 3.46875 -7.953125 Z M 6.890625 -2.75 L 4.0625 -5.546875 L 3.875 -5.40625 C 3.289062 -4.9375 2.84375 -4.492188 2.53125 -4.078125 C 2.226562 -3.660156 2.078125 -3.226562 2.078125 -2.78125 C 2.078125 -2.21875 2.226562 -1.789062 2.53125 -1.5 C 2.84375 -1.21875 3.285156 -1.078125 3.859375 -1.078125 C 4.410156 -1.078125 4.910156 -1.203125 5.359375 -1.453125 C 5.804688 -1.710938 6.28125 -2.101562 6.78125 -2.625 Z M 6.890625 -2.75 "/></g></g></g><g fill="#f4f6fc" fill-opacity="1"><g transform="translate(115.231673, 305.151981)"><g/></g></g><g fill="#f4f6fc" fill-opacity="1"><g transform="translate(123.376673, 305.151981)"><g><path d="M 5.21875 0.15625 C 4.25 0.15625 3.363281 -0.0625 2.5625 -0.5 C 1.769531 -0.945312 1.226562 -1.523438 0.9375 -2.234375 C 0.882812 -2.359375 0.859375 -2.457031 0.859375 -2.53125 C 0.859375 -2.6875 0.910156 -2.820312 1.015625 -2.9375 C 1.128906 -3.050781 1.28125 -3.128906 1.46875 -3.171875 C 1.5 -3.179688 1.550781 -3.1875 1.625 -3.1875 C 1.78125 -3.1875 1.929688 -3.132812 2.078125 -3.03125 C 2.222656 -2.9375 2.332031 -2.8125 2.40625 -2.65625 C 2.582031 -2.257812 2.9375 -1.925781 3.46875 -1.65625 C 4 -1.394531 4.582031 -1.265625 5.21875 -1.265625 C 5.96875 -1.265625 6.601562 -1.4375 7.125 -1.78125 C 7.644531 -2.125 7.90625 -2.59375 7.90625 -3.1875 C 7.90625 -3.757812 7.679688 -4.25 7.234375 -4.65625 C 6.796875 -5.0625 6.128906 -5.3125 5.234375 -5.40625 C 3.992188 -5.519531 3.019531 -5.878906 2.3125 -6.484375 C 1.601562 -7.085938 1.25 -7.847656 1.25 -8.765625 C 1.25 -9.398438 1.429688 -9.945312 1.796875 -10.40625 C 2.160156 -10.875 2.660156 -11.226562 3.296875 -11.46875 C 3.929688 -11.71875 4.644531 -11.84375 5.4375 -11.84375 C 6.289062 -11.84375 7.007812 -11.664062 7.59375 -11.3125 C 8.1875 -10.96875 8.691406 -10.472656 9.109375 -9.828125 C 9.222656 -9.640625 9.28125 -9.457031 9.28125 -9.28125 C 9.28125 -9.0625 9.179688 -8.882812 8.984375 -8.75 C 8.867188 -8.675781 8.738281 -8.640625 8.59375 -8.640625 C 8.445312 -8.640625 8.304688 -8.675781 8.171875 -8.75 C 8.046875 -8.820312 7.945312 -8.925781 7.875 -9.0625 C 7.601562 -9.507812 7.265625 -9.847656 6.859375 -10.078125 C 6.453125 -10.316406 5.941406 -10.4375 5.328125 -10.4375 C 4.566406 -10.4375 3.953125 -10.289062 3.484375 -10 C 3.015625 -9.707031 2.78125 -9.28125 2.78125 -8.71875 C 2.78125 -8.195312 2.988281 -7.757812 3.40625 -7.40625 C 3.820312 -7.0625 4.570312 -6.832031 5.65625 -6.71875 C 6.851562 -6.601562 7.78125 -6.238281 8.4375 -5.625 C 9.101562 -5.019531 9.4375 -4.222656 9.4375 -3.234375 C 9.4375 -2.515625 9.238281 -1.894531 8.84375 -1.375 C 8.457031 -0.863281 7.941406 -0.476562 7.296875 -0.21875 C 6.648438 0.03125 5.957031 0.15625 5.21875 0.15625 Z M 5.21875 0.15625 "/></g></g></g><g fill="#f4f6fc" fill-opacity="1"><g transform="translate(137.446668, 305.151981)"><g><path d="M 5.0625 -8.265625 C 5.832031 -8.265625 6.53125 -8.082031 7.15625 -7.71875 C 7.78125 -7.351562 8.273438 -6.851562 8.640625 -6.21875 C 9.003906 -5.582031 9.1875 -4.875 9.1875 -4.09375 L 9.1875 -0.75 C 9.1875 -0.53125 9.113281 -0.347656 8.96875 -0.203125 C 8.832031 -0.0546875 8.65625 0.015625 8.4375 0.015625 C 8.207031 0.015625 8.019531 -0.0546875 7.875 -0.203125 C 7.738281 -0.347656 7.671875 -0.53125 7.671875 -0.75 L 7.671875 -1.3125 C 7.316406 -0.875 6.890625 -0.535156 6.390625 -0.296875 C 5.890625 -0.0546875 5.347656 0.0625 4.765625 0.0625 C 4.046875 0.0625 3.394531 -0.113281 2.8125 -0.46875 C 2.226562 -0.832031 1.769531 -1.332031 1.4375 -1.96875 C 1.101562 -2.601562 0.9375 -3.3125 0.9375 -4.09375 C 0.9375 -4.875 1.113281 -5.582031 1.46875 -6.21875 C 1.832031 -6.851562 2.332031 -7.351562 2.96875 -7.71875 C 3.601562 -8.082031 4.300781 -8.265625 5.0625 -8.265625 Z M 5.0625 -1.296875 C 5.5625 -1.296875 6.015625 -1.414062 6.421875 -1.65625 C 6.828125 -1.90625 7.144531 -2.238281 7.375 -2.65625 C 7.601562 -3.082031 7.71875 -3.5625 7.71875 -4.09375 C 7.71875 -4.625 7.601562 -5.101562 7.375 -5.53125 C 7.144531 -5.96875 6.828125 -6.304688 6.421875 -6.546875 C 6.015625 -6.796875 5.5625 -6.921875 5.0625 -6.921875 C 4.5625 -6.921875 4.109375 -6.796875 3.703125 -6.546875 C 3.304688 -6.304688 2.988281 -5.96875 2.75 -5.53125 C 2.519531 -5.101562 2.40625 -4.625 2.40625 -4.09375 C 2.40625 -3.5625 2.519531 -3.082031 2.75 -2.65625 C 2.988281 -2.238281 3.304688 -1.90625 3.703125 -1.65625 C 4.109375 -1.414062 4.5625 -1.296875 5.0625 -1.296875 Z M 5.0625 -1.296875 "/></g></g></g><g fill="#f4f6fc" fill-opacity="1"><g transform="translate(151.321656, 305.151981)"><g><path d="M 8.109375 -8.21875 C 8.335938 -8.21875 8.519531 -8.144531 8.65625 -8 C 8.800781 -7.863281 8.875 -7.679688 8.875 -7.453125 L 8.875 -0.765625 C 8.875 -0.546875 8.800781 -0.363281 8.65625 -0.21875 C 8.519531 -0.0703125 8.335938 0 8.109375 0 C 7.890625 0 7.707031 -0.0703125 7.5625 -0.21875 C 7.414062 -0.363281 7.34375 -0.546875 7.34375 -0.765625 L 7.34375 -0.9375 C 7.03125 -0.613281 6.648438 -0.363281 6.203125 -0.1875 C 5.765625 -0.0078125 5.296875 0.078125 4.796875 0.078125 C 4.109375 0.078125 3.488281 -0.0703125 2.9375 -0.375 C 2.382812 -0.675781 1.953125 -1.113281 1.640625 -1.6875 C 1.335938 -2.257812 1.1875 -2.953125 1.1875 -3.765625 L 1.1875 -7.453125 C 1.1875 -7.671875 1.257812 -7.851562 1.40625 -8 C 1.550781 -8.144531 1.734375 -8.21875 1.953125 -8.21875 C 2.171875 -8.21875 2.351562 -8.144531 2.5 -8 C 2.644531 -7.851562 2.71875 -7.671875 2.71875 -7.453125 L 2.71875 -3.765625 C 2.71875 -2.953125 2.929688 -2.335938 3.359375 -1.921875 C 3.796875 -1.515625 4.375 -1.3125 5.09375 -1.3125 C 5.519531 -1.3125 5.90625 -1.394531 6.25 -1.5625 C 6.59375 -1.726562 6.859375 -1.957031 7.046875 -2.25 C 7.242188 -2.539062 7.34375 -2.863281 7.34375 -3.21875 L 7.34375 -7.453125 C 7.34375 -7.679688 7.414062 -7.863281 7.5625 -8 C 7.707031 -8.144531 7.890625 -8.21875 8.109375 -8.21875 Z M 5.171875 -9.5 C 4.941406 -9.5 4.753906 -9.570312 4.609375 -9.71875 C 4.472656 -9.863281 4.40625 -10.046875 4.40625 -10.265625 C 4.40625 -10.472656 4.460938 -10.640625 4.578125 -10.765625 L 6.046875 -12.234375 C 6.203125 -12.390625 6.382812 -12.46875 6.59375 -12.46875 C 6.8125 -12.46875 6.992188 -12.390625 7.140625 -12.234375 C 7.285156 -12.085938 7.359375 -11.90625 7.359375 -11.6875 C 7.359375 -11.46875 7.289062 -11.289062 7.15625 -11.15625 L 5.6875 -9.703125 C 5.550781 -9.566406 5.378906 -9.5 5.171875 -9.5 Z M 5.171875 -9.5 "/></g></g></g><g fill="#f4f6fc" fill-opacity="1"><g transform="translate(165.301643, 305.151981)"><g><path d="M 8.4375 -11.71875 C 8.664062 -11.71875 8.847656 -11.644531 8.984375 -11.5 C 9.117188 -11.363281 9.1875 -11.179688 9.1875 -10.953125 L 9.1875 -4.109375 C 9.1875 -3.328125 9.003906 -2.617188 8.640625 -1.984375 C 8.273438 -1.347656 7.78125 -0.847656 7.15625 -0.484375 C 6.53125 -0.117188 5.832031 0.0625 5.0625 0.0625 C 4.300781 0.0625 3.601562 -0.117188 2.96875 -0.484375 C 2.332031 -0.847656 1.832031 -1.347656 1.46875 -1.984375 C 1.113281 -2.617188 0.9375 -3.328125 0.9375 -4.109375 C 0.9375 -4.890625 1.101562 -5.597656 1.4375 -6.234375 C 1.769531 -6.867188 2.226562 -7.363281 2.8125 -7.71875 C 3.394531 -8.082031 4.046875 -8.265625 4.765625 -8.265625 C 5.347656 -8.265625 5.890625 -8.144531 6.390625 -7.90625 C 6.890625 -7.664062 7.316406 -7.332031 7.671875 -6.90625 L 7.671875 -10.953125 C 7.671875 -11.179688 7.738281 -11.363281 7.875 -11.5 C 8.019531 -11.644531 8.207031 -11.71875 8.4375 -11.71875 Z M 5.0625 -1.296875 C 5.5625 -1.296875 6.015625 -1.414062 6.421875 -1.65625 C 6.828125 -1.90625 7.144531 -2.242188 7.375 -2.671875 C 7.601562 -3.097656 7.71875 -3.578125 7.71875 -4.109375 C 7.71875 -4.640625 7.601562 -5.117188 7.375 -5.546875 C 7.144531 -5.972656 6.828125 -6.304688 6.421875 -6.546875 C 6.015625 -6.796875 5.5625 -6.921875 5.0625 -6.921875 C 4.5625 -6.921875 4.109375 -6.796875 3.703125 -6.546875 C 3.304688 -6.304688 2.988281 -5.972656 2.75 -5.546875 C 2.519531 -5.117188 2.40625 -4.640625 2.40625 -4.109375 C 2.40625 -3.578125 2.519531 -3.097656 2.75 -2.671875 C 2.988281 -2.242188 3.304688 -1.90625 3.703125 -1.65625 C 4.109375 -1.414062 4.5625 -1.296875 5.0625 -1.296875 Z M 5.0625 -1.296875 "/></g></g></g><g fill="#f4f6fc" fill-opacity="1"><g transform="translate(179.596629, 305.151981)"><g><path d="M 8.71875 -4.234375 C 8.71875 -4.035156 8.648438 -3.875 8.515625 -3.75 C 8.390625 -3.625 8.226562 -3.5625 8.03125 -3.5625 L 2.328125 -3.5625 C 2.429688 -2.863281 2.742188 -2.300781 3.265625 -1.875 C 3.796875 -1.445312 4.441406 -1.234375 5.203125 -1.234375 C 5.503906 -1.234375 5.816406 -1.285156 6.140625 -1.390625 C 6.460938 -1.503906 6.726562 -1.640625 6.9375 -1.796875 C 7.082031 -1.910156 7.25 -1.96875 7.4375 -1.96875 C 7.625 -1.96875 7.773438 -1.914062 7.890625 -1.8125 C 8.066406 -1.664062 8.15625 -1.5 8.15625 -1.3125 C 8.15625 -1.125 8.078125 -0.972656 7.921875 -0.859375 C 7.578125 -0.585938 7.148438 -0.363281 6.640625 -0.1875 C 6.140625 -0.0195312 5.660156 0.0625 5.203125 0.0625 C 4.378906 0.0625 3.644531 -0.113281 3 -0.46875 C 2.351562 -0.820312 1.847656 -1.3125 1.484375 -1.9375 C 1.117188 -2.570312 0.9375 -3.289062 0.9375 -4.09375 C 0.9375 -4.894531 1.109375 -5.613281 1.453125 -6.25 C 1.796875 -6.882812 2.273438 -7.378906 2.890625 -7.734375 C 3.503906 -8.085938 4.203125 -8.265625 4.984375 -8.265625 C 5.753906 -8.265625 6.414062 -8.09375 6.96875 -7.75 C 7.53125 -7.414062 7.960938 -6.941406 8.265625 -6.328125 C 8.566406 -5.722656 8.71875 -5.023438 8.71875 -4.234375 Z M 4.984375 -6.96875 C 4.253906 -6.96875 3.660156 -6.769531 3.203125 -6.375 C 2.742188 -5.976562 2.457031 -5.441406 2.34375 -4.765625 L 7.328125 -4.765625 C 7.242188 -5.441406 6.992188 -5.976562 6.578125 -6.375 C 6.171875 -6.769531 5.640625 -6.96875 4.984375 -6.96875 Z M 4.984375 -6.96875 "/></g></g></g><g fill="#f4f6fc" fill-opacity="1"><g transform="translate(192.661615, 305.151981)"><g/></g></g><g fill="#f4f6fc" fill-opacity="1"><g transform="translate(200.806615, 305.151981)"><g><path d="M 12.453125 -11.71875 C 12.671875 -11.71875 12.851562 -11.640625 13 -11.484375 C 13.15625 -11.335938 13.234375 -11.15625 13.234375 -10.9375 L 13.234375 -0.78125 C 13.234375 -0.5625 13.15625 -0.375 13 -0.21875 C 12.84375 -0.0703125 12.660156 0 12.453125 0 C 12.234375 0 12.046875 -0.0703125 11.890625 -0.21875 C 11.742188 -0.375 11.671875 -0.5625 11.671875 -0.78125 L 11.671875 -8.234375 L 8.046875 -0.84375 C 7.867188 -0.582031 7.640625 -0.453125 7.359375 -0.453125 C 7.035156 -0.453125 6.796875 -0.609375 6.640625 -0.921875 L 3.0625 -8.09375 L 3.0625 -0.78125 C 3.0625 -0.5625 2.984375 -0.375 2.828125 -0.21875 C 2.679688 -0.0703125 2.5 0 2.28125 0 C 2.0625 0 1.875 -0.0703125 1.71875 -0.21875 C 1.570312 -0.375 1.5 -0.5625 1.5 -0.78125 L 1.5 -10.9375 C 1.5 -11.15625 1.570312 -11.335938 1.71875 -11.484375 C 1.875 -11.640625 2.0625 -11.71875 2.28125 -11.71875 C 2.582031 -11.71875 2.8125 -11.578125 2.96875 -11.296875 L 7.421875 -2.375 L 11.765625 -11.296875 C 11.921875 -11.578125 12.148438 -11.71875 12.453125 -11.71875 Z M 12.453125 -11.71875 "/></g></g></g><g fill="#f4f6fc" fill-opacity="1"><g transform="translate(219.286602, 305.151981)"><g><path d="M 8.71875 -4.234375 C 8.71875 -4.035156 8.648438 -3.875 8.515625 -3.75 C 8.390625 -3.625 8.226562 -3.5625 8.03125 -3.5625 L 2.328125 -3.5625 C 2.429688 -2.863281 2.742188 -2.300781 3.265625 -1.875 C 3.796875 -1.445312 4.441406 -1.234375 5.203125 -1.234375 C 5.503906 -1.234375 5.816406 -1.285156 6.140625 -1.390625 C 6.460938 -1.503906 6.726562 -1.640625 6.9375 -1.796875 C 7.082031 -1.910156 7.25 -1.96875 7.4375 -1.96875 C 7.625 -1.96875 7.773438 -1.914062 7.890625 -1.8125 C 8.066406 -1.664062 8.15625 -1.5 8.15625 -1.3125 C 8.15625 -1.125 8.078125 -0.972656 7.921875 -0.859375 C 7.578125 -0.585938 7.148438 -0.363281 6.640625 -0.1875 C 6.140625 -0.0195312 5.660156 0.0625 5.203125 0.0625 C 4.378906 0.0625 3.644531 -0.113281 3 -0.46875 C 2.351562 -0.820312 1.847656 -1.3125 1.484375 -1.9375 C 1.117188 -2.570312 0.9375 -3.289062 0.9375 -4.09375 C 0.9375 -4.894531 1.109375 -5.613281 1.453125 -6.25 C 1.796875 -6.882812 2.273438 -7.378906 2.890625 -7.734375 C 3.503906 -8.085938 4.203125 -8.265625 4.984375 -8.265625 C 5.753906 -8.265625 6.414062 -8.09375 6.96875 -7.75 C 7.53125 -7.414062 7.960938 -6.941406 8.265625 -6.328125 C 8.566406 -5.722656 8.71875 -5.023438 8.71875 -4.234375 Z M 4.984375 -6.96875 C 4.253906 -6.96875 3.660156 -6.769531 3.203125 -6.375 C 2.742188 -5.976562 2.457031 -5.441406 2.34375 -4.765625 L 7.328125 -4.765625 C 7.242188 -5.441406 6.992188 -5.976562 6.578125 -6.375 C 6.171875 -6.769531 5.640625 -6.96875 4.984375 -6.96875 Z M 4.984375 -6.96875 "/></g></g></g><g fill="#f4f6fc" fill-opacity="1"><g transform="translate(232.351588, 305.151981)"><g><path d="M 5.4375 -8.28125 C 6.125 -8.28125 6.738281 -8.128906 7.28125 -7.828125 C 7.832031 -7.523438 8.265625 -7.085938 8.578125 -6.515625 C 8.890625 -5.941406 9.046875 -5.25 9.046875 -4.4375 L 9.046875 -0.75 C 9.046875 -0.53125 8.972656 -0.347656 8.828125 -0.203125 C 8.679688 -0.0546875 8.5 0.015625 8.28125 0.015625 C 8.0625 0.015625 7.878906 -0.0546875 7.734375 -0.203125 C 7.585938 -0.347656 7.515625 -0.53125 7.515625 -0.75 L 7.515625 -4.4375 C 7.515625 -5.25 7.296875 -5.863281 6.859375 -6.28125 C 6.421875 -6.695312 5.84375 -6.90625 5.125 -6.90625 C 4.707031 -6.90625 4.328125 -6.816406 3.984375 -6.640625 C 3.640625 -6.472656 3.367188 -6.242188 3.171875 -5.953125 C 2.972656 -5.660156 2.875 -5.335938 2.875 -4.984375 L 2.875 -0.75 C 2.875 -0.53125 2.800781 -0.347656 2.65625 -0.203125 C 2.519531 -0.0546875 2.335938 0.015625 2.109375 0.015625 C 1.890625 0.015625 1.707031 -0.0546875 1.5625 -0.203125 C 1.414062 -0.347656 1.34375 -0.53125 1.34375 -0.75 L 1.34375 -7.4375 C 1.34375 -7.664062 1.414062 -7.847656 1.5625 -7.984375 C 1.707031 -8.128906 1.890625 -8.203125 2.109375 -8.203125 C 2.335938 -8.203125 2.519531 -8.128906 2.65625 -7.984375 C 2.800781 -7.847656 2.875 -7.664062 2.875 -7.4375 L 2.875 -7.28125 C 3.195312 -7.59375 3.578125 -7.835938 4.015625 -8.015625 C 4.460938 -8.191406 4.9375 -8.28125 5.4375 -8.28125 Z M 5.4375 -8.28125 "/></g></g></g><g fill="#f4f6fc" fill-opacity="1"><g transform="translate(246.331575, 305.151981)"><g><path d="M 4.84375 -1.5 C 5.019531 -1.5 5.171875 -1.425781 5.296875 -1.28125 C 5.421875 -1.144531 5.484375 -0.96875 5.484375 -0.75 C 5.484375 -0.53125 5.398438 -0.347656 5.234375 -0.203125 C 5.078125 -0.0664062 4.867188 0 4.609375 0 L 4.328125 0 C 3.835938 0 3.390625 -0.125 2.984375 -0.375 C 2.585938 -0.632812 2.269531 -0.984375 2.03125 -1.421875 C 1.800781 -1.859375 1.6875 -2.351562 1.6875 -2.90625 L 1.6875 -6.609375 L 1 -6.609375 C 0.789062 -6.609375 0.617188 -6.664062 0.484375 -6.78125 C 0.359375 -6.90625 0.296875 -7.0625 0.296875 -7.25 C 0.296875 -7.445312 0.359375 -7.601562 0.484375 -7.71875 C 0.617188 -7.84375 0.789062 -7.90625 1 -7.90625 L 1.6875 -7.90625 L 1.6875 -10.0625 C 1.6875 -10.28125 1.753906 -10.457031 1.890625 -10.59375 C 2.035156 -10.738281 2.21875 -10.8125 2.4375 -10.8125 C 2.664062 -10.8125 2.847656 -10.738281 2.984375 -10.59375 C 3.117188 -10.457031 3.1875 -10.28125 3.1875 -10.0625 L 3.1875 -7.90625 L 4.46875 -7.90625 C 4.675781 -7.90625 4.84375 -7.84375 4.96875 -7.71875 C 5.101562 -7.601562 5.171875 -7.445312 5.171875 -7.25 C 5.171875 -7.0625 5.101562 -6.90625 4.96875 -6.78125 C 4.84375 -6.664062 4.675781 -6.609375 4.46875 -6.609375 L 3.1875 -6.609375 L 3.1875 -2.90625 C 3.1875 -2.507812 3.296875 -2.175781 3.515625 -1.90625 C 3.742188 -1.632812 4.015625 -1.5 4.328125 -1.5 Z M 4.84375 -1.5 "/></g></g></g><g fill="#f4f6fc" fill-opacity="1"><g transform="translate(256.096567, 305.151981)"><g><path d="M 5.0625 -8.265625 C 5.832031 -8.265625 6.53125 -8.082031 7.15625 -7.71875 C 7.78125 -7.351562 8.273438 -6.851562 8.640625 -6.21875 C 9.003906 -5.582031 9.1875 -4.875 9.1875 -4.09375 L 9.1875 -0.75 C 9.1875 -0.53125 9.113281 -0.347656 8.96875 -0.203125 C 8.832031 -0.0546875 8.65625 0.015625 8.4375 0.015625 C 8.207031 0.015625 8.019531 -0.0546875 7.875 -0.203125 C 7.738281 -0.347656 7.671875 -0.53125 7.671875 -0.75 L 7.671875 -1.3125 C 7.316406 -0.875 6.890625 -0.535156 6.390625 -0.296875 C 5.890625 -0.0546875 5.347656 0.0625 4.765625 0.0625 C 4.046875 0.0625 3.394531 -0.113281 2.8125 -0.46875 C 2.226562 -0.832031 1.769531 -1.332031 1.4375 -1.96875 C 1.101562 -2.601562 0.9375 -3.3125 0.9375 -4.09375 C 0.9375 -4.875 1.113281 -5.582031 1.46875 -6.21875 C 1.832031 -6.851562 2.332031 -7.351562 2.96875 -7.71875 C 3.601562 -8.082031 4.300781 -8.265625 5.0625 -8.265625 Z M 5.0625 -1.296875 C 5.5625 -1.296875 6.015625 -1.414062 6.421875 -1.65625 C 6.828125 -1.90625 7.144531 -2.238281 7.375 -2.65625 C 7.601562 -3.082031 7.71875 -3.5625 7.71875 -4.09375 C 7.71875 -4.625 7.601562 -5.101562 7.375 -5.53125 C 7.144531 -5.96875 6.828125 -6.304688 6.421875 -6.546875 C 6.015625 -6.796875 5.5625 -6.921875 5.0625 -6.921875 C 4.5625 -6.921875 4.109375 -6.796875 3.703125 -6.546875 C 3.304688 -6.304688 2.988281 -5.96875 2.75 -5.53125 C 2.519531 -5.101562 2.40625 -4.625 2.40625 -4.09375 C 2.40625 -3.5625 2.519531 -3.082031 2.75 -2.65625 C 2.988281 -2.238281 3.304688 -1.90625 3.703125 -1.65625 C 4.109375 -1.414062 4.5625 -1.296875 5.0625 -1.296875 Z M 5.0625 -1.296875 "/></g></g></g><g fill="#f4f6fc" fill-opacity="1"><g transform="translate(269.971554, 305.151981)"><g><path d="M 3.296875 0 C 2.867188 0 2.484375 -0.113281 2.140625 -0.34375 C 1.796875 -0.582031 1.523438 -0.914062 1.328125 -1.34375 C 1.140625 -1.769531 1.046875 -2.25 1.046875 -2.78125 L 1.046875 -10.96875 C 1.046875 -11.1875 1.113281 -11.363281 1.25 -11.5 C 1.394531 -11.644531 1.578125 -11.71875 1.796875 -11.71875 C 2.015625 -11.71875 2.191406 -11.644531 2.328125 -11.5 C 2.472656 -11.363281 2.546875 -11.1875 2.546875 -10.96875 L 2.546875 -2.78125 C 2.546875 -2.40625 2.613281 -2.097656 2.75 -1.859375 C 2.894531 -1.617188 3.078125 -1.5 3.296875 -1.5 L 3.671875 -1.5 C 3.867188 -1.5 4.03125 -1.425781 4.15625 -1.28125 C 4.28125 -1.144531 4.34375 -0.96875 4.34375 -0.75 C 4.34375 -0.53125 4.25 -0.347656 4.0625 -0.203125 C 3.875 -0.0664062 3.628906 0 3.328125 0 Z M 3.296875 0 "/></g></g></g><g clip-path="url(#3b6512aa76)"><g mask="url(#c851fff082)"><g transform="matrix(1, 0, 0, 1, 119, 82)"><g clip-path="url(#27176cc9a5)"><g clip-path="url(#0963865262)"><path fill="#fffefa" d="M 68.910156 101.550781 C 69.710938 102.789062 70.40625 104.183594 70.984375 105.726562 C 73.253906 111.769531 73.003906 117.945312 72.933594 119.125 C 72.699219 122.890625 71.800781 128.3125 68.835938 132.761719 C 68.535156 133.214844 68.214844 133.648438 67.886719 134.058594 C 67.933594 134.15625 67.980469 134.265625 68.027344 134.375 C 68.046875 134.421875 68.066406 134.464844 68.085938 134.515625 C 68.410156 135.292969 68.8125 136.476562 68.988281 137.894531 C 69.304688 140.425781 69.042969 145.171875 63.742188 148.476562 C 61.601562 149.8125 59.578125 150.28125 57.796875 150.28125 C 54.0625 150.28125 51.386719 148.222656 50.878906 147.800781 C 50.324219 147.375 47.28125 144.890625 45.964844 140.410156 C 45.140625 140.730469 44.28125 140.96875 43.390625 141.109375 C 42.578125 141.238281 41.773438 141.300781 40.988281 141.300781 C 37.605469 141.300781 34.507812 140.125 31.921875 137.835938 C 29.152344 135.394531 27.09375 131.734375 26.042969 127.554688 C 25.683594 127.679688 25.289062 127.792969 24.871094 127.886719 C 24.222656 128.03125 23.472656 128.132812 22.644531 128.132812 C 20.730469 128.132812 18.40625 127.585938 15.996094 125.753906 C 11.601562 122.410156 10.824219 117.933594 10.808594 115.234375 C 10.207031 115.042969 9.617188 114.792969 9.042969 114.484375 C 4.660156 112.101562 2.207031 106.820312 2.308594 99.988281 C 2.386719 94.597656 4.613281 89.761719 8.1875 86.625 C 6.746094 85.894531 5.417969 84.898438 4.253906 83.660156 C 1.617188 80.851562 0.128906 77.101562 0.0625 73.101562 C -0.0546875 66.183594 3.464844 58.855469 11.59375 58.09375 C 11.753906 58.078125 11.914062 58.070312 12.070312 58.058594 C 12.039062 57.996094 12.011719 57.933594 11.980469 57.871094 C 11.050781 55.796875 10.554688 53.558594 10.519531 51.230469 C 10.449219 46.972656 11.917969 42.941406 14.65625 39.875 C 17.390625 36.8125 21.074219 35.082031 25.015625 35.003906 C 25.210938 35.003906 25.402344 35.003906 25.59375 35.007812 C 25.472656 34.226562 25.40625 33.433594 25.390625 32.628906 C 25.320312 28.375 26.789062 24.34375 29.527344 21.277344 C 32.265625 18.214844 35.945312 16.484375 39.890625 16.40625 C 40.160156 16.402344 40.433594 16.40625 40.707031 16.417969 C 40.722656 13.195312 41.757812 10.0625 43.742188 7.371094 C 46.542969 3.5625 51.03125 1.046875 55.171875 0.96875 C 59.777344 0.875 63.984375 2.554688 67.011719 5.683594 C 67.777344 6.476562 68.457031 7.351562 69.054688 8.300781 C 70.992188 11.367188 72.035156 15.210938 72.109375 19.597656 C 72.207031 25.347656 70.617188 30.804688 67.640625 34.964844 C 66.148438 37.046875 64.394531 38.691406 62.464844 39.84375 C 67.152344 42.960938 70.265625 48.507812 70.371094 54.835938 C 70.445312 59.464844 69.195312 63.597656 66.753906 66.792969 C 66.4375 67.207031 66.109375 67.59375 65.777344 67.953125 C 68.542969 68.714844 71.09375 70.238281 73.203125 72.4375 C 76.40625 75.769531 78.210938 80.25 78.292969 85.050781 C 78.410156 92.125 74.703125 98.523438 68.914062 101.550781 Z M 68.910156 101.550781 " fill-opacity="1" fill-rule="nonzero"/></g></g></g></g></g><g mask="url(#af93207ada)"><g transform="matrix(1, 0, 0, 1, 181, 88)"><g clip-path="url(#86995c400f)"><g clip-path="url(#7feb47a360)"><path fill="#11ccf5" d="M 69.976562 41.535156 L 69.226562 83.261719 L 67.082031 83.894531 L 66.757812 106.609375 L 44.785156 132.992188 L 36.421875 132.992188 L 36.53125 135.65625 L 12.519531 135.191406 L 12.089844 128.816406 L 6.941406 128.515625 L 6.085938 128.515625 C 6.0625 128.464844 6.046875 128.421875 6.027344 128.375 C 5.980469 128.265625 5.933594 128.160156 5.882812 128.058594 C 6.214844 127.648438 6.53125 127.214844 6.835938 126.761719 C 9.796875 122.3125 10.699219 116.886719 10.929688 113.125 C 11.003906 111.945312 11.25 105.769531 8.984375 99.726562 C 8.40625 98.183594 7.710938 96.789062 6.910156 95.550781 C 12.703125 92.523438 16.40625 86.125 16.289062 79.050781 C 16.210938 74.25 14.402344 69.769531 11.199219 66.4375 C 9.089844 64.238281 6.542969 62.714844 3.773438 61.953125 C 4.109375 61.59375 4.433594 61.207031 4.753906 60.792969 C 7.195312 57.597656 8.445312 53.464844 8.367188 48.835938 C 8.261719 42.511719 5.152344 36.960938 0.460938 33.84375 C 2.390625 32.691406 4.144531 31.050781 5.636719 28.964844 C 8.617188 24.804688 10.203125 19.347656 10.109375 13.597656 C 10.035156 9.210938 8.988281 5.367188 7.050781 2.300781 L 8.453125 0.855469 L 37.621094 0.855469 L 40.601562 4.007812 L 46.28125 5.25 L 61.289062 21.902344 L 61.289062 40.285156 L 69.972656 41.535156 Z M 69.976562 41.535156 " fill-opacity="1" fill-rule="nonzero"/></g></g></g></g><path fill="#11ccf5" d="M 200.796875 163.175781 C 199.859375 163.175781 199.054688 163.757812 198.667969 164.605469 L 184.175781 164.605469 C 183.789062 163.757812 182.980469 163.175781 182.046875 163.175781 C 180.734375 163.175781 179.667969 164.324219 179.667969 165.738281 C 179.667969 167.15625 180.730469 168.304688 182.046875 168.304688 C 182.980469 168.304688 183.789062 167.71875 184.175781 166.871094 L 198.667969 166.871094 C 199.054688 167.71875 199.859375 168.304688 200.796875 168.304688 C 202.109375 168.304688 203.171875 167.15625 203.171875 165.738281 C 203.171875 164.324219 202.109375 163.175781 200.796875 163.175781 Z M 200.796875 163.175781 " fill-opacity="1" fill-rule="nonzero"/><path fill="#11ccf5" d="M 196.507812 204.949219 C 197.820312 204.949219 198.886719 203.800781 198.886719 202.386719 C 198.886719 200.96875 197.824219 199.820312 196.507812 199.820312 C 196.433594 199.820312 196.359375 199.824219 196.285156 199.832031 L 192.109375 194.042969 L 184.175781 194.042969 C 183.789062 193.195312 182.984375 192.609375 182.046875 192.609375 C 180.734375 192.609375 179.671875 193.757812 179.671875 195.175781 C 179.671875 196.589844 180.734375 197.738281 182.046875 197.738281 C 182.984375 197.738281 183.789062 197.15625 184.175781 196.308594 L 191.082031 196.308594 L 194.492188 201.035156 C 194.269531 201.425781 194.132812 201.886719 194.132812 202.386719 C 194.132812 203.800781 195.199219 204.949219 196.511719 204.949219 Z M 196.507812 204.949219 " fill-opacity="1" fill-rule="nonzero"/><path fill="#11ccf5" d="M 201.695312 194.023438 L 207.882812 194.023438 L 212.84375 199.378906 L 221.582031 199.378906 L 226.835938 193.707031 L 226.835938 190.890625 L 232.679688 190.890625 L 232.679688 175.433594 L 223.371094 175.433594 L 218.894531 180.265625 L 218.894531 181.734375 L 213.007812 181.734375 L 208.050781 187.089844 L 198.351562 187.089844 C 197.964844 186.242188 197.15625 185.65625 196.222656 185.65625 C 194.910156 185.65625 193.84375 186.804688 193.84375 188.222656 C 193.84375 189.636719 194.90625 190.785156 196.222656 190.785156 C 197.15625 190.785156 197.964844 190.203125 198.351562 189.355469 L 208.917969 189.355469 L 213.878906 184 L 218.894531 184 L 218.894531 190.890625 L 224.738281 190.890625 L 224.738281 192.765625 L 220.710938 197.113281 L 213.714844 197.113281 L 208.753906 191.757812 L 201.4375 191.757812 C 201.011719 191.066406 200.28125 190.613281 199.457031 190.613281 C 198.144531 190.613281 197.082031 191.761719 197.082031 193.175781 C 197.082031 194.59375 198.144531 195.742188 199.457031 195.742188 C 200.492188 195.742188 201.375 195.023438 201.695312 194.023438 Z M 220.992188 181.203125 L 224.242188 177.699219 L 230.582031 177.699219 L 230.582031 188.625 L 220.992188 188.625 Z M 220.992188 181.203125 " fill-opacity="1" fill-rule="nonzero"/><path fill="#11ccf5" d="M 204.992188 175.714844 C 206.304688 175.714844 207.371094 174.566406 207.371094 173.148438 C 207.371094 171.734375 206.308594 170.582031 204.992188 170.582031 C 204.058594 170.582031 203.25 171.167969 202.863281 172.015625 L 184.175781 172.015625 C 183.789062 171.167969 182.980469 170.582031 182.046875 170.582031 C 180.734375 170.582031 179.667969 171.734375 179.667969 173.148438 C 179.667969 174.566406 180.730469 175.714844 182.046875 175.714844 C 182.980469 175.714844 183.789062 175.128906 184.175781 174.28125 L 202.863281 174.28125 C 203.25 175.128906 204.058594 175.714844 204.992188 175.714844 Z M 204.992188 175.714844 " fill-opacity="1" fill-rule="nonzero"/><path fill="#11ccf5" d="M 182.515625 142.808594 L 191.703125 142.808594 C 192.089844 143.65625 192.894531 144.242188 193.832031 144.242188 C 195.144531 144.242188 196.207031 143.09375 196.207031 141.675781 C 196.207031 140.257812 195.144531 139.109375 193.832031 139.109375 C 192.894531 139.109375 192.089844 139.695312 191.703125 140.542969 L 182.515625 140.542969 C 182.125 139.695312 181.320312 139.109375 180.382812 139.109375 C 179.074219 139.109375 178.007812 140.257812 178.007812 141.675781 C 178.007812 143.09375 179.070312 144.242188 180.382812 144.242188 C 181.320312 144.242188 182.125 143.65625 182.515625 142.808594 Z M 182.515625 142.808594 " fill-opacity="1" fill-rule="nonzero"/><path fill="#11ccf5" d="M 179.738281 112.144531 L 190.144531 112.144531 L 197.058594 102.527344 L 201.292969 102.527344 C 201.679688 103.375 202.488281 103.960938 203.421875 103.960938 C 204.734375 103.960938 205.800781 102.8125 205.800781 101.394531 C 205.800781 99.980469 204.738281 98.832031 203.421875 98.832031 C 202.488281 98.832031 201.679688 99.414062 201.292969 100.261719 L 196.03125 100.261719 L 189.117188 109.878906 L 180.148438 109.878906 C 179.867188 108.800781 178.953125 108.007812 177.863281 108.007812 C 176.550781 108.007812 175.488281 109.15625 175.488281 110.574219 C 175.488281 111.992188 176.550781 113.140625 177.863281 113.140625 C 178.628906 113.140625 179.304688 112.75 179.738281 112.144531 Z M 179.738281 112.144531 " fill-opacity="1" fill-rule="nonzero"/><path fill="#11ccf5" d="M 237.996094 133.015625 L 246.585938 133.015625 L 246.585938 167.296875 L 237.996094 167.296875 Z M 237.996094 133.015625 " fill-opacity="1" fill-rule="nonzero"/><path fill="#11ccf5" d="M 253.570312 132.910156 L 253.570312 131.777344 L 255.933594 131.777344 L 255.933594 129.511719 L 253.570312 129.511719 L 253.570312 128.378906 L 251.351562 128.378906 L 251.351562 127.546875 L 243.339844 127.546875 L 243.339844 109.328125 L 227.773438 92.015625 L 222.3125 91.472656 L 219.148438 87.703125 L 188.78125 87.703125 L 182.847656 95.320312 L 180.378906 95.28125 C 180.050781 94.292969 179.175781 93.585938 178.148438 93.585938 C 176.835938 93.585938 175.769531 94.734375 175.769531 96.148438 C 175.769531 97.566406 176.832031 98.714844 178.148438 98.714844 C 178.984375 98.714844 179.71875 98.25 180.140625 97.542969 L 183.808594 97.605469 L 189.757812 89.972656 L 218.21875 89.972656 L 221.304688 93.648438 L 226.804688 94.195312 L 241.238281 110.246094 L 241.238281 127.550781 L 237.992188 127.550781 L 238.164062 112.484375 L 225.230469 98.171875 L 219.941406 98.171875 L 216.136719 92.859375 L 193.226562 92.859375 L 185.546875 102.578125 L 180.160156 102.578125 C 179.894531 101.472656 178.96875 100.65625 177.863281 100.65625 C 176.550781 100.65625 175.484375 101.804688 175.484375 103.222656 C 175.484375 104.640625 176.546875 105.789062 177.863281 105.789062 C 178.605469 105.789062 179.265625 105.421875 179.703125 104.847656 L 186.511719 104.847656 L 194.195312 95.128906 L 215.109375 95.128906 L 218.914062 100.4375 L 224.34375 100.4375 L 236.054688 113.398438 L 235.894531 127.550781 L 233.230469 127.550781 L 233.230469 128.382812 L 231.007812 128.382812 L 231.007812 129.515625 L 215.28125 129.515625 L 206.355469 119.882812 L 191.554688 119.882812 L 181.269531 130.980469 C 180.996094 130.863281 180.699219 130.796875 180.382812 130.796875 C 179.074219 130.796875 178.007812 131.945312 178.007812 133.359375 C 178.007812 134.777344 179.070312 135.925781 180.382812 135.925781 C 181.699219 135.925781 182.761719 134.777344 182.761719 133.359375 C 182.761719 133.121094 182.726562 132.890625 182.671875 132.671875 L 192.421875 122.148438 L 205.484375 122.148438 L 214.410156 131.78125 L 231.007812 131.78125 L 231.007812 132.914062 L 233.226562 132.914062 L 233.226562 136.109375 L 231.007812 136.109375 L 231.007812 137.242188 L 212.476562 137.242188 L 207.519531 131.886719 L 196.949219 131.886719 C 196.5625 131.039062 195.753906 130.453125 194.820312 130.453125 C 193.507812 130.453125 192.445312 131.601562 192.445312 133.019531 C 192.445312 134.4375 193.507812 135.585938 194.820312 135.585938 C 195.753906 135.585938 196.5625 135 196.949219 134.152344 L 206.648438 134.152344 L 211.609375 139.507812 L 231.007812 139.507812 L 231.007812 140.640625 L 233.226562 140.640625 L 233.226562 143.832031 L 231.007812 143.832031 L 231.007812 144.964844 L 209.679688 144.964844 L 204.71875 139.613281 L 202.078125 139.613281 C 201.6875 138.765625 200.882812 138.179688 199.945312 138.179688 C 198.636719 138.179688 197.570312 139.328125 197.570312 140.746094 C 197.570312 142.160156 198.632812 143.308594 199.945312 143.308594 C 200.882812 143.308594 201.6875 142.726562 202.078125 141.878906 L 203.847656 141.878906 L 208.808594 147.230469 L 231.007812 147.230469 L 231.007812 148.363281 L 233.226562 148.363281 L 233.226562 151.558594 L 231.007812 151.558594 L 231.007812 152.332031 L 206.039062 152.332031 L 206.039062 149.171875 L 204.449219 149.171875 L 204.449219 146.667969 L 202.347656 146.667969 L 202.347656 149.171875 L 200.882812 149.171875 L 200.882812 146.667969 L 198.785156 146.667969 L 198.785156 149.171875 L 197.683594 149.171875 L 197.683594 150.371094 L 195.449219 150.371094 L 195.449219 152.636719 L 197.683594 152.636719 L 197.683594 154.21875 L 195.449219 154.21875 L 195.449219 156.484375 L 197.683594 156.484375 L 197.683594 157.761719 L 198.785156 157.761719 L 198.785156 160.15625 L 200.882812 160.15625 L 200.882812 157.761719 L 202.347656 157.761719 L 202.347656 160.15625 L 204.449219 160.15625 L 204.449219 157.761719 L 206.039062 157.761719 L 206.039062 154.597656 L 231.007812 154.597656 L 231.007812 156.089844 L 233.226562 156.089844 L 233.226562 159.28125 L 231.007812 159.28125 L 231.007812 160.535156 L 216.648438 160.535156 L 211.6875 165.890625 L 209.914062 165.890625 C 209.527344 165.042969 208.71875 164.457031 207.785156 164.457031 C 206.472656 164.457031 205.410156 165.605469 205.410156 167.023438 C 205.410156 168.4375 206.472656 169.585938 207.785156 169.585938 C 208.71875 169.585938 209.527344 169.003906 209.914062 168.15625 L 212.554688 168.15625 L 217.515625 162.800781 L 231.007812 162.800781 L 231.007812 163.8125 L 233.226562 163.8125 L 233.226562 167.007812 L 231.007812 167.007812 L 231.007812 168.140625 L 220.105469 168.140625 L 209.730469 179.363281 L 202.921875 179.363281 C 202.535156 178.515625 201.730469 177.929688 200.792969 177.929688 C 199.480469 177.929688 198.417969 179.078125 198.417969 180.496094 C 198.417969 181.914062 199.480469 183.0625 200.792969 183.0625 C 201.730469 183.0625 202.535156 182.476562 202.921875 181.628906 L 210.601562 181.628906 L 220.976562 170.40625 L 231.007812 170.40625 L 231.007812 171.539062 L 233.226562 171.539062 L 233.226562 172.765625 L 235.871094 172.765625 L 235.871094 190.386719 L 226.621094 201.175781 L 221.757812 201.175781 L 219.957031 203.324219 L 211.214844 203.324219 L 205.828125 197.507812 L 204.539062 197.507812 C 204.167969 196.617188 203.339844 195.992188 202.371094 195.992188 C 201.0625 195.992188 199.996094 197.140625 199.996094 198.558594 C 199.996094 199.976562 201.058594 201.125 202.371094 201.125 C 203.277344 201.125 204.0625 200.578125 204.464844 199.773438 L 204.957031 199.773438 L 210.34375 205.589844 L 220.886719 205.589844 L 222.6875 203.441406 L 227.539062 203.441406 L 237.96875 191.273438 L 237.96875 172.765625 L 241.234375 172.765625 L 241.234375 192.632812 L 221.386719 215.664062 L 218.617188 215.664062 L 218.617188 208.992188 L 217.285156 208.992188 L 217.285156 207.402344 L 215.1875 207.402344 L 215.1875 208.992188 L 212.925781 208.992188 L 212.925781 207.402344 L 210.828125 207.402344 L 210.828125 208.992188 L 208.570312 208.992188 L 208.570312 207.402344 L 206.46875 207.402344 L 206.46875 208.992188 L 204.210938 208.992188 L 204.210938 207.402344 L 202.109375 207.402344 L 202.109375 208.992188 L 199.851562 208.992188 L 199.851562 207.402344 L 197.75 207.402344 L 197.75 208.992188 L 195.492188 208.992188 L 195.492188 207.402344 L 193.394531 207.402344 L 193.394531 208.992188 L 192.285156 208.992188 L 192.285156 215.6875 L 188.855469 215.6875 L 183.945312 205.46875 C 184.238281 205.042969 184.410156 204.519531 184.410156 203.949219 C 184.410156 202.53125 183.347656 201.382812 182.035156 201.382812 C 180.722656 201.382812 179.65625 202.53125 179.65625 203.949219 C 179.65625 205.367188 180.722656 206.515625 182.035156 206.515625 C 182.050781 206.515625 182.066406 206.511719 182.082031 206.511719 L 187.578125 217.957031 L 192.285156 217.957031 L 192.285156 224.601562 L 193.390625 224.601562 L 193.390625 226.191406 L 195.492188 226.191406 L 195.492188 224.601562 L 197.75 224.601562 L 197.75 226.191406 L 199.851562 226.191406 L 199.851562 224.601562 L 202.109375 224.601562 L 202.109375 226.191406 L 204.207031 226.191406 L 204.207031 224.601562 L 206.46875 224.601562 L 206.46875 226.191406 L 208.566406 226.191406 L 208.566406 224.601562 L 210.824219 224.601562 L 210.824219 226.191406 L 212.925781 226.191406 L 212.925781 224.601562 L 215.183594 224.601562 L 215.183594 226.191406 L 217.285156 226.191406 L 217.285156 224.601562 L 218.613281 224.601562 L 218.613281 222.179688 L 225.691406 222.179688 L 248.878906 195.625 L 248.878906 172.765625 L 251.34375 172.765625 L 251.34375 171.539062 L 253.566406 171.539062 L 253.566406 170.40625 L 255.925781 170.40625 L 255.925781 168.140625 L 253.566406 168.140625 L 253.566406 167.007812 L 251.34375 167.007812 L 251.34375 163.8125 L 253.566406 163.8125 L 253.566406 162.679688 L 255.925781 162.679688 L 255.925781 160.414062 L 253.566406 160.414062 L 253.566406 159.28125 L 251.34375 159.28125 L 251.34375 156.089844 L 253.566406 156.089844 L 253.566406 154.957031 L 255.925781 154.957031 L 255.925781 152.691406 L 253.566406 152.691406 L 253.566406 151.558594 L 251.34375 151.558594 L 251.34375 148.363281 L 253.566406 148.363281 L 253.566406 147.230469 L 255.925781 147.230469 L 255.925781 144.964844 L 253.566406 144.964844 L 253.566406 143.832031 L 251.34375 143.832031 L 251.34375 140.640625 L 253.566406 140.640625 L 253.566406 139.507812 L 255.925781 139.507812 L 255.925781 137.242188 L 253.566406 137.242188 L 253.566406 136.109375 L 251.34375 136.109375 L 251.34375 132.914062 L 253.566406 132.914062 Z M 203.941406 155.492188 L 199.789062 155.492188 L 199.789062 151.4375 L 203.941406 151.4375 Z M 207.117188 215.757812 C 207.503906 216.515625 208.246094 217.027344 209.105469 217.027344 C 210.355469 217.027344 211.371094 215.933594 211.371094 214.578125 C 211.371094 213.226562 210.355469 212.128906 209.105469 212.128906 C 208.210938 212.128906 207.441406 212.6875 207.070312 213.492188 L 198.261719 213.492188 L 196.417969 215.6875 L 194.394531 215.6875 L 194.394531 211.257812 L 216.523438 211.257812 L 216.523438 215.664062 L 214.875 215.664062 L 212.460938 218.542969 L 203.324219 218.542969 C 203.035156 217.546875 202.175781 216.824219 201.15625 216.824219 C 199.902344 216.824219 198.886719 217.917969 198.886719 219.273438 C 198.886719 220.625 199.902344 221.722656 201.15625 221.722656 C 201.867188 221.722656 202.503906 221.367188 202.921875 220.808594 L 213.390625 220.808594 L 215.808594 217.929688 L 216.523438 217.929688 L 216.523438 222.335938 L 194.394531 222.335938 L 194.394531 217.957031 L 197.347656 217.957031 L 199.191406 215.761719 L 207.113281 215.761719 Z M 246.789062 194.722656 L 224.796875 219.910156 L 218.621094 219.910156 L 218.621094 217.929688 L 222.308594 217.929688 L 243.34375 193.519531 L 243.34375 172.761719 L 246.789062 172.761719 Z M 249.253906 170.5 L 235.328125 170.5 L 235.328125 129.8125 L 249.253906 129.8125 Z M 249.253906 170.5 " fill-opacity="1" fill-rule="nonzero"/><path fill="#11ccf5" d="M 225.785156 179.578125 C 223.78125 179.578125 222.148438 181.339844 222.148438 183.503906 C 222.148438 185.671875 223.78125 187.433594 225.785156 187.433594 C 227.792969 187.433594 229.425781 185.671875 229.425781 183.503906 C 229.425781 181.339844 227.792969 179.578125 225.785156 179.578125 Z M 225.785156 185.164062 C 224.9375 185.164062 224.246094 184.421875 224.246094 183.503906 C 224.246094 182.589844 224.9375 181.84375 225.785156 181.84375 C 226.636719 181.84375 227.324219 182.589844 227.324219 183.503906 C 227.324219 184.421875 226.636719 185.164062 225.785156 185.164062 Z M 225.785156 185.164062 " fill-opacity="1" fill-rule="nonzero"/><path fill="#11ccf5" d="M 220.042969 102.226562 L 211.304688 102.226562 L 206.34375 107.582031 L 201.695312 107.582031 C 201.371094 106.582031 200.492188 105.863281 199.457031 105.863281 C 198.144531 105.863281 197.082031 107.011719 197.082031 108.429688 C 197.082031 109.847656 198.144531 110.996094 199.457031 110.996094 C 200.28125 110.996094 201.011719 110.539062 201.4375 109.847656 L 207.214844 109.847656 L 212.175781 104.492188 L 219.171875 104.492188 L 223.199219 108.839844 L 223.199219 110.714844 L 217.355469 110.714844 L 217.355469 117.605469 L 212.339844 117.605469 L 207.378906 112.253906 L 198.351562 112.253906 C 197.964844 111.40625 197.15625 110.820312 196.222656 110.820312 C 194.910156 110.820312 193.84375 111.96875 193.84375 113.386719 C 193.84375 114.800781 194.90625 115.949219 196.222656 115.949219 C 197.15625 115.949219 197.964844 115.367188 198.351562 114.519531 L 206.511719 114.519531 L 211.46875 119.871094 L 217.355469 119.871094 L 217.355469 121.339844 L 221.832031 126.171875 L 231.140625 126.171875 L 231.140625 114.308594 L 227.8125 110.714844 L 225.296875 110.714844 L 225.296875 107.902344 Z M 229.042969 115.246094 L 229.042969 123.90625 L 222.703125 123.90625 L 219.453125 120.402344 L 219.453125 112.980469 L 226.945312 112.980469 Z M 229.042969 115.246094 " fill-opacity="1" fill-rule="nonzero"/><path fill="#11ccf5" d="M 224.246094 122.03125 C 226.253906 122.03125 227.886719 120.269531 227.886719 118.105469 C 227.886719 115.941406 226.253906 114.175781 224.246094 114.175781 C 222.242188 114.175781 220.609375 115.9375 220.609375 118.105469 C 220.609375 120.269531 222.242188 122.03125 224.246094 122.03125 Z M 224.246094 116.441406 C 225.097656 116.441406 225.785156 117.1875 225.785156 118.101562 C 225.785156 119.019531 225.097656 119.765625 224.246094 119.765625 C 223.398438 119.765625 222.707031 119.019531 222.707031 118.101562 C 222.707031 117.1875 223.398438 116.441406 224.246094 116.441406 Z M 224.246094 116.441406 " fill-opacity="1" fill-rule="nonzero"/><path fill="#fffefa" d="M 152.367188 150.804688 C 152.367188 151.496094 151.847656 152.058594 151.207031 152.058594 C 150.570312 152.058594 150.046875 151.496094 150.046875 150.804688 C 150.046875 150.117188 150.566406 149.554688 151.207031 149.554688 C 151.847656 149.554688 152.367188 150.113281 152.367188 150.804688 Z M 152.367188 150.804688 " fill-opacity="1" fill-rule="nonzero"/><path fill="#fffefa" d="M 138.949219 131.464844 C 138.949219 132.15625 138.429688 132.714844 137.789062 132.714844 C 137.148438 132.714844 136.632812 132.15625 136.632812 131.464844 C 136.632812 130.773438 137.152344 130.214844 137.789062 130.214844 C 138.429688 130.214844 138.949219 130.773438 138.949219 131.464844 Z M 138.949219 131.464844 " fill-opacity="1" fill-rule="nonzero"/><path fill="#fffefa" d="M 148.941406 127.714844 C 148.941406 128.40625 148.421875 128.964844 147.78125 128.964844 C 147.144531 128.964844 146.621094 128.40625 146.621094 127.714844 C 146.621094 127.023438 147.140625 126.460938 147.78125 126.460938 C 148.421875 126.460938 148.941406 127.023438 148.941406 127.714844 Z M 148.941406 127.714844 " fill-opacity="1" fill-rule="nonzero"/><path fill="#fffefa" d="M 150.0625 161.644531 C 149.902344 162.3125 149.269531 162.714844 148.648438 162.539062 C 148.027344 162.363281 147.65625 161.679688 147.816406 161.011719 C 147.980469 160.34375 148.613281 159.941406 149.234375 160.113281 C 149.855469 160.289062 150.226562 160.972656 150.0625 161.644531 Z M 150.0625 161.644531 " fill-opacity="1" fill-rule="nonzero"/><path fill="#fffefa" d="M 132.550781 150.3125 C 132.386719 150.980469 131.753906 151.382812 131.132812 151.207031 C 130.511719 151.03125 130.144531 150.347656 130.304688 149.679688 C 130.464844 149.011719 131.097656 148.609375 131.71875 148.78125 C 132.339844 148.957031 132.710938 149.640625 132.550781 150.3125 Z M 132.550781 150.3125 " fill-opacity="1" fill-rule="nonzero"/><path fill="#fffefa" d="M 165.90625 156.277344 C 165.90625 156.445312 165.878906 156.601562 165.820312 156.757812 C 165.761719 156.910156 165.675781 157.046875 165.566406 157.164062 C 165.460938 157.28125 165.332031 157.371094 165.191406 157.433594 C 165.050781 157.496094 164.902344 157.53125 164.746094 157.53125 C 164.59375 157.53125 164.445312 157.496094 164.304688 157.433594 C 164.160156 157.371094 164.035156 157.28125 163.929688 157.164062 C 163.820312 157.046875 163.734375 156.910156 163.675781 156.757812 C 163.617188 156.601562 163.589844 156.445312 163.589844 156.277344 C 163.589844 156.113281 163.617188 155.953125 163.675781 155.796875 C 163.734375 155.644531 163.820312 155.507812 163.929688 155.390625 C 164.035156 155.273438 164.160156 155.183594 164.304688 155.121094 C 164.445312 155.058594 164.59375 155.027344 164.746094 155.027344 C 164.902344 155.027344 165.050781 155.058594 165.191406 155.121094 C 165.332031 155.183594 165.460938 155.273438 165.566406 155.390625 C 165.675781 155.507812 165.761719 155.644531 165.820312 155.796875 C 165.878906 155.953125 165.90625 156.113281 165.90625 156.277344 Z M 165.90625 156.277344 " fill-opacity="1" fill-rule="nonzero"/><path fill="#fffefa" d="M 149.09375 185.222656 C 149.09375 185.914062 148.574219 186.472656 147.9375 186.472656 C 147.296875 186.472656 146.777344 185.914062 146.777344 185.222656 C 146.777344 184.53125 147.296875 183.96875 147.9375 183.96875 C 148.574219 183.96875 149.09375 184.53125 149.09375 185.222656 Z M 149.09375 185.222656 " fill-opacity="1" fill-rule="nonzero"/><path fill="#fffefa" d="M 144 176.960938 C 144 177.652344 143.480469 178.214844 142.84375 178.214844 C 142.203125 178.214844 141.683594 177.652344 141.683594 176.960938 C 141.683594 176.269531 142.203125 175.710938 142.84375 175.710938 C 143.480469 175.710938 144 176.269531 144 176.960938 Z M 144 176.960938 " fill-opacity="1" fill-rule="nonzero"/><path fill="#fffefa" d="M 135.375 178.722656 C 135.375 178.890625 135.34375 179.050781 135.285156 179.203125 C 135.226562 179.355469 135.144531 179.492188 135.035156 179.609375 C 134.925781 179.726562 134.800781 179.816406 134.660156 179.878906 C 134.515625 179.945312 134.367188 179.976562 134.214844 179.976562 C 134.0625 179.976562 133.914062 179.945312 133.769531 179.878906 C 133.628906 179.816406 133.503906 179.726562 133.394531 179.609375 C 133.285156 179.492188 133.203125 179.355469 133.144531 179.203125 C 133.082031 179.050781 133.054688 178.890625 133.054688 178.722656 C 133.054688 178.558594 133.082031 178.398438 133.144531 178.242188 C 133.203125 178.089844 133.285156 177.953125 133.394531 177.835938 C 133.503906 177.71875 133.628906 177.628906 133.769531 177.566406 C 133.914062 177.503906 134.0625 177.472656 134.214844 177.472656 C 134.367188 177.472656 134.515625 177.503906 134.660156 177.566406 C 134.800781 177.628906 134.925781 177.71875 135.035156 177.835938 C 135.144531 177.957031 135.226562 178.089844 135.285156 178.242188 C 135.34375 178.398438 135.375 178.558594 135.375 178.722656 Z M 135.375 178.722656 " fill-opacity="1" fill-rule="nonzero"/><path fill="#fffefa" d="M 130.835938 158.933594 C 130.835938 159.625 130.316406 160.1875 129.679688 160.1875 C 129.039062 160.1875 128.519531 159.625 128.519531 158.933594 C 128.519531 158.242188 129.039062 157.683594 129.679688 157.683594 C 130.320312 157.683594 130.835938 158.242188 130.835938 158.933594 Z M 130.835938 158.933594 " fill-opacity="1" fill-rule="nonzero"/><path fill="#fffefa" d="M 135.375 187.722656 C 135.375 188.414062 134.855469 188.976562 134.214844 188.976562 C 133.574219 188.976562 133.054688 188.414062 133.054688 187.722656 C 133.054688 187.03125 133.574219 186.472656 134.214844 186.472656 C 134.855469 186.472656 135.375 187.035156 135.375 187.722656 Z M 135.375 187.722656 " fill-opacity="1" fill-rule="nonzero"/><path fill="#fffefa" d="M 155.183594 196.214844 C 154.542969 196.214844 154.023438 196.777344 154.023438 197.46875 C 154.023438 198.160156 154.542969 198.722656 155.183594 198.722656 C 155.824219 198.722656 156.34375 198.160156 156.34375 197.46875 C 156.34375 196.777344 155.824219 196.214844 155.183594 196.214844 Z M 155.183594 196.214844 " fill-opacity="1" fill-rule="nonzero"/><path fill="#fffefa" d="M 164.984375 211.371094 C 164.984375 210.679688 164.464844 210.117188 163.824219 210.117188 C 163.183594 210.117188 162.664062 210.679688 162.664062 211.371094 C 162.664062 212.0625 163.183594 212.621094 163.824219 212.621094 C 164.464844 212.621094 164.984375 212.0625 164.984375 211.371094 Z M 164.984375 211.371094 " fill-opacity="1" fill-rule="nonzero"/><path fill="#fffefa" d="M 155.183594 209.316406 C 154.542969 209.316406 154.023438 209.875 154.023438 210.566406 C 154.023438 211.257812 154.542969 211.820312 155.183594 211.820312 C 155.824219 211.820312 156.34375 211.257812 156.34375 210.566406 C 156.34375 209.875 155.824219 209.316406 155.183594 209.316406 Z M 155.183594 209.316406 " fill-opacity="1" fill-rule="nonzero"/><path fill="#fffefa" d="M 162.925781 192.066406 C 162.925781 192.234375 162.894531 192.394531 162.835938 192.546875 C 162.777344 192.699219 162.695312 192.835938 162.585938 192.953125 C 162.476562 193.070312 162.351562 193.160156 162.210938 193.226562 C 162.066406 193.289062 161.917969 193.320312 161.765625 193.320312 C 161.613281 193.320312 161.464844 193.289062 161.320312 193.226562 C 161.179688 193.160156 161.054688 193.070312 160.945312 192.953125 C 160.835938 192.835938 160.753906 192.699219 160.695312 192.546875 C 160.632812 192.394531 160.605469 192.234375 160.605469 192.066406 C 160.605469 191.902344 160.632812 191.742188 160.695312 191.589844 C 160.753906 191.4375 160.835938 191.300781 160.945312 191.183594 C 161.054688 191.066406 161.179688 190.976562 161.320312 190.910156 C 161.464844 190.847656 161.613281 190.816406 161.765625 190.816406 C 161.917969 190.816406 162.066406 190.847656 162.210938 190.910156 C 162.351562 190.976562 162.476562 191.066406 162.585938 191.183594 C 162.695312 191.300781 162.777344 191.4375 162.835938 191.589844 C 162.894531 191.742188 162.925781 191.902344 162.925781 192.066406 Z M 162.925781 192.066406 " fill-opacity="1" fill-rule="nonzero"/><path fill="#fffefa" d="M 176.980469 211.816406 C 176.980469 212.507812 177.5 213.070312 178.136719 213.070312 C 178.777344 213.070312 179.296875 212.507812 179.296875 211.816406 C 179.296875 211.125 178.777344 210.566406 178.136719 210.566406 C 177.5 210.566406 176.980469 211.125 176.980469 211.816406 Z M 176.980469 211.816406 " fill-opacity="1" fill-rule="nonzero"/><path fill="#fffefa" d="M 174.027344 201.128906 C 174.027344 201.820312 174.546875 202.382812 175.1875 202.382812 C 175.824219 202.382812 176.34375 201.820312 176.34375 201.128906 C 176.34375 200.4375 175.824219 199.875 175.1875 199.875 C 174.546875 199.875 174.027344 200.4375 174.027344 201.128906 Z M 174.027344 201.128906 " fill-opacity="1" fill-rule="nonzero"/><path fill="#fffefa" d="M 167.363281 171.894531 C 166.722656 171.894531 166.203125 172.453125 166.203125 173.144531 C 166.203125 173.835938 166.722656 174.398438 167.363281 174.398438 C 168.003906 174.398438 168.523438 173.835938 168.523438 173.144531 C 168.523438 172.453125 168.003906 171.894531 167.363281 171.894531 Z M 167.363281 171.894531 " fill-opacity="1" fill-rule="nonzero"/><path fill="#fffefa" d="M 169.679688 184.113281 C 170.320312 184.113281 170.839844 183.554688 170.839844 182.863281 C 170.839844 182.171875 170.320312 181.609375 169.679688 181.609375 C 169.042969 181.609375 168.523438 182.171875 168.523438 182.863281 C 168.523438 183.554688 169.042969 184.113281 169.679688 184.113281 Z M 169.679688 184.113281 " fill-opacity="1" fill-rule="nonzero"/><path fill="#fffefa" d="M 157.015625 175.710938 C 157.015625 176.402344 157.535156 176.960938 158.175781 176.960938 C 158.816406 176.960938 159.335938 176.402344 159.335938 175.710938 C 159.335938 175.019531 158.816406 174.457031 158.175781 174.457031 C 157.535156 174.457031 157.015625 175.019531 157.015625 175.710938 Z M 157.015625 175.710938 " fill-opacity="1" fill-rule="nonzero"/><path fill="#fffefa" d="M 175.855469 158.875 C 175.855469 159.566406 176.375 160.125 177.015625 160.125 C 177.65625 160.125 178.175781 159.566406 178.175781 158.875 C 178.175781 158.183594 177.65625 157.621094 177.015625 157.621094 C 176.375 157.621094 175.855469 158.183594 175.855469 158.875 Z M 175.855469 158.875 " fill-opacity="1" fill-rule="nonzero"/><path fill="#fffefa" d="M 162.148438 141.671875 C 162.148438 141.835938 162.117188 141.996094 162.058594 142.148438 C 162 142.304688 161.917969 142.4375 161.808594 142.554688 C 161.699219 142.671875 161.574219 142.761719 161.433594 142.828125 C 161.289062 142.890625 161.140625 142.921875 160.988281 142.921875 C 160.835938 142.921875 160.6875 142.890625 160.542969 142.828125 C 160.402344 142.761719 160.277344 142.671875 160.167969 142.554688 C 160.058594 142.4375 159.976562 142.304688 159.917969 142.148438 C 159.859375 141.996094 159.828125 141.835938 159.828125 141.671875 C 159.828125 141.503906 159.859375 141.34375 159.917969 141.191406 C 159.976562 141.039062 160.058594 140.902344 160.167969 140.785156 C 160.277344 140.667969 160.402344 140.578125 160.542969 140.511719 C 160.6875 140.449219 160.835938 140.417969 160.988281 140.417969 C 161.140625 140.417969 161.289062 140.449219 161.433594 140.511719 C 161.574219 140.578125 161.699219 140.667969 161.808594 140.785156 C 161.917969 140.902344 162 141.039062 162.058594 141.191406 C 162.117188 141.34375 162.148438 141.503906 162.148438 141.671875 Z M 162.148438 141.671875 " fill-opacity="1" fill-rule="nonzero"/><path fill="#fffefa" d="M 155.40625 111.152344 C 155.40625 111.84375 155.925781 112.402344 156.566406 112.402344 C 157.203125 112.402344 157.726562 111.84375 157.726562 111.152344 C 157.726562 110.460938 157.203125 109.898438 156.566406 109.898438 C 155.925781 109.898438 155.40625 110.460938 155.40625 111.152344 Z M 155.40625 111.152344 " fill-opacity="1" fill-rule="nonzero"/><path fill="#fffefa" d="M 168.96875 96.109375 C 168.96875 96.800781 169.488281 97.359375 170.128906 97.359375 C 170.769531 97.359375 171.289062 96.800781 171.289062 96.109375 C 171.289062 95.417969 170.769531 94.855469 170.128906 94.855469 C 169.488281 94.855469 168.96875 95.417969 168.96875 96.109375 Z M 168.96875 96.109375 " fill-opacity="1" fill-rule="nonzero"/><path fill="#fffefa" d="M 161.460938 117.5 C 161.460938 118.191406 161.980469 118.753906 162.621094 118.753906 C 163.261719 118.753906 163.78125 118.191406 163.78125 117.5 C 163.78125 116.808594 163.261719 116.246094 162.621094 116.246094 C 161.980469 116.246094 161.460938 116.808594 161.460938 117.5 Z M 161.460938 117.5 " fill-opacity="1" fill-rule="nonzero"/><path fill="#fffefa" d="M 170.128906 114.632812 C 170.128906 115.324219 170.648438 115.886719 171.289062 115.886719 C 171.929688 115.886719 172.449219 115.324219 172.449219 114.632812 C 172.449219 113.941406 171.929688 113.382812 171.289062 113.382812 C 170.648438 113.382812 170.128906 113.941406 170.128906 114.632812 Z M 170.128906 114.632812 " fill-opacity="1" fill-rule="nonzero"/><path fill="#fffefa" d="M 167.335938 130.214844 C 167.335938 130.378906 167.304688 130.539062 167.246094 130.691406 C 167.1875 130.847656 167.105469 130.980469 166.996094 131.097656 C 166.886719 131.214844 166.761719 131.304688 166.617188 131.371094 C 166.476562 131.433594 166.328125 131.464844 166.175781 131.464844 C 166.019531 131.464844 165.871094 131.433594 165.730469 131.371094 C 165.589844 131.304688 165.464844 131.214844 165.355469 131.097656 C 165.246094 130.980469 165.160156 130.847656 165.101562 130.691406 C 165.042969 130.539062 165.015625 130.378906 165.015625 130.214844 C 165.015625 130.046875 165.042969 129.886719 165.101562 129.734375 C 165.160156 129.582031 165.246094 129.445312 165.355469 129.328125 C 165.464844 129.210938 165.589844 129.121094 165.730469 129.054688 C 165.871094 128.992188 166.019531 128.960938 166.175781 128.960938 C 166.328125 128.960938 166.476562 128.992188 166.617188 129.054688 C 166.761719 129.121094 166.886719 129.210938 166.996094 129.328125 C 167.105469 129.445312 167.1875 129.582031 167.246094 129.734375 C 167.304688 129.886719 167.335938 130.046875 167.335938 130.214844 Z M 167.335938 130.214844 " fill-opacity="1" fill-rule="nonzero"/><path fill="#fffefa" d="M 173.925781 138.816406 C 173.925781 139.507812 174.445312 140.066406 175.085938 140.066406 C 175.726562 140.066406 176.246094 139.507812 176.246094 138.816406 C 176.246094 138.125 175.726562 137.5625 175.085938 137.5625 C 174.445312 137.5625 173.925781 138.125 173.925781 138.816406 Z M 173.925781 138.816406 " fill-opacity="1" fill-rule="nonzero"/><path fill="#fffefa" d="M 177.40625 129.535156 C 177.40625 129.703125 177.375 129.863281 177.316406 130.015625 C 177.257812 130.167969 177.175781 130.304688 177.066406 130.421875 C 176.957031 130.539062 176.832031 130.628906 176.691406 130.691406 C 176.546875 130.757812 176.398438 130.789062 176.246094 130.789062 C 176.09375 130.789062 175.945312 130.757812 175.800781 130.691406 C 175.660156 130.628906 175.535156 130.539062 175.425781 130.421875 C 175.316406 130.304688 175.234375 130.167969 175.175781 130.015625 C 175.117188 129.863281 175.085938 129.703125 175.085938 129.535156 C 175.085938 129.371094 175.117188 129.210938 175.175781 129.058594 C 175.234375 128.902344 175.316406 128.769531 175.425781 128.652344 C 175.535156 128.535156 175.660156 128.441406 175.800781 128.378906 C 175.945312 128.316406 176.09375 128.285156 176.246094 128.285156 C 176.398438 128.285156 176.546875 128.316406 176.691406 128.378906 C 176.832031 128.441406 176.957031 128.535156 177.066406 128.652344 C 177.175781 128.769531 177.257812 128.902344 177.316406 129.058594 C 177.375 129.210938 177.40625 129.371094 177.40625 129.535156 Z M 177.40625 129.535156 " fill-opacity="1" fill-rule="nonzero"/><path fill="#fffefa" d="M 143.308594 201.378906 C 143.308594 201.546875 143.28125 201.707031 143.222656 201.859375 C 143.160156 202.011719 143.078125 202.148438 142.96875 202.265625 C 142.859375 202.382812 142.734375 202.472656 142.59375 202.535156 C 142.449219 202.601562 142.304688 202.632812 142.148438 202.632812 C 141.996094 202.632812 141.847656 202.601562 141.707031 202.535156 C 141.5625 202.472656 141.4375 202.382812 141.328125 202.265625 C 141.21875 202.148438 141.136719 202.011719 141.078125 201.859375 C 141.019531 201.707031 140.988281 201.546875 140.988281 201.378906 C 140.988281 201.214844 141.019531 201.054688 141.078125 200.902344 C 141.136719 200.746094 141.21875 200.613281 141.328125 200.496094 C 141.4375 200.378906 141.5625 200.285156 141.707031 200.222656 C 141.847656 200.160156 141.996094 200.128906 142.148438 200.128906 C 142.304688 200.128906 142.449219 200.160156 142.59375 200.222656 C 142.734375 200.285156 142.859375 200.378906 142.96875 200.496094 C 143.078125 200.613281 143.160156 200.746094 143.222656 200.902344 C 143.28125 201.054688 143.308594 201.214844 143.308594 201.378906 Z M 143.308594 201.378906 " fill-opacity="1" fill-rule="nonzero"/><path fill="#fffefa" d="M 193.175781 167.628906 C 193.152344 168.882812 192.96875 170.101562 192.644531 171.261719 L 196.980469 171.261719 C 197.222656 170.082031 197.359375 168.867188 197.375 167.628906 Z M 193.175781 167.628906 " fill-opacity="1" fill-rule="nonzero"/><path fill="#fffefa" d="M 185.839844 148.78125 C 187.015625 147.242188 187.910156 145.488281 188.519531 143.5625 L 183.984375 143.5625 C 182.058594 147.773438 178.503906 149.347656 177.402344 149.746094 C 177.199219 149.792969 176.996094 149.839844 176.792969 149.890625 C 176.710938 149.914062 176.636719 149.9375 176.5625 149.96875 C 174.933594 150.253906 172.5 149.976562 170.882812 148.417969 C 169.296875 146.886719 168.8125 144.398438 169.441406 141.023438 C 169.667969 139.796875 168.933594 138.601562 167.796875 138.355469 C 166.660156 138.109375 165.554688 138.902344 165.324219 140.128906 C 164.148438 146.4375 166.175781 149.957031 168.085938 151.796875 C 170.179688 153.816406 172.90625 154.609375 175.34375 154.609375 C 176.46875 154.609375 177.53125 154.441406 178.4375 154.144531 C 179.113281 154.011719 179.804688 153.933594 180.5 153.921875 C 183.824219 153.855469 186.976562 155.191406 189.371094 157.6875 C 191.019531 159.402344 192.167969 161.523438 192.746094 163.847656 L 197.058594 163.847656 C 196.40625 160.277344 194.765625 157.007812 192.285156 154.421875 C 190.175781 152.226562 187.625 150.699219 184.859375 149.941406 C 185.191406 149.582031 185.519531 149.191406 185.839844 148.777344 Z M 185.839844 148.78125 " fill-opacity="1" fill-rule="nonzero"/><path fill="#fffefa" d="M 186.878906 99.726562 L 190.335938 95.351562 C 190.011719 94.167969 189.59375 93.050781 189.085938 92.003906 L 186.070312 95.875 C 186.464844 97.058594 186.734375 98.347656 186.875 99.730469 Z M 186.878906 99.726562 " fill-opacity="1" fill-rule="nonzero"/><path fill="#fffefa" d="M 189.308594 139.789062 C 189.417969 138.828125 189.46875 137.835938 189.453125 136.824219 C 189.402344 133.84375 188.6875 131.039062 187.453125 128.578125 L 184.304688 131.976562 C 184.890625 133.5 185.226562 135.160156 185.257812 136.90625 C 185.273438 137.945312 185.207031 138.902344 185.078125 139.785156 L 189.3125 139.785156 Z M 189.308594 139.789062 " fill-opacity="1" fill-rule="nonzero"/><g clip-path="url(#a26c16a490)"><path fill="#fffefa" d="M 195.785156 175.039062 L 190.953125 175.039062 C 189.515625 177.273438 187.453125 179.039062 184.960938 180.007812 C 182.957031 178.277344 180.574219 177.148438 177.851562 176.660156 C 177.429688 172.394531 175.652344 168.460938 172.753906 165.445312 C 169.488281 162.042969 165.1875 160.222656 160.644531 160.304688 C 159.71875 160.324219 158.683594 160.449219 157.617188 160.707031 C 158.777344 157.609375 159.488281 154.25 159.441406 151.453125 C 159.382812 147.941406 158.4375 144.605469 156.691406 141.703125 C 158.140625 139.324219 158.980469 136.566406 159.109375 133.710938 C 163.695312 125.425781 167.347656 124.625 170.300781 123.976562 C 171.039062 123.8125 171.804688 123.71875 172.578125 123.707031 C 172.800781 123.703125 173.015625 123.703125 173.214844 123.710938 L 173.253906 123.710938 C 173.476562 123.71875 173.703125 123.738281 173.925781 123.757812 C 173.941406 123.757812 173.960938 123.761719 173.976562 123.761719 C 177.414062 124.109375 180.414062 125.9375 182.453125 128.632812 L 185.4375 125.417969 C 184.324219 124.019531 183.015625 122.808594 181.550781 121.835938 C 183.476562 120.683594 185.234375 119.042969 186.726562 116.953125 C 187.613281 115.710938 188.378906 114.351562 189.011719 112.902344 L 184.230469 112.902344 C 183.972656 113.34375 183.695312 113.773438 183.402344 114.183594 C 181.113281 117.382812 178.070312 119.179688 174.832031 119.242188 C 174.636719 119.246094 174.445312 119.242188 174.265625 119.234375 C 174.21875 119.230469 174.171875 119.230469 174.125 119.230469 C 173.875 119.210938 173.621094 119.191406 173.367188 119.183594 L 173.328125 119.183594 C 173.066406 119.171875 172.789062 119.167969 172.503906 119.175781 C 171.46875 119.195312 170.445312 119.320312 169.457031 119.535156 C 165.941406 120.3125 162.210938 121.597656 158.144531 127.199219 C 158.082031 127.023438 158.015625 126.84375 157.945312 126.671875 C 156.3125 122.546875 153.085938 119.328125 149.1875 117.867188 C 148.867188 116.800781 148.691406 115.683594 148.671875 114.539062 C 148.621094 111.496094 149.671875 108.609375 151.632812 106.417969 C 153.59375 104.222656 156.226562 102.984375 159.046875 102.929688 C 159.554688 102.921875 160.058594 102.949219 160.558594 103.015625 C 163.425781 103.402344 166.050781 105.074219 167.769531 107.601562 C 168.457031 108.609375 169.769531 108.828125 170.703125 108.089844 C 171.640625 107.351562 171.839844 105.933594 171.15625 104.925781 C 169.359375 102.277344 166.84375 100.304688 164.011719 99.253906 C 163.777344 96.132812 164.976562 93.722656 166.109375 92.183594 C 168.167969 89.390625 171.394531 87.550781 174.332031 87.492188 C 177.875 87.421875 180.9375 88.617188 183.1875 90.949219 C 183.585938 91.363281 183.957031 91.816406 184.292969 92.292969 L 187.046875 88.761719 C 186.746094 88.386719 186.429688 88.023438 186.09375 87.679688 C 183.070312 84.542969 178.863281 82.867188 174.257812 82.957031 C 170.117188 83.035156 165.628906 85.550781 162.824219 89.355469 C 160.84375 92.046875 159.804688 95.179688 159.789062 98.40625 C 159.519531 98.394531 159.246094 98.390625 158.972656 98.394531 C 155.03125 98.472656 151.351562 100.203125 148.613281 103.265625 C 145.871094 106.332031 144.40625 110.363281 144.476562 114.617188 C 144.488281 115.421875 144.558594 116.214844 144.679688 116.996094 C 144.484375 116.992188 144.292969 116.988281 144.101562 116.996094 C 140.15625 117.070312 136.476562 118.800781 133.738281 121.867188 C 131 124.929688 129.53125 128.960938 129.601562 133.21875 C 129.640625 135.546875 130.132812 137.78125 131.066406 139.859375 C 131.09375 139.925781 131.125 139.984375 131.152344 140.050781 C 130.996094 140.058594 130.835938 140.070312 130.679688 140.082031 C 122.550781 140.84375 119.03125 148.171875 119.148438 155.09375 C 119.210938 159.089844 120.703125 162.84375 123.339844 165.652344 C 124.5 166.890625 125.832031 167.886719 127.273438 168.613281 C 123.695312 171.753906 121.472656 176.589844 121.394531 181.980469 C 121.292969 188.8125 123.746094 194.09375 128.128906 196.472656 C 128.699219 196.78125 129.292969 197.035156 129.894531 197.226562 C 129.90625 199.921875 130.683594 204.398438 135.078125 207.742188 C 137.488281 209.578125 139.816406 210.121094 141.730469 210.121094 C 142.554688 210.121094 143.308594 210.023438 143.953125 209.878906 C 144.375 209.785156 144.765625 209.667969 145.128906 209.542969 C 146.179688 213.722656 148.238281 217.382812 151.003906 219.828125 C 153.59375 222.113281 156.691406 223.289062 160.074219 223.289062 C 160.859375 223.289062 161.660156 223.226562 162.476562 223.097656 C 163.363281 222.957031 164.222656 222.71875 165.046875 222.398438 C 166.363281 226.878906 169.40625 229.367188 169.964844 229.789062 C 170.472656 230.210938 173.148438 232.269531 176.882812 232.269531 C 178.664062 232.269531 180.683594 231.800781 182.828125 230.464844 C 188.128906 227.160156 188.386719 222.414062 188.070312 219.878906 C 188.019531 219.46875 187.949219 219.078125 187.867188 218.710938 L 187.164062 218.710938 L 184.195312 212.523438 C 182.386719 215.027344 179.691406 216.917969 175.675781 216.996094 C 174.515625 217.019531 173.59375 218.050781 173.613281 219.300781 C 173.632812 220.539062 174.570312 221.527344 175.710938 221.527344 L 175.75 221.527344 C 178.695312 221.46875 181.347656 220.65625 183.617188 219.136719 C 183.894531 220.042969 184.097656 221.246094 183.863281 222.464844 C 183.546875 224.070312 182.496094 225.441406 180.730469 226.542969 C 176.34375 229.277344 172.773438 226.402344 172.535156 226.203125 C 172.472656 226.148438 172.460938 226.136719 172.386719 226.085938 C 172.261719 225.996094 169.570312 223.960938 168.832031 220.121094 C 171.753906 217.605469 173.617188 213.847656 173.570312 209.851562 C 173.539062 207.007812 172.144531 203.191406 169.105469 201.078125 C 167 199.609375 163.316406 198.414062 157.734375 201.046875 C 156.675781 201.546875 156.191406 202.882812 156.652344 204.03125 C 157.117188 205.179688 158.355469 205.703125 159.417969 205.199219 C 161.554688 204.191406 164.578125 203.316406 166.832031 204.886719 C 168.667969 206.167969 169.359375 208.59375 169.375 209.910156 C 169.425781 214.125 166.128906 217.949219 161.871094 218.617188 C 158.710938 219.109375 155.949219 218.339844 153.667969 216.324219 C 150.726562 213.726562 148.824219 209.21875 148.574219 204.265625 C 148.320312 199.214844 149.367188 194.589844 151.691406 190.519531 C 153.429688 187.46875 155.28125 185.871094 155.328125 185.832031 C 155.375 185.789062 155.421875 185.746094 155.464844 185.707031 C 157.582031 186.308594 159.792969 186.132812 161.65625 185.117188 C 164.125 183.773438 165.550781 181.160156 165.574219 177.953125 C 165.582031 176.703125 164.648438 175.679688 163.488281 175.667969 L 163.472656 175.667969 C 162.320312 175.667969 161.382812 176.675781 161.375 177.917969 C 161.363281 179.433594 160.820312 180.492188 159.761719 181.070312 C 158.285156 181.875 156.128906 181.546875 154.511719 180.277344 C 153.199219 179.25 151.117188 176.722656 151.886719 171.359375 C 152.050781 170.199219 152.5 169.210938 153.121094 168.386719 C 153.382812 168.117188 153.648438 167.824219 153.910156 167.507812 C 155.847656 165.671875 158.71875 164.875 160.71875 164.839844 C 164.140625 164.773438 167.378906 166.144531 169.839844 168.710938 C 172.300781 171.273438 173.691406 174.714844 173.75 178.40625 C 173.828125 183.039062 171.765625 187.382812 168.230469 190.027344 C 167.277344 190.742188 167.042969 192.152344 167.703125 193.179688 C 168.109375 193.816406 168.761719 194.15625 169.429688 194.15625 C 169.839844 194.15625 170.257812 194.023438 170.621094 193.753906 C 174.558594 190.808594 177.117188 186.277344 177.78125 181.261719 C 181.664062 182.171875 184.484375 184.910156 186.175781 189.417969 C 186.664062 190.71875 187.011719 192.035156 187.261719 193.289062 L 191.542969 193.289062 C 191.242188 191.523438 190.78125 189.613281 190.066406 187.71875 C 189.488281 186.175781 188.792969 184.785156 187.996094 183.542969 C 191.464844 181.730469 194.1875 178.703125 195.785156 175.042969 Z M 144.382812 204.507812 C 144.390625 204.675781 144.402344 204.84375 144.414062 205.011719 C 143.023438 205.625 140.390625 206.238281 137.5 204.039062 C 134.800781 201.988281 134.1875 199.316406 134.101562 197.597656 C 135.855469 197.367188 137.546875 196.652344 138.972656 195.472656 C 142.246094 192.761719 143.554688 188.238281 142.5625 183.058594 C 142.328125 181.832031 141.214844 181.042969 140.082031 181.296875 C 138.945312 181.550781 138.214844 182.75 138.449219 183.972656 C 139.113281 187.4375 138.394531 190.242188 136.417969 191.875 C 134.632812 193.355469 132.121094 193.570312 130.015625 192.425781 C 127.132812 190.859375 125.519531 187.078125 125.59375 182.050781 C 125.675781 176.339844 128.957031 171.476562 133.761719 169.949219 C 134.738281 169.636719 135.757812 169.46875 136.789062 169.449219 L 136.882812 169.449219 C 136.949219 169.445312 137.015625 169.445312 137.078125 169.445312 C 137.117188 169.449219 137.160156 169.449219 137.199219 169.449219 L 137.351562 169.449219 C 139.085938 169.460938 143.695312 169.496094 147.136719 173.730469 C 147.257812 173.878906 147.394531 174.007812 147.542969 174.113281 C 147.667969 177.980469 149.039062 181.269531 151.492188 183.476562 C 149.007812 186.160156 143.8125 193.175781 144.382812 204.507812 Z M 150.980469 164.238281 C 149.789062 165.398438 148.808594 166.847656 148.21875 168.617188 C 143.929688 164.96875 139.125 164.929688 137.378906 164.917969 L 137.179688 164.917969 C 137.179688 164.917969 137.171875 164.914062 137.164062 164.914062 C 137.058594 164.914062 136.949219 164.914062 136.84375 164.914062 C 136.796875 164.914062 136.757812 164.914062 136.710938 164.917969 C 135.417969 164.941406 134.140625 165.136719 132.910156 165.5 C 127.703125 165.308594 123.4375 160.664062 123.34375 155.011719 C 123.269531 150.546875 125.242188 145.140625 131.042969 144.597656 C 132.367188 144.472656 133.554688 144.582031 134.59375 144.863281 C 134.960938 145.160156 135.398438 145.308594 135.832031 145.308594 C 137.875 146.246094 139.132812 147.925781 139.4375 149.683594 C 139.839844 151.980469 138.585938 153.820312 136.089844 154.609375 C 134.976562 154.957031 134.339844 156.214844 134.664062 157.417969 C 134.992188 158.617188 136.15625 159.308594 137.269531 158.957031 C 142.546875 157.292969 144.234375 152.679688 143.566406 148.84375 C 142.984375 145.488281 140.574219 142.273438 136.738281 140.824219 C 136.71875 140.796875 136.691406 140.773438 136.671875 140.746094 C 136.664062 140.738281 136.65625 140.726562 136.648438 140.71875 C 136.582031 140.640625 136.515625 140.5625 136.445312 140.480469 C 135.804688 139.695312 135.265625 138.824219 134.847656 137.886719 C 134.179688 136.402344 133.828125 134.804688 133.800781 133.136719 C 133.75 130.089844 134.800781 127.203125 136.761719 125.011719 C 138.71875 122.816406 141.351562 121.578125 144.175781 121.523438 C 145.152344 121.503906 146.121094 121.628906 147.058594 121.894531 C 150.183594 122.78125 152.8125 125.230469 154.089844 128.449219 C 154.625 129.796875 154.90625 131.238281 154.933594 132.726562 C 154.964844 134.582031 154.574219 136.398438 153.816406 138.03125 C 151.925781 136.171875 149.683594 134.789062 147.207031 133.980469 C 146.097656 133.617188 144.925781 134.296875 144.589844 135.496094 C 144.253906 136.691406 144.882812 137.957031 145.992188 138.320312 C 148.554688 139.15625 150.785156 140.800781 152.453125 143.082031 C 152.457031 143.085938 152.457031 143.089844 152.460938 143.089844 C 154.230469 145.515625 155.195312 148.433594 155.246094 151.53125 C 155.3125 155.414062 153.300781 161.21875 150.980469 164.234375 Z M 150.980469 164.238281 " fill-opacity="1" fill-rule="nonzero"/></g><path fill="#fffefa" d="M 186.738281 105.597656 C 186.554688 106.816406 186.28125 107.996094 185.914062 109.125 L 188.773438 109.125 L 190.910156 106.152344 C 191.121094 104.664062 191.21875 103.136719 191.195312 101.585938 C 191.1875 101.105469 191.164062 100.632812 191.132812 100.164062 L 186.835938 105.597656 Z M 186.738281 105.597656 " fill-opacity="1" fill-rule="nonzero"/><path fill="#fffefa" d="M 190.738281 197.0625 L 187.769531 197.0625 C 187.917969 199.066406 187.847656 200.515625 187.828125 200.8125 C 187.730469 202.398438 187.390625 205.515625 186.246094 208.59375 L 188.640625 213.582031 C 191.03125 209.378906 191.804688 204.554688 192.015625 201.113281 C 192.039062 200.765625 192.074219 199.980469 192.058594 198.890625 Z M 190.738281 197.0625 " fill-opacity="1" fill-rule="nonzero"/></svg>